  0
SECTION
  2
HEADER
  9
$ACADVER
  1
AC1027
  9
$ACADMAINTVER
 70
   125
  9
$DWGCODEPAGE
  3
ANSI_1252
  9
$LASTSAVEDBY
  1
tarso
  9
$REQUIREDVERSIONS
160
                 0
  9
$INSBASE
 10
0.0
 20
0.0
 30
0.0
  9
$EXTMIN
 10
0.0
 20
0.0
 30
0.0
  9
$EXTMAX
 10
2.692200000000013
 20
2.04000000000002
 30
0.0
  9
$LIMMIN
 10
0.0
 20
0.0
  9
$LIMMAX
 10
420.0
 20
297.0
  9
$ORTHOMODE
 70
     1
  9
$REGENMODE
 70
     1
  9
$FILLMODE
 70
     1
  9
$QTEXTMODE
 70
     0
  9
$MIRRTEXT
 70
     0
  9
$LTSCALE
 40
1.0
  9
$ATTMODE
 70
     1
  9
$TEXTSIZE
 40
2.5
  9
$TRACEWID
 40
1.0
  9
$TEXTSTYLE
  7
Standard
  9
$CLAYER
  8
concrete
  9
$CELTYPE
  6
ByLayer
  9
$CECOLOR
 62
   256
  9
$CELTSCALE
 40
1.0
  9
$DISPSILH
 70
     0
  9
$DIMSCALE
 40
1.0
  9
$DIMASZ
 40
2.5
  9
$DIMEXO
 40
0.625
  9
$DIMDLI
 40
3.75
  9
$DIMRND
 40
0.0
  9
$DIMDLE
 40
0.0
  9
$DIMEXE
 40
1.25
  9
$DIMTP
 40
0.0
  9
$DIMTM
 40
0.0
  9
$DIMTXT
 40
2.5
  9
$DIMCEN
 40
2.5
  9
$DIMTSZ
 40
0.0
  9
$DIMTOL
 70
     0
  9
$DIMLIM
 70
     0
  9
$DIMTIH
 70
     0
  9
$DIMTOH
 70
     0
  9
$DIMSE1
 70
     0
  9
$DIMSE2
 70
     0
  9
$DIMTAD
 70
     1
  9
$DIMZIN
 70
     8
  9
$DIMBLK
  1

  9
$DIMASO
 70
     1
  9
$DIMSHO
 70
     1
  9
$DIMPOST
  1

  9
$DIMAPOST
  1

  9
$DIMALT
 70
     0
  9
$DIMALTD
 70
     3
  9
$DIMALTF
 40
0.03937007874016
  9
$DIMLFAC
 40
1.0
  9
$DIMTOFL
 70
     1
  9
$DIMTVP
 40
0.0
  9
$DIMTIX
 70
     0
  9
$DIMSOXD
 70
     0
  9
$DIMSAH
 70
     0
  9
$DIMBLK1
  1

  9
$DIMBLK2
  1

  9
$DIMSTYLE
  2
ISO-25
  9
$DIMCLRD
 70
     0
  9
$DIMCLRE
 70
     0
  9
$DIMCLRT
 70
     0
  9
$DIMTFAC
 40
1.0
  9
$DIMGAP
 40
0.625
  9
$DIMJUST
 70
     0
  9
$DIMSD1
 70
     0
  9
$DIMSD2
 70
     0
  9
$DIMTOLJ
 70
     0
  9
$DIMTZIN
 70
     8
  9
$DIMALTZ
 70
     0
  9
$DIMALTTZ
 70
     0
  9
$DIMUPT
 70
     0
  9
$DIMDEC
 70
     2
  9
$DIMTDEC
 70
     2
  9
$DIMALTU
 70
     2
  9
$DIMALTTD
 70
     3
  9
$DIMTXSTY
  7
Standard
  9
$DIMAUNIT
 70
     0
  9
$DIMADEC
 70
     0
  9
$DIMALTRND
 40
0.0
  9
$DIMAZIN
 70
     0
  9
$DIMDSEP
 70
    44
  9
$DIMATFIT
 70
     3
  9
$DIMFRAC
 70
     0
  9
$DIMLDRBLK
  1

  9
$DIMLUNIT
 70
     2
  9
$DIMLWD
 70
    -2
  9
$DIMLWE
 70
    -2
  9
$DIMTMOVE
 70
     0
  9
$DIMFXL
 40
1.0
  9
$DIMFXLON
 70
     0
  9
$DIMJOGANG
 40
1.570796326794896
  9
$DIMTFILL
 70
     0
  9
$DIMTFILLCLR
 70
     0
  9
$DIMARCSYM
 70
     0
  9
$DIMLTYPE
  6

  9
$DIMLTEX1
  6

  9
$DIMLTEX2
  6

  9
$DIMTXTDIRECTION
 70
     0
  9
$LUNITS
 70
     2
  9
$LUPREC
 70
     4
  9
$SKETCHINC
 40
1.0
  9
$FILLETRAD
 40
0.0
  9
$AUNITS
 70
     0
  9
$AUPREC
 70
     0
  9
$MENU
  1
.
  9
$ELEVATION
 40
0.0
  9
$PELEVATION
 40
0.0
  9
$THICKNESS
 40
0.0
  9
$LIMCHECK
 70
     0
  9
$CHAMFERA
 40
0.0
  9
$CHAMFERB
 40
0.0
  9
$CHAMFERC
 40
0.0
  9
$CHAMFERD
 40
0.0
  9
$SKPOLY
 70
     0
  9
$TDCREATE
 40
2460885.727129630
  9
$TDUCREATE
 40
2460885.852129630
  9
$TDUPDATE
 40
2460910.813414352
  9
$TDUUPDATE
 40
2460910.938414352
  9
$TDINDWG
 40
0.0140162037
  9
$TDUSRTIMER
 40
0.0140162037
  9
$USRTIMER
 70
     1
  9
$ANGBASE
 50
0.0
  9
$ANGDIR
 70
     0
  9
$PDMODE
 70
     0
  9
$PDSIZE
 40
0.0
  9
$PLINEWID
 40
0.0
  9
$SPLFRAME
 70
     0
  9
$SPLINETYPE
 70
     6
  9
$SPLINESEGS
 70
     8
  9
$HANDSEED
  5
448
  9
$SURFTAB1
 70
     6
  9
$SURFTAB2
 70
     6
  9
$SURFTYPE
 70
     6
  9
$SURFU
 70
     6
  9
$SURFV
 70
     6
  9
$UCSBASE
  2

  9
$UCSNAME
  2

  9
$UCSORG
 10
0.0
 20
0.0
 30
0.0
  9
$UCSXDIR
 10
1.0
 20
0.0
 30
0.0
  9
$UCSYDIR
 10
0.0
 20
1.0
 30
0.0
  9
$UCSORTHOREF
  2

  9
$UCSORTHOVIEW
 70
     0
  9
$UCSORGTOP
 10
0.0
 20
0.0
 30
0.0
  9
$UCSORGBOTTOM
 10
0.0
 20
0.0
 30
0.0
  9
$UCSORGLEFT
 10
0.0
 20
0.0
 30
0.0
  9
$UCSORGRIGHT
 10
0.0
 20
0.0
 30
0.0
  9
$UCSORGFRONT
 10
0.0
 20
0.0
 30
0.0
  9
$UCSORGBACK
 10
0.0
 20
0.0
 30
0.0
  9
$PUCSBASE
  2

  9
$PUCSNAME
  2

  9
$PUCSORG
 10
0.0
 20
0.0
 30
0.0
  9
$PUCSXDIR
 10
1.0
 20
0.0
 30
0.0
  9
$PUCSYDIR
 10
0.0
 20
1.0
 30
0.0
  9
$PUCSORTHOREF
  2

  9
$PUCSORTHOVIEW
 70
     0
  9
$PUCSORGTOP
 10
0.0
 20
0.0
 30
0.0
  9
$PUCSORGBOTTOM
 10
0.0
 20
0.0
 30
0.0
  9
$PUCSORGLEFT
 10
0.0
 20
0.0
 30
0.0
  9
$PUCSORGRIGHT
 10
0.0
 20
0.0
 30
0.0
  9
$PUCSORGFRONT
 10
0.0
 20
0.0
 30
0.0
  9
$PUCSORGBACK
 10
0.0
 20
0.0
 30
0.0
  9
$USERI1
 70
     0
  9
$USERI2
 70
     0
  9
$USERI3
 70
     0
  9
$USERI4
 70
     0
  9
$USERI5
 70
     0
  9
$USERR1
 40
0.0
  9
$USERR2
 40
0.0
  9
$USERR3
 40
0.0
  9
$USERR4
 40
0.0
  9
$USERR5
 40
0.0
  9
$WORLDVIEW
 70
     1
  9
$SHADEDGE
 70
     3
  9
$SHADEDIF
 70
    70
  9
$TILEMODE
 70
     1
  9
$MAXACTVP
 70
    64
  9
$PINSBASE
 10
0.0
 20
0.0
 30
0.0
  9
$PLIMCHECK
 70
     0
  9
$PEXTMIN
 10
1.000000000000000E+20
 20
1.000000000000000E+20
 30
1.000000000000000E+20
  9
$PEXTMAX
 10
-1.000000000000000E+20
 20
-1.000000000000000E+20
 30
-1.000000000000000E+20
  9
$PLIMMIN
 10
0.0
 20
0.0
  9
$PLIMMAX
 10
420.0
 20
297.0
  9
$UNITMODE
 70
     0
  9
$VISRETAIN
 70
     1
  9
$PLINEGEN
 70
     0
  9
$PSLTSCALE
 70
     1
  9
$TREEDEPTH
 70
  3020
  9
$CMLSTYLE
  2
Standard
  9
$CMLJUST
 70
     0
  9
$CMLSCALE
 40
20.0
  9
$PROXYGRAPHICS
 70
     1
  9
$MEASUREMENT
 70
     1
  9
$CELWEIGHT
370
    -1
  9
$ENDCAPS
280
     0
  9
$JOINSTYLE
280
     0
  9
$LWDISPLAY
290
     0
  9
$INSUNITS
 70
     4
  9
$HYPERLINKBASE
  1

  9
$STYLESHEET
  1

  9
$XEDIT
290
     1
  9
$CEPSNTYPE
380
     0
  9
$PSTYLEMODE
290
     1
  9
$FINGERPRINTGUID
  2
{2221220B-A275-FF48-80FC-04131C6B3688}
  9
$VERSIONGUID
  2
{70ED9C80-8BBF-664A-B556-75A575C2A0E9}
  9
$EXTNAMES
290
     1
  9
$PSVPSCALE
 40
0.0
  9
$OLESTARTUP
290
     0
  9
$SORTENTS
280
   127
  9
$INDEXCTL
280
     0
  9
$HIDETEXT
280
     1
  9
$XCLIPFRAME
280
     2
  9
$HALOGAP
280
     0
  9
$OBSCOLOR
 70
   257
  9
$OBSLTYPE
280
     0
  9
$INTERSECTIONDISPLAY
280
     0
  9
$INTERSECTIONCOLOR
 70
   257
  9
$DIMASSOC
280
     2
  9
$PROJECTNAME
  1

  9
$CAMERADISPLAY
290
     0
  9
$LENSLENGTH
 40
50.0
  9
$CAMERAHEIGHT
 40
0.0
  9
$STEPSPERSEC
 40
2.0
  9
$STEPSIZE
 40
6.0
  9
$3DDWFPREC
 40
2.0
  9
$PSOLWIDTH
 40
0.25
  9
$PSOLHEIGHT
 40
4.0
  9
$LOFTANG1
 40
1.570796326794896
  9
$LOFTANG2
 40
1.570796326794896
  9
$LOFTMAG1
 40
0.0
  9
$LOFTMAG2
 40
0.0
  9
$LOFTPARAM
 70
     7
  9
$LOFTNORMALS
280
     1
  9
$LATITUDE
 40
37.795
  9
$LONGITUDE
 40
-122.394
  9
$NORTHDIRECTION
 40
0.0
  9
$TIMEZONE
 70
 -8000
  9
$LIGHTGLYPHDISPLAY
280
     1
  9
$TILEMODELIGHTSYNCH
280
     1
  9
$CMATERIAL
347
11
  9
$SOLIDHIST
280
     0
  9
$SHOWHIST
280
     1
  9
$DWFFRAME
280
     2
  9
$DGNFRAME
280
     0
  9
$REALWORLDSCALE
290
     1
  9
$INTERFERECOLOR
 62
     1
  9
$INTERFEREOBJVS
345
33
  9
$INTERFEREVPVS
346
30
  9
$CSHADOW
280
     0
  9
$SHADOWPLANELOCATION
 40
0.0
  0
ENDSEC
  0
SECTION
  2
CLASSES
  0
CLASS
  1
ACDBDICTIONARYWDFLT
  2
AcDbDictionaryWithDefault
  3
ObjectDBX Classes
 90
        0
 91
        1
280
     0
281
     0
  0
CLASS
  1
MATERIAL
  2
AcDbMaterial
  3
ObjectDBX Classes
 90
     1153
 91
        3
280
     0
281
     0
  0
CLASS
  1
VISUALSTYLE
  2
AcDbVisualStyle
  3
ObjectDBX Classes
 90
     4095
 91
       24
280
     0
281
     0
  0
CLASS
  1
SCALE
  2
AcDbScale
  3
ObjectDBX Classes
 90
     1153
 91
       17
280
     0
281
     0
  0
CLASS
  1
TABLESTYLE
  2
AcDbTableStyle
  3
ObjectDBX Classes
 90
     4095
 91
        1
280
     0
281
     0
  0
CLASS
  1
MLEADERSTYLE
  2
AcDbMLeaderStyle
  3
ACDB_MLEADERSTYLE_CLASS
 90
     4095
 91
        1
280
     0
281
     0
  0
CLASS
  1
ACDBSECTIONVIEWSTYLE
  2
AcDbSectionViewStyle
  3
ObjectDBX Classes
 90
     1025
 91
        1
280
     0
281
     0
  0
CLASS
  1
ACDBDETAILVIEWSTYLE
  2
AcDbDetailViewStyle
  3
ObjectDBX Classes
 90
     1025
 91
        1
280
     0
281
     0
  0
CLASS
  1
DICTIONARYVAR
  2
AcDbDictionaryVar
  3
ObjectDBX Classes
 90
        0
 91
        7
280
     0
281
     0
  0
CLASS
  1
SORTENTSTABLE
  2
AcDbSortentsTable
  3
ObjectDBX Classes
 90
        0
 91
        1
280
     0
281
     0
  0
CLASS
  1
CELLSTYLEMAP
  2
AcDbCellStyleMap
  3
ObjectDBX Classes
 90
     1152
 91
        2
280
     0
281
     0
  0
ENDSEC
  0
SECTION
  2
TABLES
  0
TABLE
  2
VPORT
  5
8
330
0
100
AcDbSymbolTable
 70
     1
1001
ACAD
1000
DbSaveVer
1071
      247
  0
VPORT
  5
57
330
8
100
AcDbSymbolTableRecord
100
AcDbViewportTableRecord
  2
*Active
 70
     0
 10
0.0
 20
0.0
 11
1.0
 21
1.0
 12
3.052636996979035
 22
2.052667419324661
 13
0.0
 23
0.0
 14
10.0
 24
10.0
 15
10.0
 25
10.0
 16
0.0
 26
0.0
 36
1.0
 17
0.0
 27
0.0
 37
0.0
 40
6.440635483985626
 41
1.299393939393939
 42
50.0
 43
0.0
 44
0.0
 50
0.0
 51
0.0
 71
     0
 72
  1000
 73
     1
 74
     3
 75
     0
 76
     0
 77
     0
 78
     0
281
     0
 65
     1
110
0.0
120
0.0
130
0.0
111
1.0
121
0.0
131
0.0
112
0.0
122
1.0
132
0.0
 79
     0
146
0.0
348
2F
 60
     3
 61
     5
292
     1
282
     1
141
0.0
142
0.0
 63
   250
421
  3355443
1001
ACAD_NAV_VCDISPLAY
1070
     1
  0
ENDTAB
  0
TABLE
  2
LTYPE
  5
5
330
0
100
AcDbSymbolTable
 70
     2
  0
LTYPE
  5
5B
330
5
100
AcDbSymbolTableRecord
100
AcDbLinetypeTableRecord
  2
ByBlock
 70
     0
  3

 72
    65
 73
     0
 40
0.0
  0
LTYPE
  5
5C
330
5
100
AcDbSymbolTableRecord
100
AcDbLinetypeTableRecord
  2
ByLayer
 70
     0
  3

 72
    65
 73
     0
 40
0.0
  0
LTYPE
  5
5D
330
5
100
AcDbSymbolTableRecord
100
AcDbLinetypeTableRecord
  2
Continuous
 70
     0
  3
Solid line
 72
    65
 73
     0
 40
0.0
  0
LTYPE
  5
E8
330
5
100
AcDbSymbolTableRecord
100
AcDbLinetypeTableRecord
  2
HIDDEN2
 70
     0
  3
Hidden (.5x) _ _ _ _ _ _ _ _ _ _ _ _ _ _ _ _ _
 72
    65
 73
     2
 40
4.762499999999998
 49
3.174999999999998
 74
     0
 49
-1.587499999999999
 74
     0
  0
ENDTAB
  0
TABLE
  2
LAYER
  5
2
102
{ACAD_XDICTIONARY
360
F4
102
}
330
0
100
AcDbSymbolTable
 70
     5
  0
LAYER
  5
54
330
2
100
AcDbSymbolTableRecord
100
AcDbLayerTableRecord
  2
0
 70
     0
 62
     7
  6
Continuous
370
    -3
390
F
347
21
348
0
  0
LAYER
  5
E9
330
2
100
AcDbSymbolTableRecord
100
AcDbLayerTableRecord
  2
Defpoints
 70
     0
 62
     7
  6
Continuous
290
     0
370
    -3
390
F
347
21
348
0
  0
LAYER
  5
EA
102
{ACAD_XDICTIONARY
360
EB
102
}
330
2
100
AcDbSymbolTableRecord
100
AcDbLayerTableRecord
  2
02-02
 70
     0
 62
     7
  6
Continuous
370
    -3
390
F
347
21
348
0
  0
LAYER
  5
EC
330
2
100
AcDbSymbolTableRecord
100
AcDbLayerTableRecord
  2
steel bars
 70
     0
 62
     5
  6
Continuous
370
    -3
390
F
347
21
348
0
1001
AcAecLayerStandard
1000

1000

1001
AcCmTransparency
1071
        0
  0
LAYER
  5
ED
330
2
100
AcDbSymbolTableRecord
100
AcDbLayerTableRecord
  2
concrete
 70
     0
 62
     3
  6
Continuous
370
    -3
390
F
347
21
348
0
1001
AcAecLayerStandard
1000

1000

1001
AcCmTransparency
1071
        0
  0
ENDTAB
  0
TABLE
  2
STYLE
  5
3
330
0
100
AcDbSymbolTable
 70
     3
  0
STYLE
  5
55
330
3
100
AcDbSymbolTableRecord
100
AcDbTextStyleTableRecord
  2
Standard
 70
     0
 40
0.0
 41
1.0
 50
0.0
 71
     0
 42
2.5
  3
txt
  4

  0
STYLE
  5
5A
330
3
100
AcDbSymbolTableRecord
100
AcDbTextStyleTableRecord
  2
Annotative
 70
     0
 40
0.0
 41
1.0
 50
0.0
 71
     0
 42
0.2
  3
txt
  4

1001
AcadAnnotative
1000
AnnotativeData
1002
{
1070
     1
1070
     1
1002
}
  0
STYLE
  5
EE
330
3
100
AcDbSymbolTableRecord
100
AcDbTextStyleTableRecord
  2
R80-ESC50
 70
     0
 40
0.1
 41
1.0
 50
0.0
 71
     0
 42
0.1
  3

  4

1001
ACAD
1000
Nimbus Roman No9 L Medium
1071
 50331682
  0
ENDTAB
  0
TABLE
  2
VIEW
  5
6
330
0
100
AcDbSymbolTable
 70
     0
  0
ENDTAB
  0
TABLE
  2
UCS
  5
7
330
0
100
AcDbSymbolTable
 70
     0
  0
ENDTAB
  0
TABLE
  2
APPID
  5
9
330
0
100
AcDbSymbolTable
 70
     9
  0
APPID
  5
56
330
9
100
AcDbSymbolTableRecord
100
AcDbRegAppTableRecord
  2
ACAD
 70
     0
  0
APPID
  5
5E
330
9
100
AcDbSymbolTableRecord
100
AcDbRegAppTableRecord
  2
AcadAnnotative
 70
     0
  0
APPID
  5
7D
330
9
100
AcDbSymbolTableRecord
100
AcDbRegAppTableRecord
  2
ACAD_NAV_VCDISPLAY
 70
     0
  0
APPID
  5
80
330
9
100
AcDbSymbolTableRecord
100
AcDbRegAppTableRecord
  2
ACAD_EXEMPT_FROM_CAD_STANDARDS
 70
     0
  0
APPID
  5
87
330
9
100
AcDbSymbolTableRecord
100
AcDbRegAppTableRecord
  2
Acad_TC
 70
     0
  0
APPID
  5
F0
330
9
100
AcDbSymbolTableRecord
100
AcDbRegAppTableRecord
  2
ACAD_DSTYLE_DIMJAG
 70
     0
  0
APPID
  5
F1
330
9
100
AcDbSymbolTableRecord
100
AcDbRegAppTableRecord
  2
ACAD_DSTYLE_DIMTALN
 70
     0
  0
APPID
  5
F2
330
9
100
AcDbSymbolTableRecord
100
AcDbRegAppTableRecord
  2
AcAecLayerStandard
 70
     0
  0
APPID
  5
F3
330
9
100
AcDbSymbolTableRecord
100
AcDbRegAppTableRecord
  2
AcCmTransparency
 70
     0
  0
ENDTAB
  0
TABLE
  2
DIMSTYLE
  5
A
330
0
100
AcDbSymbolTable
 70
     3
100
AcDbDimStyleTable
 71
     1
340
58
  0
DIMSTYLE
105
58
330
A
100
AcDbSymbolTableRecord
100
AcDbDimStyleTableRecord
  2
ISO-25
 70
     0
 41
2.5
 42
0.625
 43
3.75
 44
1.25
 50
90.0
 73
     0
 74
     0
 77
     1
 78
     8
140
2.5
141
2.5
143
0.03937007874016
147
0.625
171
     3
172
     1
271
     2
272
     2
274
     3
278
    44
283
     0
284
     8
340
55
  0
DIMSTYLE
105
59
330
A
100
AcDbSymbolTableRecord
100
AcDbDimStyleTableRecord
  2
Annotative
 70
     0
340
55
1001
AcadAnnotative
1000
AnnotativeData
1002
{
1070
     1
1070
     1
1002
}
  0
DIMSTYLE
105
EF
330
A
100
AcDbSymbolTableRecord
100
AcDbDimStyleTableRecord
  2
DIM50
 70
     0
 41
0.15
 42
0.1
 43
0.0
 44
0.1
 73
     0
 74
     0
 77
     2
 78
     1
140
0.1
141
0.0
147
0.06
172
     1
176
     1
177
     1
178
     3
271
     3
272
     3
279
     2
284
     1
340
EE
341
A4
342
A8
1001
ACAD_DSTYLE_DIMJAG
1070
   388
1040
1.5
1001
ACAD_DSTYLE_DIMTALN
1070
   392
1070
     0
  0
ENDTAB
  0
TABLE
  2
BLOCK_RECORD
  5
1
330
0
100
AcDbSymbolTable
 70
    33
  0
BLOCK_RECORD
  5
70
102
{ACAD_XDICTIONARY
360
89
102
}
330
1
100
AcDbSymbolTableRecord
100
AcDbBlockTableRecord
  2
*Model_Space
340
73
 70
     0
280
     1
281
     0
  0
BLOCK_RECORD
  5
6C
330
1
100
AcDbSymbolTableRecord
100
AcDbBlockTableRecord
  2
*Paper_Space
340
6F
 70
     0
280
     1
281
     0
  0
BLOCK_RECORD
  5
74
330
1
100
AcDbSymbolTableRecord
100
AcDbBlockTableRecord
  2
*Paper_Space0
340
77
 70
     0
280
     1
281
     0
  0
BLOCK_RECORD
  5
A4
330
1
100
AcDbSymbolTableRecord
100
AcDbBlockTableRecord
  2
_DOTSMALL
340
0
 70
     0
280
     1
281
     0
  0
BLOCK_RECORD
  5
A8
330
1
100
AcDbSymbolTableRecord
100
AcDbBlockTableRecord
  2
_Oblique
340
0
102
{BLKREFS
331
33D
331
33E
331
345
331
346
331
277
331
278
331
1C4
331
1C5
331
1D1
331
1D2
331
253
331
254
331
C9
331
CA
331
D5
331
D6
331
E2
331
E3
331
34E
331
34F
331
282
331
283
331
28E
331
28F
331
299
331
29A
331
2A5
331
2A6
331
2B2
331
2B3
331
172
331
173
331
17B
331
17C
331
334
331
335
331
183
331
184
331
18C
331
18D
331
196
331
197
331
1A1
331
1A2
331
1AD
331
1AE
331
1B8
331
1B9
331
B2
331
B3
331
BE
331
BF
331
358
331
359
331
25C
331
25D
331
264
331
265
331
26D
331
26E
102
}
 70
     0
280
     1
281
     0
  0
BLOCK_RECORD
  5
AC
330
1
100
AcDbSymbolTableRecord
100
AcDbBlockTableRecord
  2
*D3
340
0
 70
     0
280
     1
281
     0
  0
BLOCK_RECORD
  5
B8
330
1
100
AcDbSymbolTableRecord
100
AcDbBlockTableRecord
  2
*D4
340
0
 70
     0
280
     1
281
     0
  0
BLOCK_RECORD
  5
C4
330
1
100
AcDbSymbolTableRecord
100
AcDbBlockTableRecord
  2
*D5
340
0
 70
     0
280
     1
281
     0
  0
BLOCK_RECORD
  5
D0
330
1
100
AcDbSymbolTableRecord
100
AcDbBlockTableRecord
  2
*D6
340
0
 70
     0
280
     1
281
     0
  0
BLOCK_RECORD
  5
DC
330
1
100
AcDbSymbolTableRecord
100
AcDbBlockTableRecord
  2
*D7
340
0
 70
     0
280
     1
281
     0
  0
BLOCK_RECORD
  5
132
330
1
100
AcDbSymbolTableRecord
100
AcDbBlockTableRecord
  2
*D8
340
0
 70
     0
280
     1
281
     0
  0
BLOCK_RECORD
  5
13E
330
1
100
AcDbSymbolTableRecord
100
AcDbBlockTableRecord
  2
*D9
340
0
 70
     0
280
     1
281
     0
  0
BLOCK_RECORD
  5
14A
330
1
100
AcDbSymbolTableRecord
100
AcDbBlockTableRecord
  2
*D10
340
0
 70
     0
280
     1
281
     0
  0
BLOCK_RECORD
  5
156
330
1
100
AcDbSymbolTableRecord
100
AcDbBlockTableRecord
  2
*D11
340
0
 70
     0
280
     1
281
     0
  0
BLOCK_RECORD
  5
162
330
1
100
AcDbSymbolTableRecord
100
AcDbBlockTableRecord
  2
*D12
340
0
 70
     0
280
     1
281
     0
  0
BLOCK_RECORD
  5
19B
330
1
100
AcDbSymbolTableRecord
100
AcDbBlockTableRecord
  2
*D13
340
0
 70
     0
280
     1
281
     0
  0
BLOCK_RECORD
  5
1A7
330
1
100
AcDbSymbolTableRecord
100
AcDbBlockTableRecord
  2
*D14
340
0
 70
     0
280
     1
281
     0
  0
BLOCK_RECORD
  5
1B3
330
1
100
AcDbSymbolTableRecord
100
AcDbBlockTableRecord
  2
*D15
340
0
 70
     0
280
     1
281
     0
  0
BLOCK_RECORD
  5
1BF
330
1
100
AcDbSymbolTableRecord
100
AcDbBlockTableRecord
  2
*D16
340
0
 70
     0
280
     1
281
     0
  0
BLOCK_RECORD
  5
1CB
330
1
100
AcDbSymbolTableRecord
100
AcDbBlockTableRecord
  2
*D17
340
0
 70
     0
280
     1
281
     0
  0
BLOCK_RECORD
  5
213
330
1
100
AcDbSymbolTableRecord
100
AcDbBlockTableRecord
  2
*D18
340
0
 70
     0
280
     1
281
     0
  0
BLOCK_RECORD
  5
21F
330
1
100
AcDbSymbolTableRecord
100
AcDbBlockTableRecord
  2
*D19
340
0
 70
     0
280
     1
281
     0
  0
BLOCK_RECORD
  5
22B
330
1
100
AcDbSymbolTableRecord
100
AcDbBlockTableRecord
  2
*D20
340
0
 70
     0
280
     1
281
     0
  0
BLOCK_RECORD
  5
237
330
1
100
AcDbSymbolTableRecord
100
AcDbBlockTableRecord
  2
*D21
340
0
 70
     0
280
     1
281
     0
  0
BLOCK_RECORD
  5
243
330
1
100
AcDbSymbolTableRecord
100
AcDbBlockTableRecord
  2
*D22
340
0
 70
     0
280
     1
281
     0
  0
BLOCK_RECORD
  5
27C
330
1
100
AcDbSymbolTableRecord
100
AcDbBlockTableRecord
  2
*D23
340
0
 70
     0
280
     1
281
     0
  0
BLOCK_RECORD
  5
288
330
1
100
AcDbSymbolTableRecord
100
AcDbBlockTableRecord
  2
*D24
340
0
 70
     0
280
     1
281
     0
  0
BLOCK_RECORD
  5
294
330
1
100
AcDbSymbolTableRecord
100
AcDbBlockTableRecord
  2
*D25
340
0
 70
     0
280
     1
281
     0
  0
BLOCK_RECORD
  5
2A0
330
1
100
AcDbSymbolTableRecord
100
AcDbBlockTableRecord
  2
*D26
340
0
 70
     0
280
     1
281
     0
  0
BLOCK_RECORD
  5
2AC
330
1
100
AcDbSymbolTableRecord
100
AcDbBlockTableRecord
  2
*D27
340
0
 70
     0
280
     1
281
     0
  0
BLOCK_RECORD
  5
2F4
330
1
100
AcDbSymbolTableRecord
100
AcDbBlockTableRecord
  2
*D28
340
0
 70
     0
280
     1
281
     0
  0
BLOCK_RECORD
  5
300
330
1
100
AcDbSymbolTableRecord
100
AcDbBlockTableRecord
  2
*D29
340
0
 70
     0
280
     1
281
     0
  0
BLOCK_RECORD
  5
30C
330
1
100
AcDbSymbolTableRecord
100
AcDbBlockTableRecord
  2
*D30
340
0
 70
     0
280
     1
281
     0
  0
BLOCK_RECORD
  5
318
330
1
100
AcDbSymbolTableRecord
100
AcDbBlockTableRecord
  2
*D31
340
0
 70
     0
280
     1
281
     0
  0
BLOCK_RECORD
  5
324
330
1
100
AcDbSymbolTableRecord
100
AcDbBlockTableRecord
  2
*D32
340
0
 70
     0
280
     1
281
     0
  0
ENDTAB
  0
ENDSEC
  0
SECTION
  2
BLOCKS
  0
BLOCK
  5
71
330
70
100
AcDbEntity
  8
0
100
AcDbBlockBegin
  2
*Model_Space
 70
     0
 10
0.0
 20
0.0
 30
0.0
  3
*Model_Space
  1

  0
ENDBLK
  5
72
330
70
100
AcDbEntity
  8
0
100
AcDbBlockEnd
  0
BLOCK
  5
6D
330
6C
100
AcDbEntity
 67
     1
  8
0
100
AcDbBlockBegin
  2
*Paper_Space
 70
     0
 10
0.0
 20
0.0
 30
0.0
  3
*Paper_Space
  1

  0
ENDBLK
  5
6E
330
6C
100
AcDbEntity
 67
     1
  8
0
100
AcDbBlockEnd
  0
BLOCK
  5
75
330
74
100
AcDbEntity
 67
     1
  8
0
100
AcDbBlockBegin
  2
*Paper_Space0
 70
     0
 10
0.0
 20
0.0
 30
0.0
  3
*Paper_Space0
  1

  0
ENDBLK
  5
76
330
74
100
AcDbEntity
 67
     1
  8
0
100
AcDbBlockEnd
  0
BLOCK
  5
A5
330
A4
100
AcDbEntity
  8
0
100
AcDbBlockBegin
  2
_DOTSMALL
 70
     0
 10
0.0
 20
0.0
 30
0.0
  3
_DOTSMALL
  1

  0
LWPOLYLINE
  5
A6
330
A4
100
AcDbEntity
  8
0
  6
ByBlock
 62
     0
100
AcDbPolyline
 90
        2
 70
     1
 43
0.5
 10
-0.0625
 20
0.0
 42
1.0
 10
0.0625
 20
0.0
 42
1.0
  0
ENDBLK
  5
A7
330
A4
100
AcDbEntity
  8
0
100
AcDbBlockEnd
  0
BLOCK
  5
A9
330
A8
100
AcDbEntity
  8
0
100
AcDbBlockBegin
  2
_Oblique
 70
     0
 10
0.0
 20
0.0
 30
0.0
  3
_Oblique
  1

  0
LINE
  5
AA
330
A8
100
AcDbEntity
  8
0
  6
ByBlock
 62
     0
370
    -2
100
AcDbLine
 10
-0.5
 20
-0.5
 30
0.0
 11
0.5
 21
0.5
 31
0.0
  0
ENDBLK
  5
AB
330
A8
100
AcDbEntity
  8
0
100
AcDbBlockEnd
  0
BLOCK
  5
AD
330
AC
100
AcDbEntity
  8
0
100
AcDbBlockBegin
  2
*D3
 70
     1
 10
0.0
 20
0.0
 30
0.0
  3
*D3
  1

  0
LINE
  5
AE
330
AC
100
AcDbEntity
  8
0
 62
     1
440
 16777216
370
    -2
100
AcDbLine
 10
251.6839697060658
 20
152.7549966742718
 30
0.0
 11
251.443863559637
 21
152.7549966742718
 31
0.0
  0
LINE
  5
AF
330
AC
100
AcDbEntity
  8
0
 62
     1
440
 16777216
370
    -2
100
AcDbLine
 10
252.9927736371821
 20
152.5549966742718
 30
0.0
 11
251.443863559637
 21
152.5549966742718
 31
0.0
  0
LINE
  5
B0
330
AC
100
AcDbEntity
  8
0
 62
     1
440
 16777216
370
    -2
100
AcDbLine
 10
251.543863559637
 20
152.7549966742718
 30
0.0
 11
251.543863559637
 21
152.5549966742718
 31
0.0
  0
MTEXT
  5
B1
330
AC
100
AcDbEntity
  8
0
 62
     3
440
 16777216
100
AcDbMText
 10
251.3029590733851
 20
152.4750363263558
 30
0.0
 40
0.1
 41
0.0
 46
0.0
 71
     5
 72
     1
  1
\A1;{\fNimbus Roman No9 L Medium|b1|i0|c0|p34;.20}
  7
R80-ESC50
 11
0.0000000000000001
 21
1.0
 31
0.0
 73
     1
 44
1.0
  0
INSERT
  5
B2
330
AC
100
AcDbEntity
  8
0
 62
     1
440
 16777216
370
    -2
100
AcDbBlockReference
  2
_Oblique
 10
251.543863559637
 20
152.7549966742718
 30
0.0
 41
0.15
 42
0.15
 43
0.15
 50
90.0
  0
INSERT
  5
B3
330
AC
100
AcDbEntity
  8
0
 62
     1
440
 16777216
370
    -2
100
AcDbBlockReference
  2
_Oblique
 10
251.543863559637
 20
152.5549966742718
 30
0.0
 41
0.15
 42
0.15
 43
0.15
 50
270.0
  0
POINT
  5
B4
330
AC
100
AcDbEntity
  8
Defpoints
 62
     0
440
 16777216
100
AcDbPoint
 10
251.7839697060658
 20
152.7549966742718
 30
0.0
  0
POINT
  5
B5
330
AC
100
AcDbEntity
  8
Defpoints
 62
     0
440
 16777216
100
AcDbPoint
 10
253.0927736371821
 20
152.5549966742718
 30
0.0
  0
POINT
  5
B6
330
AC
100
AcDbEntity
  8
Defpoints
 62
     0
440
 16777216
100
AcDbPoint
 10
251.543863559637
 20
152.5549966742718
 30
0.0
  0
ENDBLK
  5
B7
330
AC
100
AcDbEntity
  8
0
100
AcDbBlockEnd
  0
BLOCK
  5
B9
330
B8
100
AcDbEntity
  8
0
100
AcDbBlockBegin
  2
*D4
 70
     1
 10
0.0
 20
0.0
 30
0.0
  3
*D4
  1

  0
LINE
  5
BA
330
B8
100
AcDbEntity
  8
0
 62
     1
440
 16777216
370
    -2
100
AcDbLine
 10
253.4136629356092
 20
154.1049966742717
 30
0.0
 11
253.9607808982349
 21
154.1049966742717
 31
0.0
  0
LINE
  5
BB
330
B8
100
AcDbEntity
  8
0
 62
     1
440
 16777216
370
    -2
100
AcDbLine
 10
253.212773637182
 20
154.5949966742718
 30
0.0
 11
253.9607808982349
 21
154.5949966742718
 31
0.0
  0
LINE
  5
BC
330
B8
100
AcDbEntity
  8
0
 62
     1
440
 16777216
370
    -2
100
AcDbLine
 10
253.8607808982349
 20
154.1049966742717
 30
0.0
 11
253.8607808982349
 21
154.5949966742718
 31
0.0
  0
MTEXT
  5
BD
330
B8
100
AcDbEntity
  8
0
 62
     3
440
 16777216
100
AcDbMText
 10
253.7224508098459
 20
154.3499966742716
 30
0.0
 40
0.1
 41
0.0
 46
0.0
 71
     5
 72
     1
  1
\A1;{\fNimbus Roman No9 L Medium|b1|i0|c0|p34;.48}
  7
R80-ESC50
 11
0.0000000000000001
 21
1.0
 31
0.0
 73
     1
 44
1.0
  0
INSERT
  5
BE
330
B8
100
AcDbEntity
  8
0
 62
     1
440
 16777216
370
    -2
100
AcDbBlockReference
  2
_Oblique
 10
253.8607808982349
 20
154.1049966742717
 30
0.0
 41
0.15
 42
0.15
 43
0.15
 50
270.0
  0
INSERT
  5
BF
330
B8
100
AcDbEntity
  8
0
 62
     1
440
 16777216
370
    -2
100
AcDbBlockReference
  2
_Oblique
 10
253.8607808982349
 20
154.5949966742718
 30
0.0
 41
0.15
 42
0.15
 43
0.15
 50
90.0
  0
POINT
  5
C0
330
B8
100
AcDbEntity
  8
Defpoints
 62
     0
440
 16777216
100
AcDbPoint
 10
253.3136629356091
 20
154.1049966742717
 30
0.0
  0
POINT
  5
C1
330
B8
100
AcDbEntity
  8
Defpoints
 62
     0
440
 16777216
100
AcDbPoint
 10
253.112773637182
 20
154.5949966742718
 30
0.0
  0
POINT
  5
C2
330
B8
100
AcDbEntity
  8
Defpoints
 62
     0
440
 16777216
100
AcDbPoint
 10
253.8607808982349
 20
154.5949966742718
 30
0.0
  0
ENDBLK
  5
C3
330
B8
100
AcDbEntity
  8
0
100
AcDbBlockEnd
  0
BLOCK
  5
C5
330
C4
100
AcDbEntity
  8
0
100
AcDbBlockBegin
  2
*D5
 70
     1
 10
0.0
 20
0.0
 30
0.0
  3
*D5
  1

  0
LINE
  5
C6
330
C4
100
AcDbEntity
  8
steel bars
 62
     1
440
 16777216
370
    -2
100
AcDbLine
 10
253.212773637182
 20
154.5949966742718
 30
0.0
 11
254.7839580293562
 21
154.5949966742718
 31
0.0
  0
LINE
  5
C7
330
C4
100
AcDbEntity
  8
steel bars
 62
     1
440
 16777216
370
    -2
100
AcDbLine
 10
253.192773637182
 20
152.5549966742718
 30
0.0
 11
254.7839580293562
 21
152.5549966742718
 31
0.0
  0
LINE
  5
C8
330
C4
100
AcDbEntity
  8
steel bars
 62
     1
440
 16777216
370
    -2
100
AcDbLine
 10
254.6839580293562
 20
154.5949966742718
 30
0.0
 11
254.6839580293562
 21
152.5549966742718
 31
0.0
  0
INSERT
  5
C9
330
C4
100
AcDbEntity
  8
steel bars
 62
     1
440
 16777216
370
    -2
100
AcDbBlockReference
  2
_Oblique
 10
254.6839580293562
 20
154.5949966742718
 30
0.0
 41
0.15
 42
0.15
 43
0.15
 50
90.0
  0
INSERT
  5
CA
330
C4
100
AcDbEntity
  8
steel bars
 62
     1
440
 16777216
370
    -2
100
AcDbBlockReference
  2
_Oblique
 10
254.6839580293562
 20
152.5549966742718
 30
0.0
 41
0.15
 42
0.15
 43
0.15
 50
270.0
  0
MTEXT
  5
CB
330
C4
100
AcDbEntity
  8
steel bars
 62
     3
440
 16777216
100
AcDbMText
 10
254.7939580293562
 20
153.5749966742717
 30
0.0
 40
0.1
 41
0.0
 46
0.0
 71
     5
 72
     1
  1
\A1;2.040
  7
R80-ESC50
 11
0.0000000000000001
 21
1.0
 31
0.0
 73
     1
 44
1.0
  0
POINT
  5
CC
330
C4
100
AcDbEntity
  8
Defpoints
 62
     0
440
 16777216
100
AcDbPoint
 10
253.112773637182
 20
154.5949966742718
 30
0.0
  0
POINT
  5
CD
330
C4
100
AcDbEntity
  8
Defpoints
 62
     0
440
 16777216
100
AcDbPoint
 10
253.0927736371821
 20
152.5549966742718
 30
0.0
  0
POINT
  5
CE
330
C4
100
AcDbEntity
  8
Defpoints
 62
     0
440
 16777216
100
AcDbPoint
 10
254.6839580293562
 20
152.5549966742718
 30
0.0
  0
ENDBLK
  5
CF
330
C4
100
AcDbEntity
  8
0
100
AcDbBlockEnd
  0
BLOCK
  5
D1
330
D0
100
AcDbEntity
  8
0
100
AcDbBlockBegin
  2
*D6
 70
     1
 10
0.0
 20
0.0
 30
0.0
  3
*D6
  1

  0
LINE
  5
D2
330
D0
100
AcDbEntity
  8
steel bars
 62
     1
440
 16777216
370
    -2
100
AcDbLine
 10
251.7466736371819
 20
152.8424966742717
 30
0.0
 11
251.7466736371819
 21
152.1031544290636
 31
0.0
  0
LINE
  5
D3
330
D0
100
AcDbEntity
  8
steel bars
 62
     1
440
 16777216
370
    -2
100
AcDbLine
 10
254.4388736371819
 20
152.8424966742717
 30
0.0
 11
254.4388736371819
 21
152.1031544290636
 31
0.0
  0
LINE
  5
D4
330
D0
100
AcDbEntity
  8
steel bars
 62
     1
440
 16777216
370
    -2
100
AcDbLine
 10
251.7466736371819
 20
152.2031544290635
 30
0.0
 11
254.4388736371819
 21
152.2031544290635
 31
0.0
  0
INSERT
  5
D5
330
D0
100
AcDbEntity
  8
steel bars
 62
     1
440
 16777216
370
    -2
100
AcDbBlockReference
  2
_Oblique
 10
251.7466736371819
 20
152.2031544290635
 30
0.0
 41
0.15
 42
0.15
 43
0.15
 50
180.0
  0
INSERT
  5
D6
330
D0
100
AcDbEntity
  8
steel bars
 62
     1
440
 16777216
370
    -2
100
AcDbBlockReference
  2
_Oblique
 10
254.4388736371819
 20
152.2031544290635
 30
0.0
 41
0.15
 42
0.15
 43
0.15
  0
MTEXT
  5
D7
330
D0
100
AcDbEntity
  8
steel bars
 62
     3
440
 16777216
100
AcDbMText
 10
253.092773637182
 20
152.0931544290636
 30
0.0
 40
0.1
 41
0.0
 46
0.0
 71
     5
 72
     1
  1
\A1;2.692
  7
R80-ESC50
 73
     1
 44
1.0
  0
POINT
  5
D8
330
D0
100
AcDbEntity
  8
Defpoints
 62
     0
440
 16777216
100
AcDbPoint
 10
251.7466736371819
 20
152.9424966742716
 30
0.0
  0
POINT
  5
D9
330
D0
100
AcDbEntity
  8
Defpoints
 62
     0
440
 16777216
100
AcDbPoint
 10
254.4388736371819
 20
152.9424966742716
 30
0.0
  0
POINT
  5
DA
330
D0
100
AcDbEntity
  8
Defpoints
 62
     0
440
 16777216
100
AcDbPoint
 10
254.4388736371819
 20
152.2031544290635
 30
0.0
  0
ENDBLK
  5
DB
330
D0
100
AcDbEntity
  8
0
100
AcDbBlockEnd
  0
BLOCK
  5
DD
330
DC
100
AcDbEntity
  8
0
100
AcDbBlockBegin
  2
*D7
 70
     1
 10
0.0
 20
0.0
 30
0.0
  3
*D7
  1

  0
LINE
  5
DE
330
DC
100
AcDbEntity
  8
steel bars
 62
     1
440
 16777216
370
    -2
100
AcDbLine
 10
251.6466736371821
 20
152.9424966742718
 30
0.0
 11
250.9813871705808
 21
152.9424966742718
 31
0.0
  0
LINE
  5
DF
330
DC
100
AcDbEntity
  8
steel bars
 62
     1
440
 16777216
370
    -2
100
AcDbLine
 10
252.9927736371821
 20
152.5549966742718
 30
0.0
 11
250.9813871705808
 21
152.5549966742718
 31
0.0
  0
LINE
  5
E0
330
DC
100
AcDbEntity
  8
steel bars
 62
     1
440
 16777216
370
    -2
100
AcDbLine
 10
251.0813871705808
 20
152.9424966742718
 30
0.0
 11
251.0813871705808
 21
152.5549966742718
 31
0.0
  0
MTEXT
  5
E1
330
DC
100
AcDbEntity
  8
steel bars
 62
     3
440
 16777216
100
AcDbMText
 10
250.8413871705807
 20
152.7487466742717
 30
0.0
 40
0.1
 41
0.0
 46
0.0
 71
     5
 72
     1
  1
\A1;0.388
  7
R80-ESC50
 11
0.0000000000000001
 21
1.0
 31
0.0
 73
     1
 44
1.0
  0
INSERT
  5
E2
330
DC
100
AcDbEntity
  8
steel bars
 62
     1
440
 16777216
370
    -2
100
AcDbBlockReference
  2
_Oblique
 10
251.0813871705808
 20
152.9424966742718
 30
0.0
 41
0.15
 42
0.15
 43
0.15
 50
90.0
  0
INSERT
  5
E3
330
DC
100
AcDbEntity
  8
steel bars
 62
     1
440
 16777216
370
    -2
100
AcDbBlockReference
  2
_Oblique
 10
251.0813871705808
 20
152.5549966742718
 30
0.0
 41
0.15
 42
0.15
 43
0.15
 50
270.0
  0
POINT
  5
E4
330
DC
100
AcDbEntity
  8
Defpoints
 62
     0
440
 16777216
100
AcDbPoint
 10
251.7466736371821
 20
152.9424966742718
 30
0.0
  0
POINT
  5
E5
330
DC
100
AcDbEntity
  8
Defpoints
 62
     0
440
 16777216
100
AcDbPoint
 10
253.0927736371821
 20
152.5549966742718
 30
0.0
  0
POINT
  5
E6
330
DC
100
AcDbEntity
  8
Defpoints
 62
     0
440
 16777216
100
AcDbPoint
 10
251.0813871705808
 20
152.5549966742718
 30
0.0
  0
ENDBLK
  5
E7
330
DC
100
AcDbEntity
  8
0
100
AcDbBlockEnd
  0
BLOCK
  5
133
330
132
100
AcDbEntity
  8
0
100
AcDbBlockBegin
  2
*D8
 70
     1
 10
0.0
 20
0.0
 30
0.0
  3
*D8
  1

  0
LINE
  5
16E
330
132
100
AcDbEntity
  8
0
 62
     1
440
 16777216
370
    -2
100
AcDbLine
 10
497.4663809795123
 20
106.8420822704559
 30
0.0
 11
497.2262748330837
 21
106.8420822704559
 31
0.0
  0
LINE
  5
16F
330
132
100
AcDbEntity
  8
0
 62
     1
440
 16777216
370
    -2
100
AcDbLine
 10
498.7751849106286
 20
106.6420822704559
 30
0.0
 11
497.2262748330837
 21
106.6420822704559
 31
0.0
  0
LINE
  5
170
330
132
100
AcDbEntity
  8
0
 62
     1
440
 16777216
370
    -2
100
AcDbLine
 10
497.326274833084
 20
106.8420822704559
 30
0.0
 11
497.326274833084
 21
106.6420822704559
 31
0.0
  0
MTEXT
  5
171
330
132
100
AcDbEntity
  8
0
 62
     3
440
 16777216
100
AcDbMText
 10
497.0853703468318
 20
106.5621219225399
 30
0.0
 40
0.1
 41
0.0
 46
0.0
 71
     5
 72
     1
  1
\A1;{\fNimbus Roman No9 L Medium|b1|i0|c0|p34;.20}
  7
R80-ESC50
 11
0.0000000000000001
 21
1.0
 31
0.0
 73
     1
 44
1.0
  0
INSERT
  5
172
330
132
100
AcDbEntity
  8
0
 62
     1
440
 16777216
370
    -2
100
AcDbBlockReference
  2
_Oblique
 10
497.326274833084
 20
106.8420822704559
 30
0.0
 41
0.15
 42
0.15
 43
0.15
 50
90.0
  0
INSERT
  5
173
330
132
100
AcDbEntity
  8
0
 62
     1
440
 16777216
370
    -2
100
AcDbBlockReference
  2
_Oblique
 10
497.326274833084
 20
106.6420822704559
 30
0.0
 41
0.15
 42
0.15
 43
0.15
 50
270.0
  0
POINT
  5
174
330
132
100
AcDbEntity
  8
Defpoints
 62
     0
440
 16777216
100
AcDbPoint
 10
497.5663809795126
 20
106.8420822704559
 30
0.0
  0
POINT
  5
175
330
132
100
AcDbEntity
  8
Defpoints
 62
     0
440
 16777216
100
AcDbPoint
 10
498.8751849106288
 20
106.6420822704559
 30
0.0
  0
POINT
  5
176
330
132
100
AcDbEntity
  8
Defpoints
 62
     0
440
 16777216
100
AcDbPoint
 10
497.326274833084
 20
106.6420822704559
 30
0.0
  0
ENDBLK
  5
134
330
132
100
AcDbEntity
  8
0
100
AcDbBlockEnd
  0
BLOCK
  5
13F
330
13E
100
AcDbEntity
  8
0
100
AcDbBlockBegin
  2
*D9
 70
     1
 10
0.0
 20
0.0
 30
0.0
  3
*D9
  1

  0
LINE
  5
177
330
13E
100
AcDbEntity
  8
0
 62
     1
440
 16777216
370
    -2
100
AcDbLine
 10
499.1960742090561
 20
108.1920822704559
 30
0.0
 11
499.7431921716819
 21
108.1920822704559
 31
0.0
  0
LINE
  5
178
330
13E
100
AcDbEntity
  8
0
 62
     1
440
 16777216
370
    -2
100
AcDbLine
 10
498.9951849106288
 20
108.682082270456
 30
0.0
 11
499.7431921716819
 21
108.682082270456
 31
0.0
  0
LINE
  5
179
330
13E
100
AcDbEntity
  8
0
 62
     1
440
 16777216
370
    -2
100
AcDbLine
 10
499.6431921716818
 20
108.1920822704559
 30
0.0
 11
499.6431921716818
 21
108.682082270456
 31
0.0
  0
MTEXT
  5
17A
330
13E
100
AcDbEntity
  8
0
 62
     3
440
 16777216
100
AcDbMText
 10
499.5048620832926
 20
108.4370822704558
 30
0.0
 40
0.1
 41
0.0
 46
0.0
 71
     5
 72
     1
  1
\A1;{\fNimbus Roman No9 L Medium|b1|i0|c0|p34;.48}
  7
R80-ESC50
 11
0.0000000000000001
 21
1.0
 31
0.0
 73
     1
 44
1.0
  0
INSERT
  5
17B
330
13E
100
AcDbEntity
  8
0
 62
     1
440
 16777216
370
    -2
100
AcDbBlockReference
  2
_Oblique
 10
499.6431921716818
 20
108.1920822704559
 30
0.0
 41
0.15
 42
0.15
 43
0.15
 50
270.0
  0
INSERT
  5
17C
330
13E
100
AcDbEntity
  8
0
 62
     1
440
 16777216
370
    -2
100
AcDbBlockReference
  2
_Oblique
 10
499.6431921716818
 20
108.682082270456
 30
0.0
 41
0.15
 42
0.15
 43
0.15
 50
90.0
  0
POINT
  5
17D
330
13E
100
AcDbEntity
  8
Defpoints
 62
     0
440
 16777216
100
AcDbPoint
 10
499.096074209056
 20
108.1920822704559
 30
0.0
  0
POINT
  5
17E
330
13E
100
AcDbEntity
  8
Defpoints
 62
     0
440
 16777216
100
AcDbPoint
 10
498.8951849106288
 20
108.682082270456
 30
0.0
  0
POINT
  5
17F
330
13E
100
AcDbEntity
  8
Defpoints
 62
     0
440
 16777216
100
AcDbPoint
 10
499.6431921716818
 20
108.682082270456
 30
0.0
  0
ENDBLK
  5
140
330
13E
100
AcDbEntity
  8
0
100
AcDbBlockEnd
  0
BLOCK
  5
14B
330
14A
100
AcDbEntity
  8
0
100
AcDbBlockBegin
  2
*D10
 70
     1
 10
0.0
 20
0.0
 30
0.0
  3
*D10
  1

  0
LINE
  5
180
330
14A
100
AcDbEntity
  8
steel bars
 62
     1
440
 16777216
370
    -2
100
AcDbLine
 10
498.9951849106288
 20
108.682082270456
 30
0.0
 11
500.5663693028032
 21
108.682082270456
 31
0.0
  0
LINE
  5
181
330
14A
100
AcDbEntity
  8
steel bars
 62
     1
440
 16777216
370
    -2
100
AcDbLine
 10
498.975184910629
 20
106.6420822704559
 30
0.0
 11
500.5663693028032
 21
106.6420822704559
 31
0.0
  0
LINE
  5
182
330
14A
100
AcDbEntity
  8
steel bars
 62
     1
440
 16777216
370
    -2
100
AcDbLine
 10
500.4663693028032
 20
108.682082270456
 30
0.0
 11
500.4663693028032
 21
106.6420822704559
 31
0.0
  0
INSERT
  5
183
330
14A
100
AcDbEntity
  8
steel bars
 62
     1
440
 16777216
370
    -2
100
AcDbBlockReference
  2
_Oblique
 10
500.4663693028032
 20
108.682082270456
 30
0.0
 41
0.15
 42
0.15
 43
0.15
 50
90.0
  0
INSERT
  5
184
330
14A
100
AcDbEntity
  8
steel bars
 62
     1
440
 16777216
370
    -2
100
AcDbBlockReference
  2
_Oblique
 10
500.4663693028032
 20
106.6420822704559
 30
0.0
 41
0.15
 42
0.15
 43
0.15
 50
270.0
  0
MTEXT
  5
185
330
14A
100
AcDbEntity
  8
steel bars
 62
     3
440
 16777216
100
AcDbMText
 10
500.5763693028026
 20
107.6620822704558
 30
0.0
 40
0.1
 41
0.0
 46
0.0
 71
     5
 72
     1
  1
\A1;2.040
  7
R80-ESC50
 11
0.0000000000000001
 21
1.0
 31
0.0
 73
     1
 44
1.0
  0
POINT
  5
186
330
14A
100
AcDbEntity
  8
Defpoints
 62
     0
440
 16777216
100
AcDbPoint
 10
498.8951849106288
 20
108.682082270456
 30
0.0
  0
POINT
  5
187
330
14A
100
AcDbEntity
  8
Defpoints
 62
     0
440
 16777216
100
AcDbPoint
 10
498.8751849106288
 20
106.6420822704559
 30
0.0
  0
POINT
  5
188
330
14A
100
AcDbEntity
  8
Defpoints
 62
     0
440
 16777216
100
AcDbPoint
 10
500.4663693028032
 20
106.6420822704559
 30
0.0
  0
ENDBLK
  5
14C
330
14A
100
AcDbEntity
  8
0
100
AcDbBlockEnd
  0
BLOCK
  5
157
330
156
100
AcDbEntity
  8
0
100
AcDbBlockBegin
  2
*D11
 70
     1
 10
0.0
 20
0.0
 30
0.0
  3
*D11
  1

  0
LINE
  5
189
330
156
100
AcDbEntity
  8
steel bars
 62
     1
440
 16777216
370
    -2
100
AcDbLine
 10
497.5290849106286
 20
106.9295822704559
 30
0.0
 11
497.5290849106286
 21
106.1902400252477
 31
0.0
  0
LINE
  5
18A
330
156
100
AcDbEntity
  8
steel bars
 62
     1
440
 16777216
370
    -2
100
AcDbLine
 10
500.2212849106286
 20
106.9295822704559
 30
0.0
 11
500.2212849106286
 21
106.1902400252477
 31
0.0
  0
LINE
  5
18B
330
156
100
AcDbEntity
  8
steel bars
 62
     1
440
 16777216
370
    -2
100
AcDbLine
 10
497.5290849106286
 20
106.2902400252477
 30
0.0
 11
500.2212849106286
 21
106.2902400252477
 31
0.0
  0
INSERT
  5
18C
330
156
100
AcDbEntity
  8
steel bars
 62
     1
440
 16777216
370
    -2
100
AcDbBlockReference
  2
_Oblique
 10
497.5290849106286
 20
106.2902400252477
 30
0.0
 41
0.15
 42
0.15
 43
0.15
 50
180.0
  0
INSERT
  5
18D
330
156
100
AcDbEntity
  8
steel bars
 62
     1
440
 16777216
370
    -2
100
AcDbBlockReference
  2
_Oblique
 10
500.2212849106286
 20
106.2902400252477
 30
0.0
 41
0.15
 42
0.15
 43
0.15
  0
MTEXT
  5
18E
330
156
100
AcDbEntity
  8
steel bars
 62
     3
440
 16777216
100
AcDbMText
 10
498.8751849106286
 20
106.1802400252477
 30
0.0
 40
0.1
 41
0.0
 46
0.0
 71
     5
 72
     1
  1
\A1;2.692
  7
R80-ESC50
 73
     1
 44
1.0
  0
POINT
  5
18F
330
156
100
AcDbEntity
  8
Defpoints
 62
     0
440
 16777216
100
AcDbPoint
 10
497.5290849106286
 20
107.0295822704559
 30
0.0
  0
POINT
  5
190
330
156
100
AcDbEntity
  8
Defpoints
 62
     0
440
 16777216
100
AcDbPoint
 10
500.2212849106286
 20
107.0295822704559
 30
0.0
  0
POINT
  5
191
330
156
100
AcDbEntity
  8
Defpoints
 62
     0
440
 16777216
100
AcDbPoint
 10
500.2212849106286
 20
106.2902400252477
 30
0.0
  0
ENDBLK
  5
158
330
156
100
AcDbEntity
  8
0
100
AcDbBlockEnd
  0
BLOCK
  5
163
330
162
100
AcDbEntity
  8
0
100
AcDbBlockBegin
  2
*D12
 70
     1
 10
0.0
 20
0.0
 30
0.0
  3
*D12
  1

  0
LINE
  5
192
330
162
100
AcDbEntity
  8
steel bars
 62
     1
440
 16777216
370
    -2
100
AcDbLine
 10
497.4290849106289
 20
107.0295822704559
 30
0.0
 11
496.7637984440277
 21
107.0295822704559
 31
0.0
  0
LINE
  5
193
330
162
100
AcDbEntity
  8
steel bars
 62
     1
440
 16777216
370
    -2
100
AcDbLine
 10
498.7751849106286
 20
106.6420822704559
 30
0.0
 11
496.7637984440277
 21
106.6420822704559
 31
0.0
  0
LINE
  5
194
330
162
100
AcDbEntity
  8
steel bars
 62
     1
440
 16777216
370
    -2
100
AcDbLine
 10
496.8637984440277
 20
107.0295822704559
 30
0.0
 11
496.8637984440277
 21
106.6420822704559
 31
0.0
  0
MTEXT
  5
195
330
162
100
AcDbEntity
  8
steel bars
 62
     3
440
 16777216
100
AcDbMText
 10
496.6237984440276
 20
106.8358322704558
 30
0.0
 40
0.1
 41
0.0
 46
0.0
 71
     5
 72
     1
  1
\A1;0.388
  7
R80-ESC50
 11
0.0000000000000001
 21
1.0
 31
0.0
 73
     1
 44
1.0
  0
INSERT
  5
196
330
162
100
AcDbEntity
  8
steel bars
 62
     1
440
 16777216
370
    -2
100
AcDbBlockReference
  2
_Oblique
 10
496.8637984440277
 20
107.0295822704559
 30
0.0
 41
0.15
 42
0.15
 43
0.15
 50
90.0
  0
INSERT
  5
197
330
162
100
AcDbEntity
  8
steel bars
 62
     1
440
 16777216
370
    -2
100
AcDbBlockReference
  2
_Oblique
 10
496.8637984440277
 20
106.6420822704559
 30
0.0
 41
0.15
 42
0.15
 43
0.15
 50
270.0
  0
POINT
  5
198
330
162
100
AcDbEntity
  8
Defpoints
 62
     0
440
 16777216
100
AcDbPoint
 10
497.5290849106289
 20
107.0295822704559
 30
0.0
  0
POINT
  5
199
330
162
100
AcDbEntity
  8
Defpoints
 62
     0
440
 16777216
100
AcDbPoint
 10
498.8751849106288
 20
106.6420822704559
 30
0.0
  0
POINT
  5
19A
330
162
100
AcDbEntity
  8
Defpoints
 62
     0
440
 16777216
100
AcDbPoint
 10
496.8637984440277
 20
106.6420822704559
 30
0.0
  0
ENDBLK
  5
164
330
162
100
AcDbEntity
  8
0
100
AcDbBlockEnd
  0
BLOCK
  5
19C
330
19B
100
AcDbEntity
  8
0
100
AcDbBlockBegin
  2
*D13
 70
     1
 10
0.0
 20
0.0
 30
0.0
  3
*D13
  1

  0
LINE
  5
19D
330
19B
100
AcDbEntity
  8
0
 62
     1
440
 16777216
370
    -2
100
AcDbLine
 10
497.4663809795123
 20
106.8420822704559
 30
0.0
 11
497.2262748330837
 21
106.8420822704559
 31
0.0
  0
LINE
  5
19E
330
19B
100
AcDbEntity
  8
0
 62
     1
440
 16777216
370
    -2
100
AcDbLine
 10
498.7751849106286
 20
106.6420822704559
 30
0.0
 11
497.2262748330837
 21
106.6420822704559
 31
0.0
  0
LINE
  5
19F
330
19B
100
AcDbEntity
  8
0
 62
     1
440
 16777216
370
    -2
100
AcDbLine
 10
497.326274833084
 20
106.8420822704559
 30
0.0
 11
497.326274833084
 21
106.6420822704559
 31
0.0
  0
MTEXT
  5
1A0
330
19B
100
AcDbEntity
  8
0
 62
     3
440
 16777216
100
AcDbMText
 10
497.0853703468318
 20
106.5621219225399
 30
0.0
 40
0.1
 41
0.0
 46
0.0
 71
     5
 72
     1
  1
\A1;{\fNimbus Roman No9 L Medium|b1|i0|c0|p34;.20}
  7
R80-ESC50
 11
0.0000000000000001
 21
1.0
 31
0.0
 73
     1
 44
1.0
  0
INSERT
  5
1A1
330
19B
100
AcDbEntity
  8
0
 62
     1
440
 16777216
370
    -2
100
AcDbBlockReference
  2
_Oblique
 10
497.326274833084
 20
106.8420822704559
 30
0.0
 41
0.15
 42
0.15
 43
0.15
 50
90.0
  0
INSERT
  5
1A2
330
19B
100
AcDbEntity
  8
0
 62
     1
440
 16777216
370
    -2
100
AcDbBlockReference
  2
_Oblique
 10
497.326274833084
 20
106.6420822704559
 30
0.0
 41
0.15
 42
0.15
 43
0.15
 50
270.0
  0
POINT
  5
1A3
330
19B
100
AcDbEntity
  8
Defpoints
 62
     0
440
 16777216
100
AcDbPoint
 10
497.5663809795126
 20
106.8420822704559
 30
0.0
  0
POINT
  5
1A4
330
19B
100
AcDbEntity
  8
Defpoints
 62
     0
440
 16777216
100
AcDbPoint
 10
498.8751849106288
 20
106.6420822704559
 30
0.0
  0
POINT
  5
1A5
330
19B
100
AcDbEntity
  8
Defpoints
 62
     0
440
 16777216
100
AcDbPoint
 10
497.326274833084
 20
106.6420822704559
 30
0.0
  0
ENDBLK
  5
1A6
330
19B
100
AcDbEntity
  8
0
100
AcDbBlockEnd
  0
BLOCK
  5
1A8
330
1A7
100
AcDbEntity
  8
0
100
AcDbBlockBegin
  2
*D14
 70
     1
 10
0.0
 20
0.0
 30
0.0
  3
*D14
  1

  0
LINE
  5
1A9
330
1A7
100
AcDbEntity
  8
0
 62
     1
440
 16777216
370
    -2
100
AcDbLine
 10
499.1960742090561
 20
108.1920822704559
 30
0.0
 11
499.7431921716819
 21
108.1920822704559
 31
0.0
  0
LINE
  5
1AA
330
1A7
100
AcDbEntity
  8
0
 62
     1
440
 16777216
370
    -2
100
AcDbLine
 10
498.9951849106288
 20
108.682082270456
 30
0.0
 11
499.7431921716819
 21
108.682082270456
 31
0.0
  0
LINE
  5
1AB
330
1A7
100
AcDbEntity
  8
0
 62
     1
440
 16777216
370
    -2
100
AcDbLine
 10
499.6431921716818
 20
108.1920822704559
 30
0.0
 11
499.6431921716818
 21
108.682082270456
 31
0.0
  0
MTEXT
  5
1AC
330
1A7
100
AcDbEntity
  8
0
 62
     3
440
 16777216
100
AcDbMText
 10
499.5048620832926
 20
108.4370822704558
 30
0.0
 40
0.1
 41
0.0
 46
0.0
 71
     5
 72
     1
  1
\A1;{\fNimbus Roman No9 L Medium|b1|i0|c0|p34;.48}
  7
R80-ESC50
 11
0.0000000000000001
 21
1.0
 31
0.0
 73
     1
 44
1.0
  0
INSERT
  5
1AD
330
1A7
100
AcDbEntity
  8
0
 62
     1
440
 16777216
370
    -2
100
AcDbBlockReference
  2
_Oblique
 10
499.6431921716818
 20
108.1920822704559
 30
0.0
 41
0.15
 42
0.15
 43
0.15
 50
270.0
  0
INSERT
  5
1AE
330
1A7
100
AcDbEntity
  8
0
 62
     1
440
 16777216
370
    -2
100
AcDbBlockReference
  2
_Oblique
 10
499.6431921716818
 20
108.682082270456
 30
0.0
 41
0.15
 42
0.15
 43
0.15
 50
90.0
  0
POINT
  5
1AF
330
1A7
100
AcDbEntity
  8
Defpoints
 62
     0
440
 16777216
100
AcDbPoint
 10
499.096074209056
 20
108.1920822704559
 30
0.0
  0
POINT
  5
1B0
330
1A7
100
AcDbEntity
  8
Defpoints
 62
     0
440
 16777216
100
AcDbPoint
 10
498.8951849106288
 20
108.682082270456
 30
0.0
  0
POINT
  5
1B1
330
1A7
100
AcDbEntity
  8
Defpoints
 62
     0
440
 16777216
100
AcDbPoint
 10
499.6431921716818
 20
108.682082270456
 30
0.0
  0
ENDBLK
  5
1B2
330
1A7
100
AcDbEntity
  8
0
100
AcDbBlockEnd
  0
BLOCK
  5
1B4
330
1B3
100
AcDbEntity
  8
0
100
AcDbBlockBegin
  2
*D15
 70
     1
 10
0.0
 20
0.0
 30
0.0
  3
*D15
  1

  0
LINE
  5
1B5
330
1B3
100
AcDbEntity
  8
steel bars
 62
     1
440
 16777216
370
    -2
100
AcDbLine
 10
498.9951849106288
 20
108.682082270456
 30
0.0
 11
500.5663693028032
 21
108.682082270456
 31
0.0
  0
LINE
  5
1B6
330
1B3
100
AcDbEntity
  8
steel bars
 62
     1
440
 16777216
370
    -2
100
AcDbLine
 10
498.975184910629
 20
106.6420822704559
 30
0.0
 11
500.5663693028032
 21
106.6420822704559
 31
0.0
  0
LINE
  5
1B7
330
1B3
100
AcDbEntity
  8
steel bars
 62
     1
440
 16777216
370
    -2
100
AcDbLine
 10
500.4663693028032
 20
108.682082270456
 30
0.0
 11
500.4663693028032
 21
106.6420822704559
 31
0.0
  0
INSERT
  5
1B8
330
1B3
100
AcDbEntity
  8
steel bars
 62
     1
440
 16777216
370
    -2
100
AcDbBlockReference
  2
_Oblique
 10
500.4663693028032
 20
108.682082270456
 30
0.0
 41
0.15
 42
0.15
 43
0.15
 50
90.0
  0
INSERT
  5
1B9
330
1B3
100
AcDbEntity
  8
steel bars
 62
     1
440
 16777216
370
    -2
100
AcDbBlockReference
  2
_Oblique
 10
500.4663693028032
 20
106.6420822704559
 30
0.0
 41
0.15
 42
0.15
 43
0.15
 50
270.0
  0
MTEXT
  5
1BA
330
1B3
100
AcDbEntity
  8
steel bars
 62
     3
440
 16777216
100
AcDbMText
 10
500.5763693028026
 20
107.6620822704558
 30
0.0
 40
0.1
 41
0.0
 46
0.0
 71
     5
 72
     1
  1
\A1;2.040
  7
R80-ESC50
 11
0.0000000000000001
 21
1.0
 31
0.0
 73
     1
 44
1.0
  0
POINT
  5
1BB
330
1B3
100
AcDbEntity
  8
Defpoints
 62
     0
440
 16777216
100
AcDbPoint
 10
498.8951849106288
 20
108.682082270456
 30
0.0
  0
POINT
  5
1BC
330
1B3
100
AcDbEntity
  8
Defpoints
 62
     0
440
 16777216
100
AcDbPoint
 10
498.8751849106288
 20
106.6420822704559
 30
0.0
  0
POINT
  5
1BD
330
1B3
100
AcDbEntity
  8
Defpoints
 62
     0
440
 16777216
100
AcDbPoint
 10
500.4663693028032
 20
106.6420822704559
 30
0.0
  0
ENDBLK
  5
1BE
330
1B3
100
AcDbEntity
  8
0
100
AcDbBlockEnd
  0
BLOCK
  5
1C0
330
1BF
100
AcDbEntity
  8
0
100
AcDbBlockBegin
  2
*D16
 70
     1
 10
0.0
 20
0.0
 30
0.0
  3
*D16
  1

  0
LINE
  5
1C1
330
1BF
100
AcDbEntity
  8
steel bars
 62
     1
440
 16777216
370
    -2
100
AcDbLine
 10
497.5290849106286
 20
106.9295822704559
 30
0.0
 11
497.5290849106286
 21
106.1902400252477
 31
0.0
  0
LINE
  5
1C2
330
1BF
100
AcDbEntity
  8
steel bars
 62
     1
440
 16777216
370
    -2
100
AcDbLine
 10
500.2212849106286
 20
106.9295822704559
 30
0.0
 11
500.2212849106286
 21
106.1902400252477
 31
0.0
  0
LINE
  5
1C3
330
1BF
100
AcDbEntity
  8
steel bars
 62
     1
440
 16777216
370
    -2
100
AcDbLine
 10
497.5290849106286
 20
106.2902400252477
 30
0.0
 11
500.2212849106286
 21
106.2902400252477
 31
0.0
  0
INSERT
  5
1C4
330
1BF
100
AcDbEntity
  8
steel bars
 62
     1
440
 16777216
370
    -2
100
AcDbBlockReference
  2
_Oblique
 10
497.5290849106286
 20
106.2902400252477
 30
0.0
 41
0.15
 42
0.15
 43
0.15
 50
180.0
  0
INSERT
  5
1C5
330
1BF
100
AcDbEntity
  8
steel bars
 62
     1
440
 16777216
370
    -2
100
AcDbBlockReference
  2
_Oblique
 10
500.2212849106286
 20
106.2902400252477
 30
0.0
 41
0.15
 42
0.15
 43
0.15
  0
MTEXT
  5
1C6
330
1BF
100
AcDbEntity
  8
steel bars
 62
     3
440
 16777216
100
AcDbMText
 10
498.8751849106286
 20
106.1802400252477
 30
0.0
 40
0.1
 41
0.0
 46
0.0
 71
     5
 72
     1
  1
\A1;2.692
  7
R80-ESC50
 73
     1
 44
1.0
  0
POINT
  5
1C7
330
1BF
100
AcDbEntity
  8
Defpoints
 62
     0
440
 16777216
100
AcDbPoint
 10
497.5290849106286
 20
107.0295822704559
 30
0.0
  0
POINT
  5
1C8
330
1BF
100
AcDbEntity
  8
Defpoints
 62
     0
440
 16777216
100
AcDbPoint
 10
500.2212849106286
 20
107.0295822704559
 30
0.0
  0
POINT
  5
1C9
330
1BF
100
AcDbEntity
  8
Defpoints
 62
     0
440
 16777216
100
AcDbPoint
 10
500.2212849106286
 20
106.2902400252477
 30
0.0
  0
ENDBLK
  5
1CA
330
1BF
100
AcDbEntity
  8
0
100
AcDbBlockEnd
  0
BLOCK
  5
1CC
330
1CB
100
AcDbEntity
  8
0
100
AcDbBlockBegin
  2
*D17
 70
     1
 10
0.0
 20
0.0
 30
0.0
  3
*D17
  1

  0
LINE
  5
1CD
330
1CB
100
AcDbEntity
  8
steel bars
 62
     1
440
 16777216
370
    -2
100
AcDbLine
 10
497.4290849106289
 20
107.0295822704559
 30
0.0
 11
496.7637984440277
 21
107.0295822704559
 31
0.0
  0
LINE
  5
1CE
330
1CB
100
AcDbEntity
  8
steel bars
 62
     1
440
 16777216
370
    -2
100
AcDbLine
 10
498.7751849106286
 20
106.6420822704559
 30
0.0
 11
496.7637984440277
 21
106.6420822704559
 31
0.0
  0
LINE
  5
1CF
330
1CB
100
AcDbEntity
  8
steel bars
 62
     1
440
 16777216
370
    -2
100
AcDbLine
 10
496.8637984440277
 20
107.0295822704559
 30
0.0
 11
496.8637984440277
 21
106.6420822704559
 31
0.0
  0
MTEXT
  5
1D0
330
1CB
100
AcDbEntity
  8
steel bars
 62
     3
440
 16777216
100
AcDbMText
 10
496.6237984440276
 20
106.8358322704558
 30
0.0
 40
0.1
 41
0.0
 46
0.0
 71
     5
 72
     1
  1
\A1;0.388
  7
R80-ESC50
 11
0.0000000000000001
 21
1.0
 31
0.0
 73
     1
 44
1.0
  0
INSERT
  5
1D1
330
1CB
100
AcDbEntity
  8
steel bars
 62
     1
440
 16777216
370
    -2
100
AcDbBlockReference
  2
_Oblique
 10
496.8637984440277
 20
107.0295822704559
 30
0.0
 41
0.15
 42
0.15
 43
0.15
 50
90.0
  0
INSERT
  5
1D2
330
1CB
100
AcDbEntity
  8
steel bars
 62
     1
440
 16777216
370
    -2
100
AcDbBlockReference
  2
_Oblique
 10
496.8637984440277
 20
106.6420822704559
 30
0.0
 41
0.15
 42
0.15
 43
0.15
 50
270.0
  0
POINT
  5
1D3
330
1CB
100
AcDbEntity
  8
Defpoints
 62
     0
440
 16777216
100
AcDbPoint
 10
497.5290849106289
 20
107.0295822704559
 30
0.0
  0
POINT
  5
1D4
330
1CB
100
AcDbEntity
  8
Defpoints
 62
     0
440
 16777216
100
AcDbPoint
 10
498.8751849106288
 20
106.6420822704559
 30
0.0
  0
POINT
  5
1D5
330
1CB
100
AcDbEntity
  8
Defpoints
 62
     0
440
 16777216
100
AcDbPoint
 10
496.8637984440277
 20
106.6420822704559
 30
0.0
  0
ENDBLK
  5
1D6
330
1CB
100
AcDbEntity
  8
0
100
AcDbBlockEnd
  0
BLOCK
  5
214
330
213
100
AcDbEntity
  8
0
100
AcDbBlockBegin
  2
*D18
 70
     1
 10
0.0
 20
0.0
 30
0.0
  3
*D18
  1

  0
LINE
  5
24F
330
213
100
AcDbEntity
  8
0
 62
     1
440
 16777216
370
    -2
100
AcDbLine
 10
12.99620012875513
 20
12.73376801469616
 30
0.0
 11
12.75609398232675
 21
12.73376801469616
 31
0.0
  0
LINE
  5
250
330
213
100
AcDbEntity
  8
0
 62
     1
440
 16777216
370
    -2
100
AcDbLine
 10
14.30500405987149
 20
12.53376801469617
 30
0.0
 11
12.75609398232675
 21
12.53376801469617
 31
0.0
  0
LINE
  5
251
330
213
100
AcDbEntity
  8
0
 62
     1
440
 16777216
370
    -2
100
AcDbLine
 10
12.85609398232675
 20
12.73376801469616
 30
0.0
 11
12.85609398232675
 21
12.53376801469617
 31
0.0
  0
MTEXT
  5
252
330
213
100
AcDbEntity
  8
0
 62
     3
440
 16777216
100
AcDbMText
 10
12.61518949607461
 20
12.45380766678019
 30
0.0
 40
0.1
 41
0.0
 46
0.0
 71
     5
 72
     1
  1
\A1;{\fNimbus Roman No9 L Medium|b1|i0|c0|p34;.20}
  7
R80-ESC50
 11
0.0000000000000001
 21
1.0
 31
0.0
 73
     1
 44
1.0
  0
INSERT
  5
253
330
213
100
AcDbEntity
  8
0
 62
     1
440
 16777216
370
    -2
100
AcDbBlockReference
  2
_Oblique
 10
12.85609398232675
 20
12.73376801469616
 30
0.0
 41
0.15
 42
0.15
 43
0.15
 50
90.0
  0
INSERT
  5
254
330
213
100
AcDbEntity
  8
0
 62
     1
440
 16777216
370
    -2
100
AcDbBlockReference
  2
_Oblique
 10
12.85609398232675
 20
12.53376801469617
 30
0.0
 41
0.15
 42
0.15
 43
0.15
 50
270.0
  0
POINT
  5
255
330
213
100
AcDbEntity
  8
Defpoints
 62
     0
440
 16777216
100
AcDbPoint
 10
13.09620012875513
 20
12.73376801469616
 30
0.0
  0
POINT
  5
256
330
213
100
AcDbEntity
  8
Defpoints
 62
     0
440
 16777216
100
AcDbPoint
 10
14.40500405987149
 20
12.53376801469617
 30
0.0
  0
POINT
  5
257
330
213
100
AcDbEntity
  8
Defpoints
 62
     0
440
 16777216
100
AcDbPoint
 10
12.85609398232675
 20
12.53376801469617
 30
0.0
  0
ENDBLK
  5
215
330
213
100
AcDbEntity
  8
0
100
AcDbBlockEnd
  0
BLOCK
  5
220
330
21F
100
AcDbEntity
  8
0
100
AcDbBlockBegin
  2
*D19
 70
     1
 10
0.0
 20
0.0
 30
0.0
  3
*D19
  1

  0
LINE
  5
258
330
21F
100
AcDbEntity
  8
0
 62
     1
440
 16777216
370
    -2
100
AcDbLine
 10
14.72589335829859
 20
14.08376801469612
 30
0.0
 11
15.27301132092462
 21
14.08376801469612
 31
0.0
  0
LINE
  5
259
330
21F
100
AcDbEntity
  8
0
 62
     1
440
 16777216
370
    -2
100
AcDbLine
 10
14.52500405987147
 20
14.57376801469619
 30
0.0
 11
15.27301132092462
 21
14.57376801469619
 31
0.0
  0
LINE
  5
25A
330
21F
100
AcDbEntity
  8
0
 62
     1
440
 16777216
370
    -2
100
AcDbLine
 10
15.17301132092462
 20
14.08376801469612
 30
0.0
 11
15.17301132092462
 21
14.57376801469619
 31
0.0
  0
MTEXT
  5
25B
330
21F
100
AcDbEntity
  8
0
 62
     3
440
 16777216
100
AcDbMText
 10
15.03468123253538
 20
14.32876801469612
 30
0.0
 40
0.1
 41
0.0
 46
0.0
 71
     5
 72
     1
  1
\A1;{\fNimbus Roman No9 L Medium|b1|i0|c0|p34;.48}
  7
R80-ESC50
 11
0.0000000000000001
 21
1.0
 31
0.0
 73
     1
 44
1.0
  0
INSERT
  5
25C
330
21F
100
AcDbEntity
  8
0
 62
     1
440
 16777216
370
    -2
100
AcDbBlockReference
  2
_Oblique
 10
15.17301132092462
 20
14.08376801469612
 30
0.0
 41
0.15
 42
0.15
 43
0.15
 50
270.0
  0
INSERT
  5
25D
330
21F
100
AcDbEntity
  8
0
 62
     1
440
 16777216
370
    -2
100
AcDbBlockReference
  2
_Oblique
 10
15.17301132092462
 20
14.57376801469619
 30
0.0
 41
0.15
 42
0.15
 43
0.15
 50
90.0
  0
POINT
  5
25E
330
21F
100
AcDbEntity
  8
Defpoints
 62
     0
440
 16777216
100
AcDbPoint
 10
14.62589335829859
 20
14.08376801469612
 30
0.0
  0
POINT
  5
25F
330
21F
100
AcDbEntity
  8
Defpoints
 62
     0
440
 16777216
100
AcDbPoint
 10
14.42500405987147
 20
14.57376801469619
 30
0.0
  0
POINT
  5
260
330
21F
100
AcDbEntity
  8
Defpoints
 62
     0
440
 16777216
100
AcDbPoint
 10
15.17301132092462
 20
14.57376801469619
 30
0.0
  0
ENDBLK
  5
221
330
21F
100
AcDbEntity
  8
0
100
AcDbBlockEnd
  0
BLOCK
  5
22C
330
22B
100
AcDbEntity
  8
0
100
AcDbBlockBegin
  2
*D20
 70
     1
 10
0.0
 20
0.0
 30
0.0
  3
*D20
  1

  0
LINE
  5
261
330
22B
100
AcDbEntity
  8
steel bars
 62
     1
440
 16777216
370
    -2
100
AcDbLine
 10
14.52500405987147
 20
14.57376801469619
 30
0.0
 11
16.09618845204594
 21
14.57376801469619
 31
0.0
  0
LINE
  5
262
330
22B
100
AcDbEntity
  8
steel bars
 62
     1
440
 16777216
370
    -2
100
AcDbLine
 10
14.50500405987149
 20
12.53376801469617
 30
0.0
 11
16.09618845204594
 21
12.53376801469617
 31
0.0
  0
LINE
  5
263
330
22B
100
AcDbEntity
  8
steel bars
 62
     1
440
 16777216
370
    -2
100
AcDbLine
 10
15.99618845204595
 20
14.57376801469619
 30
0.0
 11
15.99618845204595
 21
12.53376801469617
 31
0.0
  0
INSERT
  5
264
330
22B
100
AcDbEntity
  8
steel bars
 62
     1
440
 16777216
370
    -2
100
AcDbBlockReference
  2
_Oblique
 10
15.99618845204595
 20
14.57376801469619
 30
0.0
 41
0.15
 42
0.15
 43
0.15
 50
90.0
  0
INSERT
  5
265
330
22B
100
AcDbEntity
  8
steel bars
 62
     1
440
 16777216
370
    -2
100
AcDbBlockReference
  2
_Oblique
 10
15.99618845204595
 20
12.53376801469617
 30
0.0
 41
0.15
 42
0.15
 43
0.15
 50
270.0
  0
MTEXT
  5
266
330
22B
100
AcDbEntity
  8
steel bars
 62
     3
440
 16777216
100
AcDbMText
 10
16.10618845204595
 20
13.55376801469617
 30
0.0
 40
0.1
 41
0.0
 46
0.0
 71
     5
 72
     1
  1
\A1;2.040
  7
R80-ESC50
 11
0.0000000000000001
 21
1.0
 31
0.0
 73
     1
 44
1.0
  0
POINT
  5
267
330
22B
100
AcDbEntity
  8
Defpoints
 62
     0
440
 16777216
100
AcDbPoint
 10
14.42500405987147
 20
14.57376801469619
 30
0.0
  0
POINT
  5
268
330
22B
100
AcDbEntity
  8
Defpoints
 62
     0
440
 16777216
100
AcDbPoint
 10
14.40500405987149
 20
12.53376801469617
 30
0.0
  0
POINT
  5
269
330
22B
100
AcDbEntity
  8
Defpoints
 62
     0
440
 16777216
100
AcDbPoint
 10
15.99618845204595
 20
12.53376801469617
 30
0.0
  0
ENDBLK
  5
22D
330
22B
100
AcDbEntity
  8
0
100
AcDbBlockEnd
  0
BLOCK
  5
238
330
237
100
AcDbEntity
  8
0
100
AcDbBlockBegin
  2
*D21
 70
     1
 10
0.0
 20
0.0
 30
0.0
  3
*D21
  1

  0
LINE
  5
26A
330
237
100
AcDbEntity
  8
steel bars
 62
     1
440
 16777216
370
    -2
100
AcDbLine
 10
13.05890405987145
 20
12.82126801469615
 30
0.0
 11
13.05890405987145
 21
12.081925769488
 31
0.0
  0
LINE
  5
26B
330
237
100
AcDbEntity
  8
steel bars
 62
     1
440
 16777216
370
    -2
100
AcDbLine
 10
15.75110405987146
 20
12.82126801469615
 30
0.0
 11
15.75110405987146
 21
12.081925769488
 31
0.0
  0
LINE
  5
26C
330
237
100
AcDbEntity
  8
steel bars
 62
     1
440
 16777216
370
    -2
100
AcDbLine
 10
13.05890405987145
 20
12.181925769488
 30
0.0
 11
15.75110405987146
 21
12.181925769488
 31
0.0
  0
INSERT
  5
26D
330
237
100
AcDbEntity
  8
steel bars
 62
     1
440
 16777216
370
    -2
100
AcDbBlockReference
  2
_Oblique
 10
13.05890405987145
 20
12.181925769488
 30
0.0
 41
0.15
 42
0.15
 43
0.15
 50
180.0
  0
INSERT
  5
26E
330
237
100
AcDbEntity
  8
steel bars
 62
     1
440
 16777216
370
    -2
100
AcDbBlockReference
  2
_Oblique
 10
15.75110405987146
 20
12.181925769488
 30
0.0
 41
0.15
 42
0.15
 43
0.15
  0
MTEXT
  5
26F
330
237
100
AcDbEntity
  8
steel bars
 62
     3
440
 16777216
100
AcDbMText
 10
14.40500405987146
 20
12.071925769488
 30
0.0
 40
0.1
 41
0.0
 46
0.0
 71
     5
 72
     1
  1
\A1;2.692
  7
R80-ESC50
 73
     1
 44
1.0
  0
POINT
  5
270
330
237
100
AcDbEntity
  8
Defpoints
 62
     0
440
 16777216
100
AcDbPoint
 10
13.05890405987145
 20
12.92126801469615
 30
0.0
  0
POINT
  5
271
330
237
100
AcDbEntity
  8
Defpoints
 62
     0
440
 16777216
100
AcDbPoint
 10
15.75110405987146
 20
12.92126801469615
 30
0.0
  0
POINT
  5
272
330
237
100
AcDbEntity
  8
Defpoints
 62
     0
440
 16777216
100
AcDbPoint
 10
15.75110405987146
 20
12.181925769488
 30
0.0
  0
ENDBLK
  5
239
330
237
100
AcDbEntity
  8
0
100
AcDbBlockEnd
  0
BLOCK
  5
244
330
243
100
AcDbEntity
  8
0
100
AcDbBlockBegin
  2
*D22
 70
     1
 10
0.0
 20
0.0
 30
0.0
  3
*D22
  1

  0
LINE
  5
273
330
243
100
AcDbEntity
  8
steel bars
 62
     1
440
 16777216
370
    -2
100
AcDbLine
 10
12.95890405987146
 20
12.92126801469616
 30
0.0
 11
12.29361759327057
 21
12.92126801469616
 31
0.0
  0
LINE
  5
274
330
243
100
AcDbEntity
  8
steel bars
 62
     1
440
 16777216
370
    -2
100
AcDbLine
 10
14.30500405987149
 20
12.53376801469617
 30
0.0
 11
12.29361759327057
 21
12.53376801469617
 31
0.0
  0
LINE
  5
275
330
243
100
AcDbEntity
  8
steel bars
 62
     1
440
 16777216
370
    -2
100
AcDbLine
 10
12.39361759327057
 20
12.92126801469616
 30
0.0
 11
12.39361759327057
 21
12.53376801469617
 31
0.0
  0
MTEXT
  5
276
330
243
100
AcDbEntity
  8
steel bars
 62
     3
440
 16777216
100
AcDbMText
 10
12.15361759327057
 20
12.72751801469616
 30
0.0
 40
0.1
 41
0.0
 46
0.0
 71
     5
 72
     1
  1
\A1;0.388
  7
R80-ESC50
 11
0.0000000000000001
 21
1.0
 31
0.0
 73
     1
 44
1.0
  0
INSERT
  5
277
330
243
100
AcDbEntity
  8
steel bars
 62
     1
440
 16777216
370
    -2
100
AcDbBlockReference
  2
_Oblique
 10
12.39361759327057
 20
12.92126801469616
 30
0.0
 41
0.15
 42
0.15
 43
0.15
 50
90.0
  0
INSERT
  5
278
330
243
100
AcDbEntity
  8
steel bars
 62
     1
440
 16777216
370
    -2
100
AcDbBlockReference
  2
_Oblique
 10
12.39361759327057
 20
12.53376801469617
 30
0.0
 41
0.15
 42
0.15
 43
0.15
 50
270.0
  0
POINT
  5
279
330
243
100
AcDbEntity
  8
Defpoints
 62
     0
440
 16777216
100
AcDbPoint
 10
13.05890405987146
 20
12.92126801469616
 30
0.0
  0
POINT
  5
27A
330
243
100
AcDbEntity
  8
Defpoints
 62
     0
440
 16777216
100
AcDbPoint
 10
14.40500405987149
 20
12.53376801469617
 30
0.0
  0
POINT
  5
27B
330
243
100
AcDbEntity
  8
Defpoints
 62
     0
440
 16777216
100
AcDbPoint
 10
12.39361759327057
 20
12.53376801469617
 30
0.0
  0
ENDBLK
  5
245
330
243
100
AcDbEntity
  8
0
100
AcDbBlockEnd
  0
BLOCK
  5
27D
330
27C
100
AcDbEntity
  8
0
100
AcDbBlockBegin
  2
*D23
 70
     1
 10
0.0
 20
0.0
 30
0.0
  3
*D23
  1

  0
LINE
  5
27E
330
27C
100
AcDbEntity
  8
0
 62
     1
440
 16777216
370
    -2
100
AcDbLine
 10
12.99620012875513
 20
12.73376801469616
 30
0.0
 11
12.75609398232675
 21
12.73376801469616
 31
0.0
  0
LINE
  5
27F
330
27C
100
AcDbEntity
  8
0
 62
     1
440
 16777216
370
    -2
100
AcDbLine
 10
14.30500405987149
 20
12.53376801469617
 30
0.0
 11
12.75609398232675
 21
12.53376801469617
 31
0.0
  0
LINE
  5
280
330
27C
100
AcDbEntity
  8
0
 62
     1
440
 16777216
370
    -2
100
AcDbLine
 10
12.85609398232675
 20
12.73376801469616
 30
0.0
 11
12.85609398232675
 21
12.53376801469617
 31
0.0
  0
MTEXT
  5
281
330
27C
100
AcDbEntity
  8
0
 62
     3
440
 16777216
100
AcDbMText
 10
12.61518949607461
 20
12.45380766678019
 30
0.0
 40
0.1
 41
0.0
 46
0.0
 71
     5
 72
     1
  1
\A1;{\fNimbus Roman No9 L Medium|b1|i0|c0|p34;.20}
  7
R80-ESC50
 11
0.0000000000000001
 21
1.0
 31
0.0
 73
     1
 44
1.0
  0
INSERT
  5
282
330
27C
100
AcDbEntity
  8
0
 62
     1
440
 16777216
370
    -2
100
AcDbBlockReference
  2
_Oblique
 10
12.85609398232675
 20
12.73376801469616
 30
0.0
 41
0.15
 42
0.15
 43
0.15
 50
90.0
  0
INSERT
  5
283
330
27C
100
AcDbEntity
  8
0
 62
     1
440
 16777216
370
    -2
100
AcDbBlockReference
  2
_Oblique
 10
12.85609398232675
 20
12.53376801469617
 30
0.0
 41
0.15
 42
0.15
 43
0.15
 50
270.0
  0
POINT
  5
284
330
27C
100
AcDbEntity
  8
Defpoints
 62
     0
440
 16777216
100
AcDbPoint
 10
13.09620012875513
 20
12.73376801469616
 30
0.0
  0
POINT
  5
285
330
27C
100
AcDbEntity
  8
Defpoints
 62
     0
440
 16777216
100
AcDbPoint
 10
14.40500405987149
 20
12.53376801469617
 30
0.0
  0
POINT
  5
286
330
27C
100
AcDbEntity
  8
Defpoints
 62
     0
440
 16777216
100
AcDbPoint
 10
12.85609398232675
 20
12.53376801469617
 30
0.0
  0
ENDBLK
  5
287
330
27C
100
AcDbEntity
  8
0
100
AcDbBlockEnd
  0
BLOCK
  5
289
330
288
100
AcDbEntity
  8
0
100
AcDbBlockBegin
  2
*D24
 70
     1
 10
0.0
 20
0.0
 30
0.0
  3
*D24
  1

  0
LINE
  5
28A
330
288
100
AcDbEntity
  8
0
 62
     1
440
 16777216
370
    -2
100
AcDbLine
 10
14.72589335829859
 20
14.08376801469612
 30
0.0
 11
15.27301132092462
 21
14.08376801469612
 31
0.0
  0
LINE
  5
28B
330
288
100
AcDbEntity
  8
0
 62
     1
440
 16777216
370
    -2
100
AcDbLine
 10
14.52500405987147
 20
14.57376801469619
 30
0.0
 11
15.27301132092462
 21
14.57376801469619
 31
0.0
  0
LINE
  5
28C
330
288
100
AcDbEntity
  8
0
 62
     1
440
 16777216
370
    -2
100
AcDbLine
 10
15.17301132092462
 20
14.08376801469612
 30
0.0
 11
15.17301132092462
 21
14.57376801469619
 31
0.0
  0
MTEXT
  5
28D
330
288
100
AcDbEntity
  8
0
 62
     3
440
 16777216
100
AcDbMText
 10
15.03468123253538
 20
14.32876801469612
 30
0.0
 40
0.1
 41
0.0
 46
0.0
 71
     5
 72
     1
  1
\A1;{\fNimbus Roman No9 L Medium|b1|i0|c0|p34;.48}
  7
R80-ESC50
 11
0.0000000000000001
 21
1.0
 31
0.0
 73
     1
 44
1.0
  0
INSERT
  5
28E
330
288
100
AcDbEntity
  8
0
 62
     1
440
 16777216
370
    -2
100
AcDbBlockReference
  2
_Oblique
 10
15.17301132092462
 20
14.08376801469612
 30
0.0
 41
0.15
 42
0.15
 43
0.15
 50
270.0
  0
INSERT
  5
28F
330
288
100
AcDbEntity
  8
0
 62
     1
440
 16777216
370
    -2
100
AcDbBlockReference
  2
_Oblique
 10
15.17301132092462
 20
14.57376801469619
 30
0.0
 41
0.15
 42
0.15
 43
0.15
 50
90.0
  0
POINT
  5
290
330
288
100
AcDbEntity
  8
Defpoints
 62
     0
440
 16777216
100
AcDbPoint
 10
14.62589335829859
 20
14.08376801469612
 30
0.0
  0
POINT
  5
291
330
288
100
AcDbEntity
  8
Defpoints
 62
     0
440
 16777216
100
AcDbPoint
 10
14.42500405987147
 20
14.57376801469619
 30
0.0
  0
POINT
  5
292
330
288
100
AcDbEntity
  8
Defpoints
 62
     0
440
 16777216
100
AcDbPoint
 10
15.17301132092462
 20
14.57376801469619
 30
0.0
  0
ENDBLK
  5
293
330
288
100
AcDbEntity
  8
0
100
AcDbBlockEnd
  0
BLOCK
  5
295
330
294
100
AcDbEntity
  8
0
100
AcDbBlockBegin
  2
*D25
 70
     1
 10
0.0
 20
0.0
 30
0.0
  3
*D25
  1

  0
LINE
  5
296
330
294
100
AcDbEntity
  8
steel bars
 62
     1
440
 16777216
370
    -2
100
AcDbLine
 10
14.52500405987147
 20
14.57376801469619
 30
0.0
 11
16.09618845204594
 21
14.57376801469619
 31
0.0
  0
LINE
  5
297
330
294
100
AcDbEntity
  8
steel bars
 62
     1
440
 16777216
370
    -2
100
AcDbLine
 10
14.50500405987149
 20
12.53376801469617
 30
0.0
 11
16.09618845204594
 21
12.53376801469617
 31
0.0
  0
LINE
  5
298
330
294
100
AcDbEntity
  8
steel bars
 62
     1
440
 16777216
370
    -2
100
AcDbLine
 10
15.99618845204595
 20
14.57376801469619
 30
0.0
 11
15.99618845204595
 21
12.53376801469617
 31
0.0
  0
INSERT
  5
299
330
294
100
AcDbEntity
  8
steel bars
 62
     1
440
 16777216
370
    -2
100
AcDbBlockReference
  2
_Oblique
 10
15.99618845204595
 20
14.57376801469619
 30
0.0
 41
0.15
 42
0.15
 43
0.15
 50
90.0
  0
INSERT
  5
29A
330
294
100
AcDbEntity
  8
steel bars
 62
     1
440
 16777216
370
    -2
100
AcDbBlockReference
  2
_Oblique
 10
15.99618845204595
 20
12.53376801469617
 30
0.0
 41
0.15
 42
0.15
 43
0.15
 50
270.0
  0
MTEXT
  5
29B
330
294
100
AcDbEntity
  8
steel bars
 62
     3
440
 16777216
100
AcDbMText
 10
16.10618845204595
 20
13.55376801469617
 30
0.0
 40
0.1
 41
0.0
 46
0.0
 71
     5
 72
     1
  1
\A1;2.040
  7
R80-ESC50
 11
0.0000000000000001
 21
1.0
 31
0.0
 73
     1
 44
1.0
  0
POINT
  5
29C
330
294
100
AcDbEntity
  8
Defpoints
 62
     0
440
 16777216
100
AcDbPoint
 10
14.42500405987147
 20
14.57376801469619
 30
0.0
  0
POINT
  5
29D
330
294
100
AcDbEntity
  8
Defpoints
 62
     0
440
 16777216
100
AcDbPoint
 10
14.40500405987149
 20
12.53376801469617
 30
0.0
  0
POINT
  5
29E
330
294
100
AcDbEntity
  8
Defpoints
 62
     0
440
 16777216
100
AcDbPoint
 10
15.99618845204595
 20
12.53376801469617
 30
0.0
  0
ENDBLK
  5
29F
330
294
100
AcDbEntity
  8
0
100
AcDbBlockEnd
  0
BLOCK
  5
2A1
330
2A0
100
AcDbEntity
  8
0
100
AcDbBlockBegin
  2
*D26
 70
     1
 10
0.0
 20
0.0
 30
0.0
  3
*D26
  1

  0
LINE
  5
2A2
330
2A0
100
AcDbEntity
  8
steel bars
 62
     1
440
 16777216
370
    -2
100
AcDbLine
 10
13.05890405987145
 20
12.82126801469615
 30
0.0
 11
13.05890405987145
 21
12.081925769488
 31
0.0
  0
LINE
  5
2A3
330
2A0
100
AcDbEntity
  8
steel bars
 62
     1
440
 16777216
370
    -2
100
AcDbLine
 10
15.75110405987146
 20
12.82126801469615
 30
0.0
 11
15.75110405987146
 21
12.081925769488
 31
0.0
  0
LINE
  5
2A4
330
2A0
100
AcDbEntity
  8
steel bars
 62
     1
440
 16777216
370
    -2
100
AcDbLine
 10
13.05890405987145
 20
12.181925769488
 30
0.0
 11
15.75110405987146
 21
12.181925769488
 31
0.0
  0
INSERT
  5
2A5
330
2A0
100
AcDbEntity
  8
steel bars
 62
     1
440
 16777216
370
    -2
100
AcDbBlockReference
  2
_Oblique
 10
13.05890405987145
 20
12.181925769488
 30
0.0
 41
0.15
 42
0.15
 43
0.15
 50
180.0
  0
INSERT
  5
2A6
330
2A0
100
AcDbEntity
  8
steel bars
 62
     1
440
 16777216
370
    -2
100
AcDbBlockReference
  2
_Oblique
 10
15.75110405987146
 20
12.181925769488
 30
0.0
 41
0.15
 42
0.15
 43
0.15
  0
MTEXT
  5
2A7
330
2A0
100
AcDbEntity
  8
steel bars
 62
     3
440
 16777216
100
AcDbMText
 10
14.40500405987146
 20
12.071925769488
 30
0.0
 40
0.1
 41
0.0
 46
0.0
 71
     5
 72
     1
  1
\A1;2.692
  7
R80-ESC50
 73
     1
 44
1.0
  0
POINT
  5
2A8
330
2A0
100
AcDbEntity
  8
Defpoints
 62
     0
440
 16777216
100
AcDbPoint
 10
13.05890405987145
 20
12.92126801469615
 30
0.0
  0
POINT
  5
2A9
330
2A0
100
AcDbEntity
  8
Defpoints
 62
     0
440
 16777216
100
AcDbPoint
 10
15.75110405987146
 20
12.92126801469615
 30
0.0
  0
POINT
  5
2AA
330
2A0
100
AcDbEntity
  8
Defpoints
 62
     0
440
 16777216
100
AcDbPoint
 10
15.75110405987146
 20
12.181925769488
 30
0.0
  0
ENDBLK
  5
2AB
330
2A0
100
AcDbEntity
  8
0
100
AcDbBlockEnd
  0
BLOCK
  5
2AD
330
2AC
100
AcDbEntity
  8
0
100
AcDbBlockBegin
  2
*D27
 70
     1
 10
0.0
 20
0.0
 30
0.0
  3
*D27
  1

  0
LINE
  5
2AE
330
2AC
100
AcDbEntity
  8
steel bars
 62
     1
440
 16777216
370
    -2
100
AcDbLine
 10
12.95890405987146
 20
12.92126801469616
 30
0.0
 11
12.29361759327057
 21
12.92126801469616
 31
0.0
  0
LINE
  5
2AF
330
2AC
100
AcDbEntity
  8
steel bars
 62
     1
440
 16777216
370
    -2
100
AcDbLine
 10
14.30500405987149
 20
12.53376801469617
 30
0.0
 11
12.29361759327057
 21
12.53376801469617
 31
0.0
  0
LINE
  5
2B0
330
2AC
100
AcDbEntity
  8
steel bars
 62
     1
440
 16777216
370
    -2
100
AcDbLine
 10
12.39361759327057
 20
12.92126801469616
 30
0.0
 11
12.39361759327057
 21
12.53376801469617
 31
0.0
  0
MTEXT
  5
2B1
330
2AC
100
AcDbEntity
  8
steel bars
 62
     3
440
 16777216
100
AcDbMText
 10
12.15361759327057
 20
12.72751801469616
 30
0.0
 40
0.1
 41
0.0
 46
0.0
 71
     5
 72
     1
  1
\A1;0.388
  7
R80-ESC50
 11
0.0000000000000001
 21
1.0
 31
0.0
 73
     1
 44
1.0
  0
INSERT
  5
2B2
330
2AC
100
AcDbEntity
  8
steel bars
 62
     1
440
 16777216
370
    -2
100
AcDbBlockReference
  2
_Oblique
 10
12.39361759327057
 20
12.92126801469616
 30
0.0
 41
0.15
 42
0.15
 43
0.15
 50
90.0
  0
INSERT
  5
2B3
330
2AC
100
AcDbEntity
  8
steel bars
 62
     1
440
 16777216
370
    -2
100
AcDbBlockReference
  2
_Oblique
 10
12.39361759327057
 20
12.53376801469617
 30
0.0
 41
0.15
 42
0.15
 43
0.15
 50
270.0
  0
POINT
  5
2B4
330
2AC
100
AcDbEntity
  8
Defpoints
 62
     0
440
 16777216
100
AcDbPoint
 10
13.05890405987146
 20
12.92126801469616
 30
0.0
  0
POINT
  5
2B5
330
2AC
100
AcDbEntity
  8
Defpoints
 62
     0
440
 16777216
100
AcDbPoint
 10
14.40500405987149
 20
12.53376801469617
 30
0.0
  0
POINT
  5
2B6
330
2AC
100
AcDbEntity
  8
Defpoints
 62
     0
440
 16777216
100
AcDbPoint
 10
12.39361759327057
 20
12.53376801469617
 30
0.0
  0
ENDBLK
  5
2B7
330
2AC
100
AcDbEntity
  8
0
100
AcDbBlockEnd
  0
BLOCK
  5
2F5
330
2F4
100
AcDbEntity
  8
0
100
AcDbBlockBegin
  2
*D28
 70
     1
 10
0.0
 20
0.0
 30
0.0
  3
*D28
  1

  0
LINE
  5
330
330
2F4
100
AcDbEntity
  8
0
 62
     1
440
 16777216
370
    -2
100
AcDbLine
 10
1.485936485942653
 20
1.078013369359754
 30
0.0
 11
1.245830339514274
 21
1.078013369359754
 31
0.0
  0
LINE
  5
331
330
2F4
100
AcDbEntity
  8
0
 62
     1
440
 16777216
370
    -2
100
AcDbLine
 10
2.794740417059014
 20
0.8780133693597655
 30
0.0
 11
1.245830339514274
 21
0.8780133693597653
 31
0.0
  0
LINE
  5
332
330
2F4
100
AcDbEntity
  8
0
 62
     1
440
 16777216
370
    -2
100
AcDbLine
 10
1.345830339514274
 20
1.078013369359754
 30
0.0
 11
1.345830339514274
 21
0.8780133693597653
 31
0.0
  0
MTEXT
  5
333
330
2F4
100
AcDbEntity
  8
0
 62
     3
440
 16777216
100
AcDbMText
 10
1.104925853262132
 20
0.7980530214437938
 30
0.0
 40
0.1
 41
0.0
 46
0.0
 71
     5
 72
     1
  1
\A1;{\fNimbus Roman No9 L Medium|b1|i0|c0|p34;.20}
  7
R80-ESC50
 11
0.0000000000000001
 21
1.0
 31
0.0
 73
     1
 44
1.0
  0
INSERT
  5
334
330
2F4
100
AcDbEntity
  8
0
 62
     1
440
 16777216
370
    -2
100
AcDbBlockReference
  2
_Oblique
 10
1.345830339514274
 20
1.078013369359754
 30
0.0
 41
0.15
 42
0.15
 43
0.15
 50
90.0
  0
INSERT
  5
335
330
2F4
100
AcDbEntity
  8
0
 62
     1
440
 16777216
370
    -2
100
AcDbBlockReference
  2
_Oblique
 10
1.345830339514274
 20
0.8780133693597653
 30
0.0
 41
0.15
 42
0.15
 43
0.15
 50
270.0
  0
POINT
  5
336
330
2F4
100
AcDbEntity
  8
Defpoints
 62
     0
440
 16777216
100
AcDbPoint
 10
1.585936485942656
 20
1.078013369359754
 30
0.0
  0
POINT
  5
337
330
2F4
100
AcDbEntity
  8
Defpoints
 62
     0
440
 16777216
100
AcDbPoint
 10
2.894740417059013
 20
0.8780133693597655
 30
0.0
  0
POINT
  5
338
330
2F4
100
AcDbEntity
  8
Defpoints
 62
     0
440
 16777216
100
AcDbPoint
 10
1.345830339514274
 20
0.8780133693597653
 30
0.0
  0
ENDBLK
  5
2F6
330
2F4
100
AcDbEntity
  8
0
100
AcDbBlockEnd
  0
BLOCK
  5
301
330
300
100
AcDbEntity
  8
0
100
AcDbBlockBegin
  2
*D29
 70
     1
 10
0.0
 20
0.0
 30
0.0
  3
*D29
  1

  0
LINE
  5
339
330
300
100
AcDbEntity
  8
0
 62
     1
440
 16777216
370
    -2
100
AcDbLine
 10
3.215629715486111
 20
2.42801336935972
 30
0.0
 11
3.762747678112154
 21
2.42801336935972
 31
0.0
  0
LINE
  5
33A
330
300
100
AcDbEntity
  8
0
 62
     1
440
 16777216
370
    -2
100
AcDbLine
 10
3.014740417058995
 20
2.918013369359787
 30
0.0
 11
3.762747678112154
 21
2.918013369359787
 31
0.0
  0
LINE
  5
33B
330
300
100
AcDbEntity
  8
0
 62
     1
440
 16777216
370
    -2
100
AcDbLine
 10
3.662747678112153
 20
2.42801336935972
 30
0.0
 11
3.662747678112153
 21
2.918013369359787
 31
0.0
  0
MTEXT
  5
33C
330
300
100
AcDbEntity
  8
0
 62
     3
440
 16777216
100
AcDbMText
 10
3.524417589722903
 20
2.673013369359724
 30
0.0
 40
0.1
 41
0.0
 46
0.0
 71
     5
 72
     1
  1
\A1;{\fNimbus Roman No9 L Medium|b1|i0|c0|p34;.48}
  7
R80-ESC50
 11
0.0000000000000001
 21
1.0
 31
0.0
 73
     1
 44
1.0
  0
INSERT
  5
33D
330
300
100
AcDbEntity
  8
0
 62
     1
440
 16777216
370
    -2
100
AcDbBlockReference
  2
_Oblique
 10
3.662747678112153
 20
2.42801336935972
 30
0.0
 41
0.15
 42
0.15
 43
0.15
 50
270.0
  0
INSERT
  5
33E
330
300
100
AcDbEntity
  8
0
 62
     1
440
 16777216
370
    -2
100
AcDbBlockReference
  2
_Oblique
 10
3.662747678112153
 20
2.918013369359787
 30
0.0
 41
0.15
 42
0.15
 43
0.15
 50
90.0
  0
POINT
  5
33F
330
300
100
AcDbEntity
  8
Defpoints
 62
     0
440
 16777216
100
AcDbPoint
 10
3.115629715486111
 20
2.42801336935972
 30
0.0
  0
POINT
  5
340
330
300
100
AcDbEntity
  8
Defpoints
 62
     0
440
 16777216
100
AcDbPoint
 10
2.914740417058995
 20
2.918013369359785
 30
0.0
  0
POINT
  5
341
330
300
100
AcDbEntity
  8
Defpoints
 62
     0
440
 16777216
100
AcDbPoint
 10
3.662747678112153
 20
2.918013369359787
 30
0.0
  0
ENDBLK
  5
302
330
300
100
AcDbEntity
  8
0
100
AcDbBlockEnd
  0
BLOCK
  5
30D
330
30C
100
AcDbEntity
  8
0
100
AcDbBlockBegin
  2
*D30
 70
     1
 10
0.0
 20
0.0
 30
0.0
  3
*D30
  1

  0
LINE
  5
342
330
30C
100
AcDbEntity
  8
steel bars
 62
     1
440
 16777216
370
    -2
100
AcDbLine
 10
3.014740417058995
 20
2.918013369359787
 30
0.0
 11
4.58592480923348
 21
2.918013369359787
 31
0.0
  0
LINE
  5
343
330
30C
100
AcDbEntity
  8
steel bars
 62
     1
440
 16777216
370
    -2
100
AcDbLine
 10
2.994740417059013
 20
0.8780133693597655
 30
0.0
 11
4.585924809233481
 21
0.8780133693597658
 31
0.0
  0
LINE
  5
344
330
30C
100
AcDbEntity
  8
steel bars
 62
     1
440
 16777216
370
    -2
100
AcDbLine
 10
4.48592480923348
 20
2.918013369359787
 30
0.0
 11
4.48592480923348
 21
0.8780133693597658
 31
0.0
  0
INSERT
  5
345
330
30C
100
AcDbEntity
  8
steel bars
 62
     1
440
 16777216
370
    -2
100
AcDbBlockReference
  2
_Oblique
 10
4.48592480923348
 20
2.918013369359787
 30
0.0
 41
0.15
 42
0.15
 43
0.15
 50
90.0
  0
INSERT
  5
346
330
30C
100
AcDbEntity
  8
steel bars
 62
     1
440
 16777216
370
    -2
100
AcDbBlockReference
  2
_Oblique
 10
4.48592480923348
 20
0.8780133693597658
 30
0.0
 41
0.15
 42
0.15
 43
0.15
 50
270.0
  0
MTEXT
  5
347
330
30C
100
AcDbEntity
  8
steel bars
 62
     3
440
 16777216
100
AcDbMText
 10
4.59592480923348
 20
1.898013369359775
 30
0.0
 40
0.1
 41
0.0
 46
0.0
 71
     5
 72
     1
  1
\A1;2.040
  7
R80-ESC50
 11
0.0000000000000001
 21
1.0
 31
0.0
 73
     1
 44
1.0
  0
POINT
  5
348
330
30C
100
AcDbEntity
  8
Defpoints
 62
     0
440
 16777216
100
AcDbPoint
 10
2.914740417058995
 20
2.918013369359785
 30
0.0
  0
POINT
  5
349
330
30C
100
AcDbEntity
  8
Defpoints
 62
     0
440
 16777216
100
AcDbPoint
 10
2.894740417059013
 20
0.8780133693597655
 30
0.0
  0
POINT
  5
34A
330
30C
100
AcDbEntity
  8
Defpoints
 62
     0
440
 16777216
100
AcDbPoint
 10
4.48592480923348
 20
0.8780133693597658
 30
0.0
  0
ENDBLK
  5
30E
330
30C
100
AcDbEntity
  8
0
100
AcDbBlockEnd
  0
BLOCK
  5
319
330
318
100
AcDbEntity
  8
0
100
AcDbBlockBegin
  2
*D31
 70
     1
 10
0.0
 20
0.0
 30
0.0
  3
*D31
  1

  0
LINE
  5
34B
330
318
100
AcDbEntity
  8
steel bars
 62
     1
440
 16777216
370
    -2
100
AcDbLine
 10
1.548640417058978
 20
1.165513369359753
 30
0.0
 11
1.548640417058978
 21
0.4261711241516043
 31
0.0
  0
LINE
  5
34C
330
318
100
AcDbEntity
  8
steel bars
 62
     1
440
 16777216
370
    -2
100
AcDbLine
 10
4.240840417058992
 20
1.165513369359753
 30
0.0
 11
4.240840417058992
 21
0.4261711241516043
 31
0.0
  0
LINE
  5
34D
330
318
100
AcDbEntity
  8
steel bars
 62
     1
440
 16777216
370
    -2
100
AcDbLine
 10
1.548640417058978
 20
0.5261711241516043
 30
0.0
 11
4.240840417058992
 21
0.5261711241516043
 31
0.0
  0
INSERT
  5
34E
330
318
100
AcDbEntity
  8
steel bars
 62
     1
440
 16777216
370
    -2
100
AcDbBlockReference
  2
_Oblique
 10
1.548640417058978
 20
0.5261711241516043
 30
0.0
 41
0.15
 42
0.15
 43
0.15
 50
180.0
  0
INSERT
  5
34F
330
318
100
AcDbEntity
  8
steel bars
 62
     1
440
 16777216
370
    -2
100
AcDbBlockReference
  2
_Oblique
 10
4.240840417058992
 20
0.5261711241516043
 30
0.0
 41
0.15
 42
0.15
 43
0.15
  0
MTEXT
  5
350
330
318
100
AcDbEntity
  8
steel bars
 62
     3
440
 16777216
100
AcDbMText
 10
2.894740417058983
 20
0.4161711241516043
 30
0.0
 40
0.1
 41
0.0
 46
0.0
 71
     5
 72
     1
  1
\A1;2.692
  7
R80-ESC50
 73
     1
 44
1.0
  0
POINT
  5
351
330
318
100
AcDbEntity
  8
Defpoints
 62
     0
440
 16777216
100
AcDbPoint
 10
1.548640417058978
 20
1.265513369359752
 30
0.0
  0
POINT
  5
352
330
318
100
AcDbEntity
  8
Defpoints
 62
     0
440
 16777216
100
AcDbPoint
 10
4.240840417058992
 20
1.265513369359752
 30
0.0
  0
POINT
  5
353
330
318
100
AcDbEntity
  8
Defpoints
 62
     0
440
 16777216
100
AcDbPoint
 10
4.240840417058992
 20
0.5261711241516043
 30
0.0
  0
ENDBLK
  5
31A
330
318
100
AcDbEntity
  8
0
100
AcDbBlockEnd
  0
BLOCK
  5
325
330
324
100
AcDbEntity
  8
0
100
AcDbBlockBegin
  2
*D32
 70
     1
 10
0.0
 20
0.0
 30
0.0
  3
*D32
  1

  0
LINE
  5
354
330
324
100
AcDbEntity
  8
steel bars
 62
     1
440
 16777216
370
    -2
100
AcDbLine
 10
1.448640417058978
 20
1.265513369359754
 30
0.0
 11
0.7833539504580963
 21
1.265513369359754
 31
0.0
  0
LINE
  5
355
330
324
100
AcDbEntity
  8
steel bars
 62
     1
440
 16777216
370
    -2
100
AcDbLine
 10
2.794740417059014
 20
0.8780133693597655
 30
0.0
 11
0.7833539504580962
 21
0.8780133693597653
 31
0.0
  0
LINE
  5
356
330
324
100
AcDbEntity
  8
steel bars
 62
     1
440
 16777216
370
    -2
100
AcDbLine
 10
0.883353950458096
 20
1.265513369359754
 30
0.0
 11
0.883353950458096
 21
0.8780133693597653
 31
0.0
  0
MTEXT
  5
357
330
324
100
AcDbEntity
  8
steel bars
 62
     3
440
 16777216
100
AcDbMText
 10
0.6433539504580966
 20
1.071763369359759
 30
0.0
 40
0.1
 41
0.0
 46
0.0
 71
     5
 72
     1
  1
\A1;0.388
  7
R80-ESC50
 11
0.0000000000000001
 21
1.0
 31
0.0
 73
     1
 44
1.0
  0
INSERT
  5
358
330
324
100
AcDbEntity
  8
steel bars
 62
     1
440
 16777216
370
    -2
100
AcDbBlockReference
  2
_Oblique
 10
0.883353950458096
 20
1.265513369359754
 30
0.0
 41
0.15
 42
0.15
 43
0.15
 50
90.0
  0
INSERT
  5
359
330
324
100
AcDbEntity
  8
steel bars
 62
     1
440
 16777216
370
    -2
100
AcDbBlockReference
  2
_Oblique
 10
0.883353950458096
 20
0.8780133693597653
 30
0.0
 41
0.15
 42
0.15
 43
0.15
 50
270.0
  0
POINT
  5
35A
330
324
100
AcDbEntity
  8
Defpoints
 62
     0
440
 16777216
100
AcDbPoint
 10
1.548640417058978
 20
1.265513369359754
 30
0.0
  0
POINT
  5
35B
330
324
100
AcDbEntity
  8
Defpoints
 62
     0
440
 16777216
100
AcDbPoint
 10
2.894740417059013
 20
0.8780133693597655
 30
0.0
  0
POINT
  5
35C
330
324
100
AcDbEntity
  8
Defpoints
 62
     0
440
 16777216
100
AcDbPoint
 10
0.883353950458096
 20
0.8780133693597653
 30
0.0
  0
ENDBLK
  5
326
330
324
100
AcDbEntity
  8
0
100
AcDbBlockEnd
  0
ENDSEC
  0
SECTION
  2
ENTITIES
  0
LWPOLYLINE
  5
2D9
330
70
100
AcDbEntity
  8
concrete
 62
     3
100
AcDbPolyline
 90
        7
 70
     1
 43
0.0
 10
0.0
 20
0.3874999999999868
 10
1.326099999999995
 20
2.04000000000002
 10
1.366100000000014
 20
2.04000000000002
 10
2.692200000000013
 20
0.3874999999999868
 10
2.654903931116279
 20
0.1999999999999868
 10
1.346100000000034
 20
0.0
 10
0.037296068883677
 20
0.1999999999999868
  0
CIRCLE
  5
366
330
70
100
AcDbEntity
  8
steel bars
100
AcDbCircle
 10
1.728184579826313
 20
0.2048701034952089
 30
0.0
 40
0.040376295110229
  0
CIRCLE
  5
367
330
70
100
AcDbEntity
  8
steel bars
100
AcDbCircle
 10
2.098011282388623
 20
1.001077463255934
 30
0.0
 40
0.0452047125324785
  0
CIRCLE
  5
375
330
70
100
AcDbEntity
  8
steel bars
100
AcDbCircle
 10
1.252237475596749
 20
0.2080374087063579
 30
0.0
 40
0.040376295110229
  0
CIRCLE
  5
376
330
70
100
AcDbEntity
  8
steel bars
100
AcDbCircle
 10
1.029592677574887
 20
0.221799952227824
 30
0.0
 40
0.040376295110229
  0
CIRCLE
  5
377
330
70
100
AcDbEntity
  8
steel bars
100
AcDbCircle
 10
0.9102375833228871
 20
0.2630856543649109
 30
0.0
 40
0.040376295110229
  0
CIRCLE
  5
378
330
70
100
AcDbEntity
  8
steel bars
100
AcDbCircle
 10
0.7541565855014973
 20
0.27455401209343
 30
0.0
 40
0.040376295110229
  0
CIRCLE
  5
379
330
70
100
AcDbEntity
  8
steel bars
100
AcDbCircle
 10
0.5820078587132606
 20
0.3066655422950619
 30
0.0
 40
0.040376295110229
  0
CIRCLE
  5
37B
330
70
100
AcDbEntity
  8
steel bars
100
AcDbCircle
 10
0.441994589858828
 20
0.8089784537466158
 30
0.0
 40
0.040376295110229
  0
CIRCLE
  5
37C
330
70
100
AcDbEntity
  8
steel bars
100
AcDbCircle
 10
0.6210289851004429
 20
1.05440105201276
 30
0.0
 40
0.040376295110229
  0
CIRCLE
  5
37D
330
70
100
AcDbEntity
  8
steel bars
100
AcDbCircle
 10
0.7587961393176012
 20
1.20375775389132
 30
0.0
 40
0.040376295110229
  0
CIRCLE
  5
37E
330
70
100
AcDbEntity
  8
steel bars
100
AcDbCircle
 10
0.9998027198818054
 20
1.465235795853708
 30
0.0
 40
0.040376295110229
  0
CIRCLE
  5
37F
330
70
100
AcDbEntity
  8
steel bars
100
AcDbCircle
 10
1.128339874647273
 20
1.630379890020348
 30
0.0
 40
0.040376295110229
  0
CIRCLE
  5
380
330
70
100
AcDbEntity
  8
steel bars
100
AcDbCircle
 10
1.275239981197491
 20
1.735888652560698
 30
0.0
 40
0.040376295110229
  0
CIRCLE
  5
381
330
70
100
AcDbEntity
  8
steel bars
100
AcDbCircle
 10
1.394596244691902
 20
1.710658394119858
 30
0.0
 40
0.040376295110229
  0
CIRCLE
  5
382
330
70
100
AcDbEntity
  8
steel bars
100
AcDbCircle
 10
1.530019067910748
 20
1.657904334254252
 30
0.0
 40
0.040376295110229
  0
CIRCLE
  5
383
330
70
100
AcDbEntity
  8
steel bars
100
AcDbCircle
 10
1.637898048073784
 20
1.6143244463241
 30
0.0
 40
0.040376295110229
  0
CIRCLE
  5
384
330
70
100
AcDbEntity
  8
steel bars
100
AcDbCircle
 10
1.732005691330178
 20
1.508815683783748
 30
0.0
 40
0.040376295110229
  0
CIRCLE
  5
385
330
70
100
AcDbEntity
  8
steel bars
100
AcDbCircle
 10
1.816932443315399
 20
1.403306921243508
 30
0.0
 40
0.040376295110229
  0
CIRCLE
  5
386
330
70
100
AcDbEntity
  8
steel bars
100
AcDbCircle
 10
1.869724906609224
 20
1.295504615719234
 30
0.0
 40
0.040376295110229
  0
CIRCLE
  5
387
330
70
100
AcDbEntity
  8
steel bars
100
AcDbCircle
 10
1.963831380623208
 20
1.162472051754231
 30
0.0
 40
0.040376295110229
  0
CIRCLE
  5
388
330
70
100
AcDbEntity
  8
steel bars
100
AcDbCircle
 10
2.280583821901349
 20
0.7840168895230849
 30
0.0
 40
0.040376295110229
  0
CIRCLE
  5
389
330
70
100
AcDbEntity
  8
steel bars
100
AcDbCircle
 10
2.52159157170796
 20
0.501895675087578
 30
0.0
 40
0.040376295110229
  0
CIRCLE
  5
38A
330
70
100
AcDbEntity
  8
steel bars
100
AcDbCircle
 10
2.560611528852622
 20
0.3573947533940589
 30
0.0
 40
0.040376295110229
  0
CIRCLE
  5
38B
330
70
100
AcDbEntity
  8
steel bars
100
AcDbCircle
 10
2.383873525671325
 20
0.2450047190930289
 30
0.0
 40
0.040376295110229
  0
CIRCLE
  5
38C
330
70
100
AcDbEntity
  8
steel bars
100
AcDbCircle
 10
2.113026709991109
 20
0.2174809176682648
 30
0.0
 40
0.040376295110229
  0
CIRCLE
  5
38D
330
70
100
AcDbEntity
  8
steel bars
100
AcDbCircle
 10
1.904154418118413
 20
0.1555520430580639
 30
0.0
 40
0.040376295110229
  0
LWPOLYLINE
  5
398
330
70
100
AcDbEntity
  8
concrete
 62
     3
100
AcDbPolyline
 90
        6
 70
     1
 43
0.0
 10
2.432200000000023
 20
0.3874999999999868
 10
0.2600000000000462
 20
0.3874999999999868
 10
0.2599999999999911
 20
0.4718304167490139
 10
1.125210701572822
 20
1.550000000000006
 10
1.566989298427128
 20
1.549999999999954
 10
2.432200000000023
 20
0.4718304167490699
  0
ENDSEC
  0
SECTION
  2
OBJECTS
  0
DICTIONARY
  5
C
330
0
100
AcDbDictionary
281
     1
  3
ACAD_CIP_PREVIOUS_PRODUCT_INFO
350
7E
  3
ACAD_COLOR
350
63
  3
ACAD_DETAILVIEWSTYLE
350
6A
  3
ACAD_GROUP
350
D
  3
ACAD_LAYOUT
350
62
  3
ACAD_MATERIAL
350
10
  3
ACAD_MLEADERSTYLE
350
66
  3
ACAD_MLINESTYLE
350
5F
  3
ACAD_PLOTSETTINGS
350
61
  3
ACAD_PLOTSTYLENAME
350
E
  3
ACAD_SCALELIST
350
42
  3
ACAD_SECTIONVIEWSTYLE
350
68
  3
ACAD_TABLESTYLE
350
64
  3
ACAD_VISUALSTYLE
350
29
  3
ACDB_RECOMPOSE_DATA
350
443
  3
AcDbVariableDictionary
350
78
  0
DICTIONARY
  5
F4
330
2
100
AcDbDictionary
280
     1
281
     1
  3
ACAD_LAYERSTATES
360
F5
  0
DICTIONARY
  5
EB
330
EA
100
AcDbDictionary
280
     1
281
     1
  0
DICTIONARY
  5
89
330
70
100
AcDbDictionary
280
     1
281
     1
  3
ACAD_SORTENTS
360
8A
  0
XRECORD
  5
7E
102
{ACAD_REACTORS
330
C
102
}
330
C
100
AcDbXrecord
280
     1
300
ACD
300
2022
300

  0
DICTIONARY
  5
63
102
{ACAD_REACTORS
330
C
102
}
330
C
100
AcDbDictionary
281
     1
  0
DICTIONARY
  5
6A
102
{ACAD_REACTORS
330
C
102
}
330
C
100
AcDbDictionary
281
     1
  3
Metric50
350
6B
  0
DICTIONARY
  5
D
102
{ACAD_REACTORS
330
C
102
}
330
C
100
AcDbDictionary
281
     1
  0
DICTIONARY
  5
62
102
{ACAD_REACTORS
330
C
102
}
330
C
100
AcDbDictionary
281
     1
  3
Layout1
350
6F
  3
Layout2
350
77
  3
Model
350
73
  0
DICTIONARY
  5
10
102
{ACAD_REACTORS
330
C
102
}
330
C
100
AcDbDictionary
281
     1
  3
ByBlock
350
19
  3
ByLayer
350
11
  3
Global
350
21
  0
DICTIONARY
  5
66
102
{ACAD_REACTORS
330
C
102
}
330
C
100
AcDbDictionary
281
     1
  3
Standard
350
67
  0
DICTIONARY
  5
5F
102
{ACAD_REACTORS
330
C
102
}
330
C
100
AcDbDictionary
281
     1
  3
Standard
350
60
  0
DICTIONARY
  5
61
102
{ACAD_REACTORS
330
C
102
}
330
C
100
AcDbDictionary
281
     1
  0
ACDBDICTIONARYWDFLT
  5
E
102
{ACAD_REACTORS
330
C
102
}
330
C
100
AcDbDictionary
281
     1
  3
Normal
350
F
100
AcDbDictionaryWithDefault
340
F
  0
DICTIONARY
  5
42
102
{ACAD_REACTORS
330
C
102
}
330
C
100
AcDbDictionary
281
     1
  3
A0
350
43
  3
A1
350
44
  3
A2
350
45
  3
A3
350
46
  3
A4
350
47
  3
A5
350
48
  3
A6
350
49
  3
A7
350
4A
  3
A8
350
4B
  3
A9
350
4C
  3
B0
350
4D
  3
B1
350
4E
  3
B2
350
4F
  3
B3
350
50
  3
B4
350
51
  3
B5
350
52
  3
B6
350
53
  0
DICTIONARY
  5
68
102
{ACAD_REACTORS
330
C
102
}
330
C
100
AcDbDictionary
281
     1
  3
Metric50
350
69
  0
DICTIONARY
  5
64
102
{ACAD_REACTORS
330
C
102
}
330
C
100
AcDbDictionary
281
     1
  3
Standard
350
65
  0
DICTIONARY
  5
29
102
{ACAD_REACTORS
330
C
102
}
330
C
100
AcDbDictionary
281
     1
  3
2dWireframe
350
2F
  3
Basic
350
2E
  3
Brighten
350
35
  3
ColorChange
350
39
  3
Conceptual
350
32
  3
Dim
350
34
  3
EdgeColorOff
350
41
  3
Facepattern
350
38
  3
Flat
350
2A
  3
FlatWithEdges
350
2B
  3
Gouraud
350
2C
  3
GouraudWithEdges
350
2D
  3
Hidden
350
31
  3
JitterOff
350
3F
  3
Linepattern
350
37
  3
OverhangOff
350
40
  3
Realistic
350
33
  3
Shaded
350
3E
  3
Shaded with edges
350
3D
  3
Shades of Gray
350
3A
  3
Sketchy
350
3B
  3
Thicken
350
36
  3
Wireframe
350
30
  3
X-Ray
350
3C
  0
XRECORD
  5
443
102
{ACAD_REACTORS
330
C
102
}
330
C
100
AcDbXrecord
280
     1
 90
        1
330
65
  0
DICTIONARY
  5
78
102
{ACAD_REACTORS
330
C
102
}
330
C
100
AcDbDictionary
281
     1
  3
CANNOSCALE
350
98
  3
CENTEREXE
350
79
  3
CENTERLTYPEFILE
350
7A
  3
CMLEADERSTYLE
350
95
  3
CTABLESTYLE
350
94
  3
CVIEWDETAILSTYLE
350
96
  3
CVIEWSECTIONSTYLE
350
97
  0
DICTIONARY
  5
F5
102
{ACAD_REACTORS
330
F4
102
}
330
F4
100
AcDbDictionary
281
     1
  0
SORTENTSTABLE
  5
8A
102
{ACAD_REACTORS
330
89
102
}
330
89
100
AcDbSortentsTable
330
70
  0
ACDBDETAILVIEWSTYLE
  5
6B
102
{ACAD_XDICTIONARY
360
446
102
}
102
{ACAD_REACTORS
330
6A
102
}
330
6A
100
AcDbModelDocViewStyle
 70
     0
  3
Metric50
290
     0
100
AcDbDetailViewStyle
 70
     0
 71
     0
 90
        3
 71
     1
340
55
 62
   256
 40
5.0
340
0
 62
   256
 40
5.0
300

 40
0.36
280
     1
 71
     2
340
5D
 90
       25
 62
   256
 71
     3
340
55
 62
   256
 40
5.0
 90
        0
 40
15.0
 90
        1
300
%<\AcVar ViewDetailId>% (%<\AcVar ViewScale \f "%sn">%)
 71
     4
340
5D
 90
       25
 62
   256
340
5D
 90
       25
 62
   256
280
     0
  0
LAYOUT
  5
6F
102
{ACAD_REACTORS
330
62
102
}
330
62
100
AcDbPlotSettings
  1

  2
None
  4

  6

 40
0.0
 41
0.0
 42
0.0
 43
0.0
 44
0.0
 45
0.0
 46
0.0
 47
0.0
 48
0.0
 49
0.0
140
0.0
141
0.0
142
1.0
143
1.0
 70
   688
 72
     0
 73
     0
 74
     5
  7

 75
    16
147
1.0
 76
     0
 77
     2
 78
   300
148
0.0
149
0.0
100
AcDbLayout
  1
Layout1
 70
     1
 71
     1
 10
0.0
 20
0.0
 11
420.0
 21
297.0
 12
0.0
 22
0.0
 32
0.0
 14
1.000000000000000E+20
 24
1.000000000000000E+20
 34
1.000000000000000E+20
 15
-1.000000000000000E+20
 25
-1.000000000000000E+20
 35
-1.000000000000000E+20
146
0.0
 13
0.0
 23
0.0
 33
0.0
 16
1.0
 26
0.0
 36
0.0
 17
0.0
 27
1.0
 37
0.0
 76
     0
330
6C
  0
LAYOUT
  5
77
102
{ACAD_REACTORS
330
62
102
}
330
62
100
AcDbPlotSettings
  1

  2
None
  4

  6

 40
0.0
 41
0.0
 42
0.0
 43
0.0
 44
0.0
 45
0.0
 46
0.0
 47
0.0
 48
0.0
 49
0.0
140
0.0
141
0.0
142
1.0
143
1.0
 70
   688
 72
     0
 73
     0
 74
     5
  7

 75
    16
147
1.0
 76
     0
 77
     2
 78
   300
148
0.0
149
0.0
100
AcDbLayout
  1
Layout2
 70
     1
 71
     2
 10
0.0
 20
0.0
 11
12.0
 21
9.0
 12
0.0
 22
0.0
 32
0.0
 14
0.0
 24
0.0
 34
0.0
 15
0.0
 25
0.0
 35
0.0
146
0.0
 13
0.0
 23
0.0
 33
0.0
 16
1.0
 26
0.0
 36
0.0
 17
0.0
 27
1.0
 37
0.0
 76
     0
330
74
  0
LAYOUT
  5
73
102
{ACAD_REACTORS
330
62
102
}
330
62
100
AcDbPlotSettings
  1

  2
None
  4

  6

 40
0.0
 41
0.0
 42
0.0
 43
0.0
 44
0.0
 45
0.0
 46
0.0
 47
0.0
 48
0.0
 49
0.0
140
0.0
141
0.0
142
1.0
143
1.0
 70
  1712
 72
     0
 73
     0
 74
     0
  7

 75
     0
147
1.0
 76
     0
 77
     2
 78
   300
148
0.0
149
0.0
100
AcDbLayout
  1
Model
 70
     1
 71
     0
 10
0.0
 20
0.0
 11
12.0
 21
9.0
 12
0.0
 22
0.0
 32
0.0
 14
0.0
 24
0.0
 34
0.0
 15
0.0
 25
0.0
 35
0.0
146
0.0
 13
0.0
 23
0.0
 33
0.0
 16
1.0
 26
0.0
 36
0.0
 17
0.0
 27
1.0
 37
0.0
 76
     0
330
70
331
57
  0
MATERIAL
  5
19
102
{ACAD_XDICTIONARY
360
1A
102
}
102
{ACAD_REACTORS
330
10
102
}
330
10
100
AcDbMaterial
  1
ByBlock
 72
     0
 43
0.0208333333333333
 43
0.0
 43
0.0
 43
0.0
 43
0.0
 43
0.0208333333333333
 43
0.0
 43
0.0
 43
0.0
 43
0.0
 43
1.0
 43
0.0
 43
0.0
 43
0.0
 43
0.0
 43
1.0
 77
     0
 47
0.0208333333333333
 47
0.0
 47
0.0
 47
0.0
 47
0.0
 47
0.0208333333333333
 47
0.0
 47
0.0
 47
0.0
 47
0.0
 47
1.0
 47
0.0
 47
0.0
 47
0.0
 47
0.0
 47
1.0
171
     0
 49
0.0208333333333333
 49
0.0
 49
0.0
 49
0.0
 49
0.0
 49
0.0208333333333333
 49
0.0
 49
0.0
 49
0.0
 49
0.0
 49
1.0
 49
0.0
 49
0.0
 49
0.0
 49
0.0
 49
1.0
175
     0
142
0.0208333333333333
142
0.0
142
0.0
142
0.0
142
0.0
142
0.0208333333333333
142
0.0
142
0.0
142
0.0
142
0.0
142
1.0
142
0.0
142
0.0
142
0.0
142
0.0
142
1.0
179
     0
144
0.0208333333333333
144
0.0
144
0.0
144
0.0
144
0.0
144
0.0208333333333333
144
0.0
144
0.0
144
0.0
144
0.0
144
1.0
144
0.0
144
0.0
144
0.0
144
0.0
144
1.0
147
0.0208333333333333
147
0.0
147
0.0
147
0.0
147
0.0
147
0.0208333333333333
147
0.0
147
0.0
147
0.0
147
0.0
147
1.0
147
0.0
147
0.0
147
0.0
147
0.0
147
1.0
  0
MATERIAL
  5
11
102
{ACAD_XDICTIONARY
360
12
102
}
102
{ACAD_REACTORS
330
10
102
}
330
10
100
AcDbMaterial
  1
ByLayer
 72
     0
 43
0.0208333333333333
 43
0.0
 43
0.0
 43
0.0
 43
0.0
 43
0.0208333333333333
 43
0.0
 43
0.0
 43
0.0
 43
0.0
 43
1.0
 43
0.0
 43
0.0
 43
0.0
 43
0.0
 43
1.0
 77
     0
 47
0.0208333333333333
 47
0.0
 47
0.0
 47
0.0
 47
0.0
 47
0.0208333333333333
 47
0.0
 47
0.0
 47
0.0
 47
0.0
 47
1.0
 47
0.0
 47
0.0
 47
0.0
 47
0.0
 47
1.0
171
     0
 49
0.0208333333333333
 49
0.0
 49
0.0
 49
0.0
 49
0.0
 49
0.0208333333333333
 49
0.0
 49
0.0
 49
0.0
 49
0.0
 49
1.0
 49
0.0
 49
0.0
 49
0.0
 49
0.0
 49
1.0
175
     0
142
0.0208333333333333
142
0.0
142
0.0
142
0.0
142
0.0
142
0.0208333333333333
142
0.0
142
0.0
142
0.0
142
0.0
142
1.0
142
0.0
142
0.0
142
0.0
142
0.0
142
1.0
179
     0
144
0.0208333333333333
144
0.0
144
0.0
144
0.0
144
0.0
144
0.0208333333333333
144
0.0
144
0.0
144
0.0
144
0.0
144
1.0
144
0.0
144
0.0
144
0.0
144
0.0
144
1.0
147
0.0208333333333333
147
0.0
147
0.0
147
0.0
147
0.0
147
0.0208333333333333
147
0.0
147
0.0
147
0.0
147
0.0
147
1.0
147
0.0
147
0.0
147
0.0
147
0.0
147
1.0
  0
MATERIAL
  5
21
102
{ACAD_XDICTIONARY
360
22
102
}
102
{ACAD_REACTORS
330
10
102
}
330
10
100
AcDbMaterial
  1
Global
 72
     0
 43
0.0208333333333333
 43
0.0
 43
0.0
 43
0.0
 43
0.0
 43
0.0208333333333333
 43
0.0
 43
0.0
 43
0.0
 43
0.0
 43
1.0
 43
0.0
 43
0.0
 43
0.0
 43
0.0
 43
1.0
 77
     0
 47
0.0208333333333333
 47
0.0
 47
0.0
 47
0.0
 47
0.0
 47
0.0208333333333333
 47
0.0
 47
0.0
 47
0.0
 47
0.0
 47
1.0
 47
0.0
 47
0.0
 47
0.0
 47
0.0
 47
1.0
171
     0
 49
0.0208333333333333
 49
0.0
 49
0.0
 49
0.0
 49
0.0
 49
0.0208333333333333
 49
0.0
 49
0.0
 49
0.0
 49
0.0
 49
1.0
 49
0.0
 49
0.0
 49
0.0
 49
0.0
 49
1.0
175
     0
142
0.0208333333333333
142
0.0
142
0.0
142
0.0
142
0.0
142
0.0208333333333333
142
0.0
142
0.0
142
0.0
142
0.0
142
1.0
142
0.0
142
0.0
142
0.0
142
0.0
142
1.0
179
     0
144
0.0208333333333333
144
0.0
144
0.0
144
0.0
144
0.0
144
0.0208333333333333
144
0.0
144
0.0
144
0.0
144
0.0
144
1.0
144
0.0
144
0.0
144
0.0
144
0.0
144
1.0
147
0.0208333333333333
147
0.0
147
0.0
147
0.0
147
0.0
147
0.0208333333333333
147
0.0
147
0.0
147
0.0
147
0.0
147
1.0
147
0.0
147
0.0
147
0.0
147
0.0
147
1.0
  0
MLEADERSTYLE
  5
67
102
{ACAD_REACTORS
330
66
102
}
330
66
100
AcDbMLeaderStyle
179
     2
170
     2
171
     1
172
     0
 90
        2
 40
0.0
 41
0.0
173
     1
 91
-1056964608
340
5B
 92
       -2
290
     1
 42
0.09
291
     1
 43
0.36
  3
Standard
 44
0.18
300

342
55
174
     1
178
     6
175
     1
176
     0
 93
-1056964608
 45
0.18
292
     0
297
     0
 46
0.18
 94
-1056964608
 47
1.0
 49
1.0
140
1.0
293
     1
141
0.0
294
     1
177
     0
142
1.0
295
     0
296
     0
143
0.125
271
     0
272
     9
273
     9
298
     1
  0
MLINESTYLE
  5
60
102
{ACAD_REACTORS
330
5F
102
}
330
5F
100
AcDbMlineStyle
  2
STANDARD
 70
     0
  3

 62
   256
 51
90.0
 52
90.0
 71
     2
 49
0.5
 62
   256
  6
BYLAYER
 49
-0.5
 62
   256
  6
BYLAYER
  0
ACDBPLACEHOLDER
  5
F
102
{ACAD_REACTORS
330
E
102
}
330
E
  0
SCALE
  5
43
102
{ACAD_REACTORS
330
42
102
}
330
42
100
AcDbScale
 70
     0
300
1:1
140
1.0
141
1.0
290
     1
  0
SCALE
  5
44
102
{ACAD_REACTORS
330
42
102
}
330
42
100
AcDbScale
 70
     0
300
1:2
140
1.0
141
2.0
290
     0
  0
SCALE
  5
45
102
{ACAD_REACTORS
330
42
102
}
330
42
100
AcDbScale
 70
     0
300
1:4
140
1.0
141
4.0
290
     0
  0
SCALE
  5
46
102
{ACAD_REACTORS
330
42
102
}
330
42
100
AcDbScale
 70
     0
300
1:5
140
1.0
141
5.0
290
     0
  0
SCALE
  5
47
102
{ACAD_REACTORS
330
42
102
}
330
42
100
AcDbScale
 70
     0
300
1:8
140
1.0
141
8.0
290
     0
  0
SCALE
  5
48
102
{ACAD_REACTORS
330
42
102
}
330
42
100
AcDbScale
 70
     0
300
1:10
140
1.0
141
10.0
290
     0
  0
SCALE
  5
49
102
{ACAD_REACTORS
330
42
102
}
330
42
100
AcDbScale
 70
     0
300
1:16
140
1.0
141
16.0
290
     0
  0
SCALE
  5
4A
102
{ACAD_REACTORS
330
42
102
}
330
42
100
AcDbScale
 70
     0
300
1:20
140
1.0
141
20.0
290
     0
  0
SCALE
  5
4B
102
{ACAD_REACTORS
330
42
102
}
330
42
100
AcDbScale
 70
     0
300
1:30
140
1.0
141
30.0
290
     0
  0
SCALE
  5
4C
102
{ACAD_REACTORS
330
42
102
}
330
42
100
AcDbScale
 70
     0
300
1:40
140
1.0
141
40.0
290
     0
  0
SCALE
  5
4D
102
{ACAD_REACTORS
330
42
102
}
330
42
100
AcDbScale
 70
     0
300
1:50
140
1.0
141
50.0
290
     0
  0
SCALE
  5
4E
102
{ACAD_REACTORS
330
42
102
}
330
42
100
AcDbScale
 70
     0
300
1:100
140
1.0
141
100.0
290
     0
  0
SCALE
  5
4F
102
{ACAD_REACTORS
330
42
102
}
330
42
100
AcDbScale
 70
     0
300
2:1
140
2.0
141
1.0
290
     0
  0
SCALE
  5
50
102
{ACAD_REACTORS
330
42
102
}
330
42
100
AcDbScale
 70
     0
300
4:1
140
4.0
141
1.0
290
     0
  0
SCALE
  5
51
102
{ACAD_REACTORS
330
42
102
}
330
42
100
AcDbScale
 70
     0
300
8:1
140
8.0
141
1.0
290
     0
  0
SCALE
  5
52
102
{ACAD_REACTORS
330
42
102
}
330
42
100
AcDbScale
 70
     0
300
10:1
140
10.0
141
1.0
290
     0
  0
SCALE
  5
53
102
{ACAD_REACTORS
330
42
102
}
330
42
100
AcDbScale
 70
     0
300
100:1
140
100.0
141
1.0
290
     0
  0
ACDBSECTIONVIEWSTYLE
  5
69
102
{ACAD_XDICTIONARY
360
444
102
}
102
{ACAD_REACTORS
330
68
102
}
330
68
100
AcDbModelDocViewStyle
 70
     0
  3
Metric50
290
     0
100
AcDbSectionViewStyle
 70
     0
 71
     0
 90
      102
 71
     1
340
55
 62
   256
 40
5.0
340
0
340
0
 62
   256
 40
5.0
300
I, O, Q, S, X, Z
 40
10.0
 90
        0
 40
2.5
 90
        0
 71
     2
340
5D
 90
       25
 62
   256
340
5D
 90
       50
 62
   256
 40
5.0
 40
2.5
 40
5.0
 71
     3
340
55
 62
   256
 40
5.0
 90
        0
 40
15.0
 90
        1
300
%<\AcVar ViewSectionStartId>%-%<\AcVar ViewSectionEndId>% (%<\AcVar ViewScale \f "%sn">%)
 71
     4
 62
   256
 62
   257
300
ANSI31
 40
1.0
 90
        0
290
     0
290
     0
 90
        6
 40
0.0
 40
1.570796326794896
 40
0.2617993877991494
 40
1.308996938995747
 40
-0.2617993877991494
 40
1.832595714594044
  0
TABLESTYLE
  5
65
102
{ACAD_XDICTIONARY
360
99
102
}
102
{ACAD_REACTORS
330
64
102
}
330
64
100
AcDbTableStyle
280
     0
  3
Standard
 70
     0
 71
     0
 40
1.5
 41
1.5
280
     0
281
     0
  7
Standard
140
4.5
170
     2
 62
     0
 63
     7
283
     0
 90
      512
 91
        0
  1

274
    -2
284
     1
 64
     0
275
    -2
285
     1
 65
     0
276
    -2
286
     1
 66
     0
277
    -2
287
     1
 67
     0
278
    -2
288
     1
 68
     0
279
    -2
289
     1
 69
     0
  7
Standard
140
6.0
170
     5
 62
     0
 63
     7
283
     0
 90
      512
 91
        0
  1

274
    -2
284
     1
 64
     0
275
    -2
285
     1
 65
     0
276
    -2
286
     1
 66
     0
277
    -2
287
     1
 67
     0
278
    -2
288
     1
 68
     0
279
    -2
289
     1
 69
     0
  7
Standard
140
4.5
170
     5
 62
     0
 63
     7
283
     0
 90
      512
 91
        0
  1

274
    -2
284
     1
 64
     0
275
    -2
285
     1
 65
     0
276
    -2
286
     1
 66
     0
277
    -2
287
     1
 67
     0
278
    -2
288
     1
 68
     0
279
    -2
289
     1
 69
     0
  0
VISUALSTYLE
  5
2F
102
{ACAD_REACTORS
330
29
102
}
330
29
100
AcDbVisualStyle
  2
2dWireframe
 70
     4
177
     3
291
     0
 70
    58
 90
        0
176
     1
 90
        2
176
     1
 90
        0
176
     1
 90
        0
176
     1
 40
0.6
176
     1
 40
30.0
176
     1
 62
     7
420
 16777215
176
     1
 90
        1
176
     1
 90
        4
176
     1
 62
     7
176
     1
 62
   257
176
     1
 90
        1
176
     1
 90
        1
176
     1
 40
1.0
176
     1
 90
        0
176
     1
 62
   257
176
     1
 40
1.0
176
     1
 90
        1
176
     1
 90
        6
176
     1
 90
        2
176
     1
 62
     7
176
     1
 90
        5
176
     1
 90
        0
176
     1
 90
        0
176
     1
290
     0
176
     1
 90
        1
176
     1
 40
0.0
176
     1
 90
        0
176
     1
290
     1
176
     1
290
     1
176
     1
290
     0
176
     1
290
     0
176
     1
290
     0
176
     1
290
     0
176
     1
290
     0
176
     1
290
     0
176
     1
290
     0
176
     1
 90
       50
176
     1
 40
0.0
176
     1
 40
1.0
176
     1
 90
        0
176
     1
 62
    18
176
     1
 90
       50
176
     1
 90
        3
176
     1
 62
     5
420
      255
176
     1
290
     0
176
     1
 90
       50
176
     1
 90
       50
176
     1
 90
       50
176
     1
290
     0
176
     1
 90
       50
176
     1
 62
   256
176
     0
 40
1.0
176
     0
 90
        2
176
     1
  1
strokes_ogs.tif
176
     1
290
     0
176
     1
 40
1.0
176
     1
 40
1.0
176
     1
1001
ACAD
1000
AcDbSavedByObjectVersion
1070
     0
  0
VISUALSTYLE
  5
2E
102
{ACAD_REACTORS
330
29
102
}
330
29
100
AcDbVisualStyle
  2
Basic
 70
     7
177
     3
291
     1
 70
    58
 90
        1
176
     1
 90
        0
176
     1
 90
        1
176
     1
 90
        0
176
     1
 40
0.6
176
     1
 40
30.0
176
     1
 62
     7
420
 16777215
176
     1
 90
        0
176
     1
 90
        4
176
     1
 62
     7
176
     1
 62
   257
176
     1
 90
        1
176
     1
 90
        1
176
     1
 40
1.0
176
     1
 90
        8
176
     1
 62
     7
176
     1
 40
1.0
176
     1
 90
        1
176
     1
 90
        6
176
     1
 90
        2
176
     1
 62
     7
176
     1
 90
        5
176
     1
 90
        0
176
     1
 90
        0
176
     1
290
     0
176
     1
 90
        1
176
     1
 40
0.0
176
     1
 90
        0
176
     1
290
     0
176
     1
290
     1
176
     1
290
     1
176
     1
290
     0
176
     1
290
     0
176
     1
290
     0
176
     1
290
     0
176
     1
290
     0
176
     1
290
     0
176
     1
 90
       50
176
     1
 40
0.0
176
     1
 40
1.0
176
     1
 90
        0
176
     1
 62
    18
176
     1
 90
       50
176
     1
 90
        3
176
     1
 62
     5
420
      255
176
     1
290
     0
176
     1
 90
       50
176
     1
 90
       50
176
     1
 90
       50
176
     1
290
     0
176
     1
 90
       50
176
     1
 62
   256
176
     0
 40
1.0
176
     0
 90
        2
176
     1
  1
strokes_ogs.tif
176
     1
290
     0
176
     1
 40
1.0
176
     1
 40
1.0
176
     1
1001
ACAD
1000
AcDbSavedByObjectVersion
1070
     0
  0
VISUALSTYLE
  5
35
102
{ACAD_REACTORS
330
29
102
}
330
29
100
AcDbVisualStyle
  2
Brighten
 70
    12
177
     3
291
     1
 70
    58
 90
        2
176
     1
 90
        2
176
     1
 90
        0
176
     1
 90
        0
176
     1
 40
0.6
176
     1
 40
30.0
176
     1
 62
     7
420
 16777215
176
     1
 90
        1
176
     1
 90
        4
176
     1
 62
     7
176
     1
 62
   257
176
     1
 90
        1
176
     1
 90
        1
176
     1
 40
1.0
176
     1
 90
        8
176
     1
 62
     7
176
     1
 40
1.0
176
     1
 90
        1
176
     1
 90
        6
176
     1
 90
        2
176
     1
 62
     7
176
     1
 90
        5
176
     1
 90
        0
176
     1
 90
        0
176
     1
290
     0
176
     1
 90
        1
176
     1
 40
50.0
176
     1
 90
        0
176
     1
290
     0
176
     1
290
     1
176
     1
290
     1
176
     1
290
     0
176
     1
290
     0
176
     1
290
     0
176
     1
290
     0
176
     1
290
     0
176
     1
290
     0
176
     1
 90
       50
176
     1
 40
0.0
176
     1
 40
1.0
176
     1
 90
        0
176
     1
 62
    18
176
     1
 90
       50
176
     1
 90
        3
176
     1
 62
     5
420
      255
176
     1
290
     0
176
     1
 90
       50
176
     1
 90
       50
176
     1
 90
       50
176
     1
290
     0
176
     1
 90
       50
176
     1
 62
   256
176
     0
 40
1.0
176
     0
 90
        2
176
     1
  1
strokes_ogs.tif
176
     1
290
     0
176
     1
 40
1.0
176
     1
 40
1.0
176
     1
1001
ACAD
1000
AcDbSavedByObjectVersion
1070
     0
  0
VISUALSTYLE
  5
39
102
{ACAD_REACTORS
330
29
102
}
330
29
100
AcDbVisualStyle
  2
ColorChange
 70
    16
177
     3
291
     1
 70
    58
 90
        2
176
     1
 90
        2
176
     1
 90
        3
176
     1
 90
        0
176
     1
 40
0.6
176
     1
 40
30.0
176
     1
 62
     8
420
  8421504
176
     1
 90
        1
176
     1
 90
        4
176
     1
 62
     7
176
     1
 62
   257
176
     1
 90
        1
176
     1
 90
        1
176
     1
 40
1.0
176
     1
 90
        8
176
     1
 62
     8
420
  8421504
176
     1
 40
1.0
176
     1
 90
        1
176
     1
 90
        6
176
     1
 90
        2
176
     1
 62
     7
176
     1
 90
        5
176
     1
 90
        0
176
     1
 90
        0
176
     1
290
     0
176
     1
 90
        1
176
     1
 40
0.0
176
     1
 90
        0
176
     1
290
     0
176
     1
290
     1
176
     1
290
     1
176
     1
290
     0
176
     1
290
     0
176
     1
290
     0
176
     1
290
     0
176
     1
290
     0
176
     1
290
     0
176
     1
 90
       50
176
     1
 40
0.0
176
     1
 40
1.0
176
     1
 90
        0
176
     1
 62
    18
176
     1
 90
       50
176
     1
 90
        3
176
     1
 62
     5
420
      255
176
     1
290
     0
176
     1
 90
       50
176
     1
 90
       50
176
     1
 90
       50
176
     1
290
     0
176
     1
 90
       50
176
     1
 62
   256
176
     0
 40
1.0
176
     0
 90
        2
176
     1
  1
strokes_ogs.tif
176
     1
290
     0
176
     1
 40
1.0
176
     1
 40
1.0
176
     1
1001
ACAD
1000
AcDbSavedByObjectVersion
1070
     0
  0
VISUALSTYLE
  5
32
102
{ACAD_REACTORS
330
29
102
}
330
29
100
AcDbVisualStyle
  2
Conceptual
 70
     9
177
     3
291
     0
 70
    58
 90
        3
176
     1
 90
        2
176
     1
 90
        0
176
     1
 90
        0
176
     1
 40
0.6
176
     1
 40
30.0
176
     1
 62
     7
420
 16777215
176
     1
 90
        2
176
     1
 90
        2
176
     1
 62
     7
176
     1
 62
   257
176
     1
 90
        1
176
     1
 90
        1
176
     1
 40
179.0
176
     1
 90
        8
176
     1
 62
     7
176
     1
 40
1.0
176
     1
 90
        1
176
     1
 90
        6
176
     1
 90
        2
176
     1
 62
     7
176
     1
 90
        3
176
     1
 90
        0
176
     1
 90
        0
176
     1
290
     0
176
     1
 90
        1
176
     1
 40
0.0
176
     1
 90
        0
176
     1
290
     0
176
     1
290
     1
176
     1
290
     1
176
     1
290
     0
176
     1
290
     0
176
     1
290
     0
176
     1
290
     0
176
     1
290
     0
176
     1
290
     0
176
     1
 90
       50
176
     1
 40
0.0
176
     1
 40
1.0
176
     1
 90
        0
176
     1
 62
    18
176
     1
 90
       50
176
     1
 90
        3
176
     1
 62
     5
420
      255
176
     1
290
     0
176
     1
 90
       50
176
     1
 90
       50
176
     1
 90
       50
176
     1
290
     0
176
     1
 90
       50
176
     1
 62
   256
176
     0
 40
1.0
176
     0
 90
        2
176
     1
  1
strokes_ogs.tif
176
     1
290
     0
176
     1
 40
1.0
176
     1
 40
1.0
176
     1
1001
ACAD
1000
AcDbSavedByObjectVersion
1070
     0
  0
VISUALSTYLE
  5
34
102
{ACAD_REACTORS
330
29
102
}
330
29
100
AcDbVisualStyle
  2
Dim
 70
    11
177
     3
291
     1
 70
    58
 90
        2
176
     1
 90
        2
176
     1
 90
        0
176
     1
 90
        0
176
     1
 40
0.6
176
     1
 40
30.0
176
     1
 62
     7
420
 16777215
176
     1
 90
        1
176
     1
 90
        4
176
     1
 62
     7
176
     1
 62
   257
176
     1
 90
        1
176
     1
 90
        1
176
     1
 40
1.0
176
     1
 90
        8
176
     1
 62
     7
176
     1
 40
1.0
176
     1
 90
        1
176
     1
 90
        6
176
     1
 90
        2
176
     1
 62
     7
176
     1
 90
        5
176
     1
 90
        0
176
     1
 90
        0
176
     1
290
     0
176
     1
 90
        1
176
     1
 40
-50.0
176
     1
 90
        0
176
     1
290
     0
176
     1
290
     1
176
     1
290
     1
176
     1
290
     0
176
     1
290
     0
176
     1
290
     0
176
     1
290
     0
176
     1
290
     0
176
     1
290
     0
176
     1
 90
       50
176
     1
 40
0.0
176
     1
 40
1.0
176
     1
 90
        0
176
     1
 62
    18
176
     1
 90
       50
176
     1
 90
        3
176
     1
 62
     5
420
      255
176
     1
290
     0
176
     1
 90
       50
176
     1
 90
       50
176
     1
 90
       50
176
     1
290
     0
176
     1
 90
       50
176
     1
 62
   256
176
     0
 40
1.0
176
     0
 90
        2
176
     1
  1
strokes_ogs.tif
176
     1
290
     0
176
     1
 40
1.0
176
     1
 40
1.0
176
     1
1001
ACAD
1000
AcDbSavedByObjectVersion
1070
     0
  0
VISUALSTYLE
  5
41
102
{ACAD_REACTORS
330
29
102
}
330
29
100
AcDbVisualStyle
  2
EdgeColorOff
 70
    22
177
     3
291
     1
 70
    58
 90
        2
176
     0
 90
        2
176
     0
 90
        0
176
     0
 90
        0
176
     0
 40
0.6
176
     0
 40
30.0
176
     0
 62
     7
420
 16777215
176
     0
 90
        1
176
     0
 90
        4
176
     0
 62
     7
176
     0
 62
   257
176
     0
 90
        1
176
     0
 90
        1
176
     0
 40
1.0
176
     0
 90
        8
176
     2
 62
     7
176
     0
 40
1.0
176
     0
 90
        1
176
     0
 90
        6
176
     0
 90
        2
176
     0
 62
     7
176
     0
 90
        5
176
     0
 90
        0
176
     0
 90
        0
176
     0
290
     0
176
     0
 90
        1
176
     0
 40
0.0
176
     0
 90
        0
176
     0
290
     0
176
     0
290
     1
176
     0
290
     1
176
     0
290
     0
176
     0
290
     0
176
     0
290
     0
176
     0
290
     0
176
     0
290
     0
176
     0
290
     0
176
     0
 90
       50
176
     0
 40
0.0
176
     0
 40
1.0
176
     0
 90
        0
176
     0
 62
    18
176
     0
 90
       50
176
     0
 90
        3
176
     0
 62
     5
420
      255
176
     0
290
     0
176
     0
 90
       50
176
     0
 90
       50
176
     0
 90
       50
176
     0
290
     0
176
     0
 90
       50
176
     0
 62
   256
176
     0
 40
1.0
176
     0
 90
        2
176
     0
  1
strokes_ogs.tif
176
     0
290
     0
176
     0
 40
1.0
176
     0
 40
1.0
176
     0
1001
ACAD
1000
AcDbSavedByObjectVersion
1070
     0
  0
VISUALSTYLE
  5
38
102
{ACAD_REACTORS
330
29
102
}
330
29
100
AcDbVisualStyle
  2
Facepattern
 70
    15
177
     3
291
     1
 70
    58
 90
        2
176
     1
 90
        2
176
     1
 90
        0
176
     1
 90
        0
176
     1
 40
0.6
176
     1
 40
30.0
176
     1
 62
     7
420
 16777215
176
     1
 90
        1
176
     1
 90
        4
176
     1
 62
     7
176
     1
 62
   257
176
     1
 90
        1
176
     1
 90
        1
176
     1
 40
1.0
176
     1
 90
        8
176
     1
 62
     7
176
     1
 40
1.0
176
     1
 90
        1
176
     1
 90
        6
176
     1
 90
        2
176
     1
 62
     7
176
     1
 90
        5
176
     1
 90
        0
176
     1
 90
        0
176
     1
290
     0
176
     1
 90
        1
176
     1
 40
0.0
176
     1
 90
        0
176
     1
290
     0
176
     1
290
     1
176
     1
290
     1
176
     1
290
     0
176
     1
290
     0
176
     1
290
     0
176
     1
290
     0
176
     1
290
     0
176
     1
290
     0
176
     1
 90
       50
176
     1
 40
0.0
176
     1
 40
1.0
176
     1
 90
        0
176
     1
 62
    18
176
     1
 90
       50
176
     1
 90
        3
176
     1
 62
     5
420
      255
176
     1
290
     0
176
     1
 90
       50
176
     1
 90
       50
176
     1
 90
       50
176
     1
290
     0
176
     1
 90
       50
176
     1
 62
   256
176
     0
 40
1.0
176
     0
 90
        2
176
     1
  1
strokes_ogs.tif
176
     1
290
     0
176
     1
 40
1.0
176
     1
 40
1.0
176
     1
1001
ACAD
1000
AcDbSavedByObjectVersion
1070
     0
  0
VISUALSTYLE
  5
2A
102
{ACAD_REACTORS
330
29
102
}
330
29
100
AcDbVisualStyle
  2
Flat
 70
     0
177
     3
291
     1
 70
    58
 90
        2
176
     1
 90
        1
176
     1
 90
        1
176
     1
 90
        2
176
     1
 40
0.6
176
     1
 40
30.0
176
     1
 62
     7
420
 16777215
176
     1
 90
        0
176
     1
 90
        0
176
     1
 62
     7
176
     1
 62
   257
176
     1
 90
        1
176
     1
 90
        1
176
     1
 40
1.0
176
     1
 90
        8
176
     1
 62
     7
176
     1
 40
1.0
176
     1
 90
        1
176
     1
 90
        6
176
     1
 90
        2
176
     1
 62
     7
176
     1
 90
        5
176
     1
 90
        0
176
     1
 90
        0
176
     1
290
     0
176
     1
 90
       13
176
     1
 40
0.0
176
     1
 90
        0
176
     1
290
     0
176
     1
290
     1
176
     1
290
     1
176
     1
290
     0
176
     1
290
     0
176
     1
290
     0
176
     1
290
     0
176
     1
290
     0
176
     1
290
     0
176
     1
 90
       50
176
     1
 40
0.0
176
     1
 40
1.0
176
     1
 90
        0
176
     1
 62
    18
176
     1
 90
       50
176
     1
 90
        3
176
     1
 62
     5
420
      255
176
     1
290
     0
176
     1
 90
       50
176
     1
 90
       50
176
     1
 90
       50
176
     1
290
     0
176
     1
 90
       50
176
     1
 62
   256
176
     0
 40
1.0
176
     0
 90
        2
176
     1
  1
strokes_ogs.tif
176
     1
290
     0
176
     1
 40
1.0
176
     1
 40
1.0
176
     1
1001
ACAD
1000
AcDbSavedByObjectVersion
1070
     0
  0
VISUALSTYLE
  5
2B
102
{ACAD_REACTORS
330
29
102
}
330
29
100
AcDbVisualStyle
  2
FlatWithEdges
 70
     1
177
     3
291
     1
 70
    58
 90
        2
176
     1
 90
        1
176
     1
 90
        1
176
     1
 90
        2
176
     1
 40
0.6
176
     1
 40
30.0
176
     1
 62
     7
420
 16777215
176
     1
 90
        1
176
     1
 90
        0
176
     1
 62
     7
176
     1
 62
   257
176
     1
 90
        1
176
     1
 90
        1
176
     1
 40
1.0
176
     1
 90
        0
176
     1
 62
   257
176
     1
 40
1.0
176
     1
 90
        1
176
     1
 90
        6
176
     1
 90
        2
176
     1
 62
     7
176
     1
 90
        5
176
     1
 90
        0
176
     1
 90
        0
176
     1
290
     0
176
     1
 90
       13
176
     1
 40
0.0
176
     1
 90
        0
176
     1
290
     0
176
     1
290
     1
176
     1
290
     1
176
     1
290
     0
176
     1
290
     0
176
     1
290
     0
176
     1
290
     0
176
     1
290
     0
176
     1
290
     0
176
     1
 90
       50
176
     1
 40
0.0
176
     1
 40
1.0
176
     1
 90
        0
176
     1
 62
    18
176
     1
 90
       50
176
     1
 90
        3
176
     1
 62
     5
420
      255
176
     1
290
     0
176
     1
 90
       50
176
     1
 90
       50
176
     1
 90
       50
176
     1
290
     0
176
     1
 90
       50
176
     1
 62
   256
176
     0
 40
1.0
176
     0
 90
        2
176
     1
  1
strokes_ogs.tif
176
     1
290
     0
176
     1
 40
1.0
176
     1
 40
1.0
176
     1
1001
ACAD
1000
AcDbSavedByObjectVersion
1070
     0
  0
VISUALSTYLE
  5
2C
102
{ACAD_REACTORS
330
29
102
}
330
29
100
AcDbVisualStyle
  2
Gouraud
 70
     2
177
     3
291
     1
 70
    58
 90
        2
176
     1
 90
        2
176
     1
 90
        1
176
     1
 90
        2
176
     1
 40
0.6
176
     1
 40
30.0
176
     1
 62
     7
420
 16777215
176
     1
 90
        0
176
     1
 90
        0
176
     1
 62
     7
176
     1
 62
   257
176
     1
 90
        1
176
     1
 90
        1
176
     1
 40
1.0
176
     1
 90
        0
176
     1
 62
     7
176
     1
 40
1.0
176
     1
 90
        1
176
     1
 90
        6
176
     1
 90
        2
176
     1
 62
     7
176
     1
 90
        5
176
     1
 90
        0
176
     1
 90
        0
176
     1
290
     0
176
     1
 90
       13
176
     1
 40
0.0
176
     1
 90
        0
176
     1
290
     0
176
     1
290
     1
176
     1
290
     1
176
     1
290
     0
176
     1
290
     0
176
     1
290
     0
176
     1
290
     0
176
     1
290
     0
176
     1
290
     0
176
     1
 90
       50
176
     1
 40
0.0
176
     1
 40
1.0
176
     1
 90
        0
176
     1
 62
    18
176
     1
 90
       50
176
     1
 90
        3
176
     1
 62
     5
420
      255
176
     1
290
     0
176
     1
 90
       50
176
     1
 90
       50
176
     1
 90
       50
176
     1
290
     0
176
     1
 90
       50
176
     1
 62
   256
176
     0
 40
1.0
176
     0
 90
        2
176
     1
  1
strokes_ogs.tif
176
     1
290
     0
176
     1
 40
1.0
176
     1
 40
1.0
176
     1
1001
ACAD
1000
AcDbSavedByObjectVersion
1070
     0
  0
VISUALSTYLE
  5
2D
102
{ACAD_REACTORS
330
29
102
}
330
29
100
AcDbVisualStyle
  2
GouraudWithEdges
 70
     3
177
     3
291
     1
 70
    58
 90
        2
176
     1
 90
        2
176
     1
 90
        1
176
     1
 90
        2
176
     1
 40
0.6
176
     1
 40
30.0
176
     1
 62
     7
420
 16777215
176
     1
 90
        1
176
     1
 90
        0
176
     1
 62
     7
176
     1
 62
   257
176
     1
 90
        1
176
     1
 90
        1
176
     1
 40
1.0
176
     1
 90
        0
176
     1
 62
   257
176
     1
 40
1.0
176
     1
 90
        1
176
     1
 90
        6
176
     1
 90
        2
176
     1
 62
     7
176
     1
 90
        5
176
     1
 90
        0
176
     1
 90
        0
176
     1
290
     0
176
     1
 90
       13
176
     1
 40
0.0
176
     1
 90
        0
176
     1
290
     0
176
     1
290
     1
176
     1
290
     1
176
     1
290
     0
176
     1
290
     0
176
     1
290
     0
176
     1
290
     0
176
     1
290
     0
176
     1
290
     0
176
     1
 90
       50
176
     1
 40
0.0
176
     1
 40
1.0
176
     1
 90
        0
176
     1
 62
    18
176
     1
 90
       50
176
     1
 90
        3
176
     1
 62
     5
420
      255
176
     1
290
     0
176
     1
 90
       50
176
     1
 90
       50
176
     1
 90
       50
176
     1
290
     0
176
     1
 90
       50
176
     1
 62
   256
176
     0
 40
1.0
176
     0
 90
        2
176
     1
  1
strokes_ogs.tif
176
     1
290
     0
176
     1
 40
1.0
176
     1
 40
1.0
176
     1
1001
ACAD
1000
AcDbSavedByObjectVersion
1070
     0
  0
VISUALSTYLE
  5
31
102
{ACAD_REACTORS
330
29
102
}
330
29
100
AcDbVisualStyle
  2
Hidden
 70
     6
177
     3
291
     0
 70
    58
 90
        1
176
     1
 90
        2
176
     1
 90
        2
176
     1
 90
        0
176
     1
 40
0.6
176
     1
 40
30.0
176
     1
 62
     7
420
 16777215
176
     1
 90
        2
176
     1
 90
        2
176
     1
 62
     7
176
     1
 62
   257
176
     1
 90
        2
176
     1
 90
        1
176
     1
 40
40.0
176
     1
 90
        0
176
     1
 62
   257
176
     1
 40
1.0
176
     1
 90
        1
176
     1
 90
        6
176
     1
 90
        2
176
     1
 62
     7
176
     1
 90
        3
176
     1
 90
        0
176
     1
 90
        0
176
     1
290
     0
176
     1
 90
        1
176
     1
 40
0.0
176
     1
 90
        0
176
     1
290
     0
176
     1
290
     1
176
     1
290
     1
176
     1
290
     0
176
     1
290
     0
176
     1
290
     0
176
     1
290
     0
176
     1
290
     0
176
     1
290
     0
176
     1
 90
       50
176
     1
 40
0.0
176
     1
 40
1.0
176
     1
 90
        0
176
     1
 62
    18
176
     1
 90
       50
176
     1
 90
        3
176
     1
 62
     5
420
      255
176
     1
290
     0
176
     1
 90
       50
176
     1
 90
       50
176
     1
 90
       50
176
     1
290
     0
176
     1
 90
       50
176
     1
 62
   256
176
     0
 40
1.0
176
     0
 90
        2
176
     1
  1
strokes_ogs.tif
176
     1
290
     0
176
     1
 40
1.0
176
     1
 40
1.0
176
     1
1001
ACAD
1000
AcDbSavedByObjectVersion
1070
     0
  0
VISUALSTYLE
  5
3F
102
{ACAD_REACTORS
330
29
102
}
330
29
100
AcDbVisualStyle
  2
JitterOff
 70
    20
177
     3
291
     1
 70
    58
 90
        2
176
     0
 90
        2
176
     0
 90
        0
176
     0
 90
        0
176
     0
 40
0.6
176
     0
 40
30.0
176
     0
 62
     7
420
 16777215
176
     0
 90
        1
176
     0
 90
        4
176
     0
 62
     7
176
     0
 62
   257
176
     0
 90
        1
176
     0
 90
        1
176
     0
 40
1.0
176
     0
 90
       10
176
     2
 62
     7
176
     0
 40
1.0
176
     0
 90
        1
176
     0
 90
        6
176
     0
 90
        2
176
     0
 62
     7
176
     0
 90
        5
176
     0
 90
        0
176
     0
 90
        0
176
     0
290
     0
176
     0
 90
        1
176
     0
 40
0.0
176
     0
 90
        0
176
     0
290
     0
176
     0
290
     1
176
     0
290
     1
176
     0
290
     0
176
     0
290
     0
176
     0
290
     0
176
     0
290
     0
176
     0
290
     0
176
     0
290
     0
176
     0
 90
       50
176
     0
 40
0.0
176
     0
 40
1.0
176
     0
 90
        0
176
     0
 62
    18
176
     0
 90
       50
176
     0
 90
        3
176
     0
 62
     5
420
      255
176
     0
290
     0
176
     0
 90
       50
176
     0
 90
       50
176
     0
 90
       50
176
     0
290
     0
176
     0
 90
       50
176
     0
 62
   256
176
     0
 40
1.0
176
     0
 90
        2
176
     0
  1
strokes_ogs.tif
176
     0
290
     0
176
     0
 40
1.0
176
     0
 40
1.0
176
     0
1001
ACAD
1000
AcDbSavedByObjectVersion
1070
     0
  0
VISUALSTYLE
  5
37
102
{ACAD_REACTORS
330
29
102
}
330
29
100
AcDbVisualStyle
  2
Linepattern
 70
    14
177
     3
291
     1
 70
    58
 90
        2
176
     1
 90
        2
176
     1
 90
        0
176
     1
 90
        0
176
     1
 40
0.6
176
     1
 40
30.0
176
     1
 62
     7
420
 16777215
176
     1
 90
        1
176
     1
 90
        4
176
     1
 62
     7
176
     1
 62
   257
176
     1
 90
        7
176
     1
 90
        7
176
     1
 40
1.0
176
     1
 90
        8
176
     1
 62
     7
176
     1
 40
1.0
176
     1
 90
        1
176
     1
 90
        6
176
     1
 90
        2
176
     1
 62
     7
176
     1
 90
        5
176
     1
 90
        0
176
     1
 90
        0
176
     1
290
     0
176
     1
 90
        1
176
     1
 40
0.0
176
     1
 90
        0
176
     1
290
     0
176
     1
290
     1
176
     1
290
     1
176
     1
290
     0
176
     1
290
     0
176
     1
290
     0
176
     1
290
     0
176
     1
290
     0
176
     1
290
     0
176
     1
 90
       50
176
     1
 40
0.0
176
     1
 40
1.0
176
     1
 90
        0
176
     1
 62
    18
176
     1
 90
       50
176
     1
 90
        3
176
     1
 62
     5
420
      255
176
     1
290
     0
176
     1
 90
       50
176
     1
 90
       50
176
     1
 90
       50
176
     1
290
     0
176
     1
 90
       50
176
     1
 62
   256
176
     0
 40
1.0
176
     0
 90
        2
176
     1
  1
strokes_ogs.tif
176
     1
290
     0
176
     1
 40
1.0
176
     1
 40
1.0
176
     1
1001
ACAD
1000
AcDbSavedByObjectVersion
1070
     0
  0
VISUALSTYLE
  5
40
102
{ACAD_REACTORS
330
29
102
}
330
29
100
AcDbVisualStyle
  2
OverhangOff
 70
    21
177
     3
291
     1
 70
    58
 90
        2
176
     0
 90
        2
176
     0
 90
        0
176
     0
 90
        0
176
     0
 40
0.6
176
     0
 40
30.0
176
     0
 62
     7
420
 16777215
176
     0
 90
        1
176
     0
 90
        4
176
     0
 62
     7
176
     0
 62
   257
176
     0
 90
        1
176
     0
 90
        1
176
     0
 40
1.0
176
     0
 90
        9
176
     2
 62
     7
176
     0
 40
1.0
176
     0
 90
        1
176
     0
 90
        6
176
     0
 90
        2
176
     0
 62
     7
176
     0
 90
        5
176
     0
 90
        0
176
     0
 90
        0
176
     0
290
     0
176
     0
 90
        1
176
     0
 40
0.0
176
     0
 90
        0
176
     0
290
     0
176
     0
290
     1
176
     0
290
     1
176
     0
290
     0
176
     0
290
     0
176
     0
290
     0
176
     0
290
     0
176
     0
290
     0
176
     0
290
     0
176
     0
 90
       50
176
     0
 40
0.0
176
     0
 40
1.0
176
     0
 90
        0
176
     0
 62
    18
176
     0
 90
       50
176
     0
 90
        3
176
     0
 62
     5
420
      255
176
     0
290
     0
176
     0
 90
       50
176
     0
 90
       50
176
     0
 90
       50
176
     0
290
     0
176
     0
 90
       50
176
     0
 62
   256
176
     0
 40
1.0
176
     0
 90
        2
176
     0
  1
strokes_ogs.tif
176
     0
290
     0
176
     0
 40
1.0
176
     0
 40
1.0
176
     0
1001
ACAD
1000
AcDbSavedByObjectVersion
1070
     0
  0
VISUALSTYLE
  5
33
102
{ACAD_REACTORS
330
29
102
}
330
29
100
AcDbVisualStyle
  2
Realistic
 70
     8
177
     3
291
     0
 70
    58
 90
        2
176
     1
 90
        3
176
     1
 90
        0
176
     1
 90
        2
176
     1
 40
0.6
176
     1
 40
30.0
176
     1
 62
     7
420
 16777215
176
     1
 90
        0
176
     1
 90
        0
176
     1
 62
     7
176
     1
 62
   257
176
     1
 90
        1
176
     1
 90
        1
176
     1
 40
1.0
176
     1
 90
        8
176
     1
 62
   257
176
     1
 40
1.0
176
     1
 90
        1
176
     1
 90
        6
176
     1
 90
        2
176
     1
 62
     7
176
     1
 90
        3
176
     1
 90
        0
176
     1
 90
        0
176
     1
290
     0
176
     1
 90
       13
176
     1
 40
0.0
176
     1
 90
        0
176
     1
290
     0
176
     1
290
     1
176
     1
290
     1
176
     1
290
     0
176
     1
290
     0
176
     1
290
     0
176
     1
290
     0
176
     1
290
     0
176
     1
290
     0
176
     1
 90
       50
176
     1
 40
0.0
176
     1
 40
1.0
176
     1
 90
        0
176
     1
 62
    18
176
     1
 90
       50
176
     1
 90
        3
176
     1
 62
     5
420
      255
176
     1
290
     0
176
     1
 90
       50
176
     1
 90
       50
176
     1
 90
       50
176
     1
290
     0
176
     1
 90
       50
176
     1
 62
   256
176
     0
 40
1.0
176
     0
 90
        2
176
     1
  1
strokes_ogs.tif
176
     1
290
     0
176
     1
 40
1.0
176
     1
 40
1.0
176
     1
1001
ACAD
1000
AcDbSavedByObjectVersion
1070
     0
  0
VISUALSTYLE
  5
3E
102
{ACAD_REACTORS
330
29
102
}
330
29
100
AcDbVisualStyle
  2
Shaded
 70
    27
177
     3
291
     0
 70
    58
 90
        2
176
     1
 90
        2
176
     1
 90
        1
176
     1
 90
        2
176
     1
 40
0.6
176
     1
 40
30.0
176
     1
 62
     7
420
 16777215
176
     1
 90
        0
176
     1
 90
        4
176
     1
 62
     7
176
     1
 62
   257
176
     1
 90
        1
176
     1
 90
        1
176
     1
 40
1.0
176
     1
 90
        8
176
     1
 62
   257
176
     1
 40
1.0
176
     1
 90
        1
176
     1
 90
        6
176
     1
 90
        2
176
     1
 62
     8
420
  7895160
176
     1
 90
        3
176
     1
 90
        0
176
     1
 90
        0
176
     1
290
     0
176
     1
 90
        5
176
     1
 40
0.0
176
     1
 90
        0
176
     1
290
     0
176
     1
290
     1
176
     1
290
     1
176
     1
290
     0
176
     1
290
     0
176
     1
290
     0
176
     1
290
     0
176
     1
290
     0
176
     1
290
     0
176
     1
 90
       50
176
     1
 40
0.0
176
     1
 40
1.0
176
     1
 90
        0
176
     1
 62
    18
176
     1
 90
       50
176
     1
 90
        3
176
     1
 62
     5
420
      255
176
     1
290
     0
176
     1
 90
       50
176
     1
 90
       50
176
     1
 90
       50
176
     1
290
     0
176
     1
 90
       50
176
     1
 62
   256
176
     0
 40
1.0
176
     0
 90
        2
176
     1
  1
strokes_ogs.tif
176
     1
290
     0
176
     1
 40
1.0
176
     1
 40
1.0
176
     1
1001
ACAD
1000
AcDbSavedByObjectVersion
1070
     0
  0
VISUALSTYLE
  5
3D
102
{ACAD_REACTORS
330
29
102
}
330
29
100
AcDbVisualStyle
  2
Shaded with edges
 70
    26
177
     3
291
     0
 70
    58
 90
        2
176
     1
 90
        2
176
     1
 90
        1
176
     1
 90
        2
176
     1
 40
0.6
176
     1
 40
30.0
176
     1
 62
     7
420
 16777215
176
     1
 90
        1
176
     1
 90
        2
176
     1
 62
     7
176
     1
 62
   257
176
     1
 90
        2
176
     1
 90
        1
176
     1
 40
1.0
176
     1
 90
        8
176
     1
 62
   257
176
     1
 40
1.0
176
     1
 90
        1
176
     1
 90
        6
176
     1
 90
        2
176
     1
 62
     7
176
     1
 90
        3
176
     1
 90
        0
176
     1
 90
        0
176
     1
290
     0
176
     1
 90
        5
176
     1
 40
0.0
176
     1
 90
        0
176
     1
290
     0
176
     1
290
     1
176
     1
290
     1
176
     1
290
     0
176
     1
290
     0
176
     1
290
     0
176
     1
290
     0
176
     1
290
     0
176
     1
290
     0
176
     1
 90
       50
176
     1
 40
0.0
176
     1
 40
1.0
176
     1
 90
        0
176
     1
 62
    18
176
     1
 90
       50
176
     1
 90
        3
176
     1
 62
     5
420
      255
176
     1
290
     0
176
     1
 90
       50
176
     1
 90
       50
176
     1
 90
       50
176
     1
290
     0
176
     1
 90
       50
176
     1
 62
   256
176
     0
 40
1.0
176
     0
 90
        2
176
     1
  1
strokes_ogs.tif
176
     1
290
     0
176
     1
 40
1.0
176
     1
 40
1.0
176
     1
1001
ACAD
1000
AcDbSavedByObjectVersion
1070
     0
  0
VISUALSTYLE
  5
3A
102
{ACAD_REACTORS
330
29
102
}
330
29
100
AcDbVisualStyle
  2
Shades of Gray
 70
    23
177
     3
291
     0
 70
    58
 90
        2
176
     1
 90
        2
176
     1
 90
        3
176
     1
 90
        0
176
     1
 40
0.6
176
     1
 40
30.0
176
     1
 62
     7
420
 16777215
176
     1
 90
        2
176
     1
 90
        2
176
     1
 62
     7
176
     1
 62
     7
176
     1
 90
        1
176
     1
 90
        1
176
     1
 40
40.0
176
     1
 90
        8
176
     1
 62
     7
176
     1
 40
1.0
176
     1
 90
        1
176
     1
 90
        6
176
     1
 90
        2
176
     1
 62
     7
176
     1
 90
        3
176
     1
 90
        0
176
     1
 90
        0
176
     1
290
     0
176
     1
 90
        1
176
     1
 40
0.0
176
     1
 90
        0
176
     1
290
     0
176
     1
290
     1
176
     1
290
     1
176
     1
290
     0
176
     1
290
     0
176
     1
290
     0
176
     1
290
     0
176
     1
290
     0
176
     1
290
     0
176
     1
 90
       50
176
     1
 40
0.0
176
     1
 40
1.0
176
     1
 90
        0
176
     1
 62
    18
176
     1
 90
       50
176
     1
 90
        3
176
     1
 62
     5
420
      255
176
     1
290
     0
176
     1
 90
       50
176
     1
 90
       50
176
     1
 90
       50
176
     1
290
     0
176
     1
 90
       50
176
     1
 62
   256
176
     0
 40
1.0
176
     0
 90
        2
176
     1
  1
strokes_ogs.tif
176
     1
290
     0
176
     1
 40
1.0
176
     1
 40
1.0
176
     1
1001
ACAD
1000
AcDbSavedByObjectVersion
1070
     0
  0
VISUALSTYLE
  5
3B
102
{ACAD_REACTORS
330
29
102
}
330
29
100
AcDbVisualStyle
  2
Sketchy
 70
    24
177
     3
291
     0
 70
    58
 90
        1
176
     1
 90
        2
176
     1
 90
        2
176
     1
 90
        0
176
     1
 40
0.6
176
     1
 40
30.0
176
     1
 62
     7
420
 16777215
176
     1
 90
        2
176
     1
 90
        2
176
     1
 62
     7
176
     1
 62
     7
176
     1
 90
        1
176
     1
 90
        1
176
     1
 40
40.0
176
     1
 90
       11
176
     1
 62
     7
176
     1
 40
1.0
176
     1
 90
        1
176
     1
 90
        6
176
     1
 90
        2
176
     1
 62
     7
176
     1
 90
        6
176
     1
 90
        0
176
     1
 90
        0
176
     1
290
     0
176
     1
 90
        1
176
     1
 40
0.0
176
     1
 90
        0
176
     1
290
     0
176
     1
290
     1
176
     1
290
     1
176
     1
290
     0
176
     1
290
     0
176
     1
290
     0
176
     1
290
     0
176
     1
290
     0
176
     1
290
     0
176
     1
 90
       50
176
     1
 40
0.0
176
     1
 40
1.0
176
     1
 90
        0
176
     1
 62
    18
176
     1
 90
       50
176
     1
 90
        3
176
     1
 62
     5
420
      255
176
     1
290
     0
176
     1
 90
       50
176
     1
 90
       50
176
     1
 90
       50
176
     1
290
     0
176
     1
 90
       50
176
     1
 62
   256
176
     0
 40
1.0
176
     0
 90
        2
176
     1
  1
strokes_ogs.tif
176
     1
290
     0
176
     1
 40
1.0
176
     1
 40
1.0
176
     1
1001
ACAD
1000
AcDbSavedByObjectVersion
1070
     0
  0
VISUALSTYLE
  5
36
102
{ACAD_REACTORS
330
29
102
}
330
29
100
AcDbVisualStyle
  2
Thicken
 70
    13
177
     3
291
     1
 70
    58
 90
        2
176
     1
 90
        2
176
     1
 90
        0
176
     1
 90
        0
176
     1
 40
0.6
176
     1
 40
30.0
176
     1
 62
     7
420
 16777215
176
     1
 90
        1
176
     1
 90
        4
176
     1
 62
     7
176
     1
 62
   257
176
     1
 90
        1
176
     1
 90
        1
176
     1
 40
1.0
176
     1
 90
       12
176
     1
 62
     7
176
     1
 40
1.0
176
     1
 90
        1
176
     1
 90
        6
176
     1
 90
        2
176
     1
 62
     7
176
     1
 90
        5
176
     1
 90
        0
176
     1
 90
        0
176
     1
290
     0
176
     1
 90
        1
176
     1
 40
0.0
176
     1
 90
        0
176
     1
290
     0
176
     1
290
     1
176
     1
290
     1
176
     1
290
     0
176
     1
290
     0
176
     1
290
     0
176
     1
290
     0
176
     1
290
     0
176
     1
290
     0
176
     1
 90
       50
176
     1
 40
0.0
176
     1
 40
1.0
176
     1
 90
        0
176
     1
 62
    18
176
     1
 90
       50
176
     1
 90
        3
176
     1
 62
     5
420
      255
176
     1
290
     0
176
     1
 90
       50
176
     1
 90
       50
176
     1
 90
       50
176
     1
290
     0
176
     1
 90
       50
176
     1
 62
   256
176
     0
 40
1.0
176
     0
 90
        2
176
     1
  1
strokes_ogs.tif
176
     1
290
     0
176
     1
 40
1.0
176
     1
 40
1.0
176
     1
1001
ACAD
1000
AcDbSavedByObjectVersion
1070
     0
  0
VISUALSTYLE
  5
30
102
{ACAD_REACTORS
330
29
102
}
330
29
100
AcDbVisualStyle
  2
Wireframe
 70
     5
177
     3
291
     0
 70
    58
 90
        0
176
     1
 90
        2
176
     1
 90
        0
176
     1
 90
        0
176
     1
 40
0.6
176
     1
 40
30.0
176
     1
 62
     7
420
 16777215
176
     1
 90
        1
176
     1
 90
        4
176
     1
 62
     7
176
     1
 62
   257
176
     1
 90
        1
176
     1
 90
        1
176
     1
 40
1.0
176
     1
 90
        0
176
     1
 62
   257
176
     1
 40
1.0
176
     1
 90
        1
176
     1
 90
        6
176
     1
 90
        2
176
     1
 62
     7
176
     1
 90
        3
176
     1
 90
        0
176
     1
 90
        0
176
     1
290
     0
176
     1
 90
        1
176
     1
 40
0.0
176
     1
 90
        0
176
     1
290
     0
176
     1
290
     1
176
     1
290
     1
176
     1
290
     0
176
     1
290
     0
176
     1
290
     0
176
     1
290
     0
176
     1
290
     0
176
     1
290
     0
176
     1
 90
       50
176
     1
 40
0.0
176
     1
 40
1.0
176
     1
 90
        0
176
     1
 62
    18
176
     1
 90
       50
176
     1
 90
        3
176
     1
 62
     5
420
      255
176
     1
290
     0
176
     1
 90
       50
176
     1
 90
       50
176
     1
 90
       50
176
     1
290
     0
176
     1
 90
       50
176
     1
 62
   256
176
     0
 40
1.0
176
     0
 90
        2
176
     1
  1
strokes_ogs.tif
176
     1
290
     0
176
     1
 40
1.0
176
     1
 40
1.0
176
     1
1001
ACAD
1000
AcDbSavedByObjectVersion
1070
     0
  0
VISUALSTYLE
  5
3C
102
{ACAD_REACTORS
330
29
102
}
330
29
100
AcDbVisualStyle
  2
X-Ray
 70
    25
177
     3
291
     0
 70
    58
 90
        2
176
     1
 90
        2
176
     1
 90
        1
176
     1
 90
        1
176
     1
 40
0.5
176
     1
 40
30.0
176
     1
 62
     7
420
 16777215
176
     1
 90
        1
176
     1
 90
        0
176
     1
 62
     7
176
     1
 62
   257
176
     1
 90
        1
176
     1
 90
        1
176
     1
 40
1.0
176
     1
 90
        8
176
     1
 62
     7
176
     1
 40
1.0
176
     1
 90
        1
176
     1
 90
        6
176
     1
 90
        2
176
     1
 62
     7
176
     1
 90
        3
176
     1
 90
        0
176
     1
 90
        0
176
     1
290
     0
176
     1
 90
       13
176
     1
 40
0.0
176
     1
 90
        0
176
     1
290
     0
176
     1
290
     1
176
     1
290
     1
176
     1
290
     0
176
     1
290
     0
176
     1
290
     0
176
     1
290
     0
176
     1
290
     0
176
     1
290
     0
176
     1
 90
       50
176
     1
 40
0.0
176
     1
 40
1.0
176
     1
 90
        0
176
     1
 62
    18
176
     1
 90
       50
176
     1
 90
        3
176
     1
 62
     5
420
      255
176
     1
290
     0
176
     1
 90
       50
176
     1
 90
       50
176
     1
 90
       50
176
     1
290
     0
176
     1
 90
       50
176
     1
 62
   256
176
     0
 40
1.0
176
     0
 90
        2
176
     1
  1
strokes_ogs.tif
176
     1
290
     0
176
     1
 40
1.0
176
     1
 40
1.0
176
     1
1001
ACAD
1000
AcDbSavedByObjectVersion
1070
     0
  0
DICTIONARYVAR
  5
98
102
{ACAD_REACTORS
330
78
102
}
330
78
100
DictionaryVariables
280
     0
  1
1:1
  0
DICTIONARYVAR
  5
79
102
{ACAD_REACTORS
330
78
102
}
330
78
100
DictionaryVariables
280
     0
  1
3.500000
  0
DICTIONARYVAR
  5
7A
102
{ACAD_REACTORS
330
78
102
}
330
78
100
DictionaryVariables
280
     0
  1
acadiso.lin
  0
DICTIONARYVAR
  5
95
102
{ACAD_REACTORS
330
78
102
}
330
78
100
DictionaryVariables
280
     0
  1
STANDARD
  0
DICTIONARYVAR
  5
94
102
{ACAD_REACTORS
330
78
102
}
330
78
100
DictionaryVariables
280
     0
  1
STANDARD
  0
DICTIONARYVAR
  5
96
102
{ACAD_REACTORS
330
78
102
}
330
78
100
DictionaryVariables
280
     0
  1
Metric50
  0
DICTIONARYVAR
  5
97
102
{ACAD_REACTORS
330
78
102
}
330
78
100
DictionaryVariables
280
     0
  1
Metric50
  0
DICTIONARY
  5
446
330
6B
100
AcDbDictionary
280
     1
281
     1
  3
ACAD_XREC_ROUNDTRIP
360
447
  0
DICTIONARY
  5
1A
330
19
100
AcDbDictionary
280
     1
281
     1
  3
BUMPTILE
360
1C
  3
DIFFUSETILE
360
1B
  3
OPACITYTILE
360
1F
  3
REFLECTIONTILE
360
1E
  3
REFRACTIONTILE
360
20
  3
SPECULARTILE
360
1D
  0
DICTIONARY
  5
12
330
11
100
AcDbDictionary
280
     1
281
     1
  3
BUMPTILE
360
14
  3
DIFFUSETILE
360
13
  3
OPACITYTILE
360
17
  3
REFLECTIONTILE
360
16
  3
REFRACTIONTILE
360
18
  3
SPECULARTILE
360
15
  0
DICTIONARY
  5
22
330
21
100
AcDbDictionary
280
     1
281
     1
  3
BUMPTILE
360
24
  3
DIFFUSETILE
360
23
  3
OPACITYTILE
360
27
  3
REFLECTIONTILE
360
26
  3
REFRACTIONTILE
360
28
  3
SPECULARTILE
360
25
  0
DICTIONARY
  5
444
330
69
100
AcDbDictionary
280
     1
281
     1
  3
ACAD_XREC_ROUNDTRIP
360
445
  0
DICTIONARY
  5
99
330
65
100
AcDbDictionary
280
     1
281
     1
  3
ACAD_ROUNDTRIP_2008_TABLESTYLE_CELLSTYLEMAP
360
442
  0
XRECORD
  5
447
102
{ACAD_REACTORS
330
446
102
}
330
446
100
AcDbXrecord
280
     1
102
DISPLAYNAME
  1
Metric50
102
FLAGS
 90
        0
  0
XRECORD
  5
1C
102
{ACAD_REACTORS
330
1A
102
}
330
1A
100
AcDbXrecord
280
     1
270
     1
271
     1
  0
XRECORD
  5
1B
102
{ACAD_REACTORS
330
1A
102
}
330
1A
100
AcDbXrecord
280
     1
270
     1
271
     1
  0
XRECORD
  5
1F
102
{ACAD_REACTORS
330
1A
102
}
330
1A
100
AcDbXrecord
280
     1
270
     1
271
     1
  0
XRECORD
  5
1E
102
{ACAD_REACTORS
330
1A
102
}
330
1A
100
AcDbXrecord
280
     1
270
     1
271
     1
  0
XRECORD
  5
20
102
{ACAD_REACTORS
330
1A
102
}
330
1A
100
AcDbXrecord
280
     1
270
     1
271
     1
  0
XRECORD
  5
1D
102
{ACAD_REACTORS
330
1A
102
}
330
1A
100
AcDbXrecord
280
     1
270
     1
271
     1
  0
XRECORD
  5
14
102
{ACAD_REACTORS
330
12
102
}
330
12
100
AcDbXrecord
280
     1
270
     1
271
     1
  0
XRECORD
  5
13
102
{ACAD_REACTORS
330
12
102
}
330
12
100
AcDbXrecord
280
     1
270
     1
271
     1
  0
XRECORD
  5
17
102
{ACAD_REACTORS
330
12
102
}
330
12
100
AcDbXrecord
280
     1
270
     1
271
     1
  0
XRECORD
  5
16
102
{ACAD_REACTORS
330
12
102
}
330
12
100
AcDbXrecord
280
     1
270
     1
271
     1
  0
XRECORD
  5
18
102
{ACAD_REACTORS
330
12
102
}
330
12
100
AcDbXrecord
280
     1
270
     1
271
     1
  0
XRECORD
  5
15
102
{ACAD_REACTORS
330
12
102
}
330
12
100
AcDbXrecord
280
     1
270
     1
271
     1
  0
XRECORD
  5
24
102
{ACAD_REACTORS
330
22
102
}
330
22
100
AcDbXrecord
280
     1
270
     1
271
     1
  0
XRECORD
  5
23
102
{ACAD_REACTORS
330
22
102
}
330
22
100
AcDbXrecord
280
     1
270
     1
271
     1
  0
XRECORD
  5
27
102
{ACAD_REACTORS
330
22
102
}
330
22
100
AcDbXrecord
280
     1
270
     1
271
     1
  0
XRECORD
  5
26
102
{ACAD_REACTORS
330
22
102
}
330
22
100
AcDbXrecord
280
     1
270
     1
271
     1
  0
XRECORD
  5
28
102
{ACAD_REACTORS
330
22
102
}
330
22
100
AcDbXrecord
280
     1
270
     1
271
     1
  0
XRECORD
  5
25
102
{ACAD_REACTORS
330
22
102
}
330
22
100
AcDbXrecord
280
     1
270
     1
271
     1
  0
XRECORD
  5
445
102
{ACAD_REACTORS
330
444
102
}
330
444
100
AcDbXrecord
280
     1
102
DISPLAYNAME
  1
Metric50
102
FLAGS
 90
        0
  0
CELLSTYLEMAP
  5
442
102
{ACAD_REACTORS
330
99
102
}
330
99
100
AcDbCellStyleMap
 90
        3
300
CELLSTYLE
  1
TABLEFORMAT_BEGIN
 90
        5
170
     1
 91
        0
 92
    32768
 62
   257
 93
        1
300
CONTENTFORMAT
  1
CONTENTFORMAT_BEGIN
 90
        0
 91
        0
 92
      512
 93
        0
300

 40
0.0
140
1.0
 94
        5
 62
     0
340
55
144
6.0
309
CONTENTFORMAT_END
171
     1
301
MARGIN
  1
CELLMARGIN_BEGIN
 40
1.5
 40
1.5
 40
1.5
 40
1.5
 40
0.18
 40
0.18
309
CELLMARGIN_END
 94
        6
 95
        1
302
GRIDFORMAT
  1
GRIDFORMAT_BEGIN
 90
        0
 91
        1
 62
     0
 92
       -2
340
0
 93
        0
 40
1.125
309
GRIDFORMAT_END
 95
        2
302
GRIDFORMAT
  1
GRIDFORMAT_BEGIN
 90
        0
 91
        1
 62
     0
 92
       -2
340
0
 93
        0
 40
1.125
309
GRIDFORMAT_END
 95
        4
302
GRIDFORMAT
  1
GRIDFORMAT_BEGIN
 90
        0
 91
        1
 62
     0
 92
       -2
340
0
 93
        0
 40
1.125
309
GRIDFORMAT_END
 95
        8
302
GRIDFORMAT
  1
GRIDFORMAT_BEGIN
 90
        0
 91
        1
 62
     0
 92
       -2
340
0
 93
        0
 40
1.125
309
GRIDFORMAT_END
 95
       16
302
GRIDFORMAT
  1
GRIDFORMAT_BEGIN
 90
        0
 91
        1
 62
     0
 92
       -2
340
0
 93
        0
 40
1.125
309
GRIDFORMAT_END
 95
       32
302
GRIDFORMAT
  1
GRIDFORMAT_BEGIN
 90
        0
 91
        1
 62
     0
 92
       -2
340
0
 93
        0
 40
1.125
309
GRIDFORMAT_END
309
TABLEFORMAT_END
  1
CELLSTYLE_BEGIN
 90
        1
 91
        1
300
_TITLE
309
CELLSTYLE_END
300
CELLSTYLE
  1
TABLEFORMAT_BEGIN
 90
        5
170
     1
 91
        0
 92
        0
 62
   257
 93
        1
300
CONTENTFORMAT
  1
CONTENTFORMAT_BEGIN
 90
        0
 91
        0
 92
      512
 93
        0
300

 40
0.0
140
1.0
 94
        5
 62
     0
340
55
144
4.5
309
CONTENTFORMAT_END
171
     1
301
MARGIN
  1
CELLMARGIN_BEGIN
 40
1.5
 40
1.5
 40
1.5
 40
1.5
 40
0.18
 40
0.18
309
CELLMARGIN_END
 94
        6
 95
        1
302
GRIDFORMAT
  1
GRIDFORMAT_BEGIN
 90
        0
 91
        1
 62
     0
 92
       -2
340
0
 93
        0
 40
1.125
309
GRIDFORMAT_END
 95
        2
302
GRIDFORMAT
  1
GRIDFORMAT_BEGIN
 90
        0
 91
        1
 62
     0
 92
       -2
340
0
 93
        0
 40
1.125
309
GRIDFORMAT_END
 95
        4
302
GRIDFORMAT
  1
GRIDFORMAT_BEGIN
 90
        0
 91
        1
 62
     0
 92
       -2
340
0
 93
        0
 40
1.125
309
GRIDFORMAT_END
 95
        8
302
GRIDFORMAT
  1
GRIDFORMAT_BEGIN
 90
        0
 91
        1
 62
     0
 92
       -2
340
0
 93
        0
 40
1.125
309
GRIDFORMAT_END
 95
       16
302
GRIDFORMAT
  1
GRIDFORMAT_BEGIN
 90
        0
 91
        1
 62
     0
 92
       -2
340
0
 93
        0
 40
1.125
309
GRIDFORMAT_END
 95
       32
302
GRIDFORMAT
  1
GRIDFORMAT_BEGIN
 90
        0
 91
        1
 62
     0
 92
       -2
340
0
 93
        0
 40
1.125
309
GRIDFORMAT_END
309
TABLEFORMAT_END
  1
CELLSTYLE_BEGIN
 90
        2
 91
        1
300
_HEADER
309
CELLSTYLE_END
300
CELLSTYLE
  1
TABLEFORMAT_BEGIN
 90
        5
170
     1
 91
        0
 92
        0
 62
   257
 93
        1
300
CONTENTFORMAT
  1
CONTENTFORMAT_BEGIN
 90
        0
 91
        0
 92
      512
 93
        0
300

 40
0.0
140
1.0
 94
        2
 62
     0
340
55
144
4.5
309
CONTENTFORMAT_END
171
     1
301
MARGIN
  1
CELLMARGIN_BEGIN
 40
1.5
 40
1.5
 40
1.5
 40
1.5
 40
0.18
 40
0.18
309
CELLMARGIN_END
 94
        6
 95
        1
302
GRIDFORMAT
  1
GRIDFORMAT_BEGIN
 90
        0
 91
        1
 62
     0
 92
       -2
340
0
 93
        0
 40
1.125
309
GRIDFORMAT_END
 95
        2
302
GRIDFORMAT
  1
GRIDFORMAT_BEGIN
 90
        0
 91
        1
 62
     0
 92
       -2
340
0
 93
        0
 40
1.125
309
GRIDFORMAT_END
 95
        4
302
GRIDFORMAT
  1
GRIDFORMAT_BEGIN
 90
        0
 91
        1
 62
     0
 92
       -2
340
0
 93
        0
 40
1.125
309
GRIDFORMAT_END
 95
        8
302
GRIDFORMAT
  1
GRIDFORMAT_BEGIN
 90
        0
 91
        1
 62
     0
 92
       -2
340
0
 93
        0
 40
1.125
309
GRIDFORMAT_END
 95
       16
302
GRIDFORMAT
  1
GRIDFORMAT_BEGIN
 90
        0
 91
        1
 62
     0
 92
       -2
340
0
 93
        0
 40
1.125
309
GRIDFORMAT_END
 95
       32
302
GRIDFORMAT
  1
GRIDFORMAT_BEGIN
 90
        0
 91
        1
 62
     0
 92
       -2
340
0
 93
        0
 40
1.125
309
GRIDFORMAT_END
309
TABLEFORMAT_END
  1
CELLSTYLE_BEGIN
 90
        3
 91
        2
300
_DATA
309
CELLSTYLE_END
  0
ENDSEC
  0
EOF
